solid Default
  facet normal -3.826834e-01 9.238795e-01 -1.376693e-08
    outer loop
      vertex -2.800000e+01 -1.141988e+01 1.000000e+01
      vertex -2.679409e+01 -1.092037e+01 0.000000e+00
      vertex -2.800000e+01 -1.141988e+01 0.000000e+00
    endloop
  endfacet
  facet normal -3.826834e-01 9.238795e-01 -1.376693e-08
    outer loop
      vertex -2.679409e+01 -1.092037e+01 0.000000e+00
      vertex -2.800000e+01 -1.141988e+01 1.000000e+01
      vertex -2.679409e+01 -1.092037e+01 1.000000e+01
    endloop
  endfacet
  facet normal 1.000000e+00 -1.361087e-22 -9.134051e-15
    outer loop
      vertex -2.550000e+01 -1.075000e+01 1.000000e+01
      vertex -2.550000e+01 -2.075000e+01 0.000000e+00
      vertex -2.550000e+01 -1.075000e+01 0.000000e+00
    endloop
  endfacet
  facet normal 1.000000e+00 -1.361087e-22 -9.134051e-15
    outer loop
      vertex -2.550000e+01 -2.075000e+01 0.000000e+00
      vertex -2.550000e+01 -1.075000e+01 1.000000e+01
      vertex -2.550000e+01 -2.075000e+01 1.000000e+01
    endloop
  endfacet
  facet normal 0.000000e+00 1.000000e+00 -1.490122e-08
    outer loop
      vertex -2.550000e+01 -2.075000e+01 1.000000e+01
      vertex 3.850000e+01 -2.075000e+01 0.000000e+00
      vertex -2.550000e+01 -2.075000e+01 0.000000e+00
    endloop
  endfacet
  facet normal 0.000000e+00 1.000000e+00 -1.490122e-08
    outer loop
      vertex 3.850000e+01 -2.075000e+01 0.000000e+00
      vertex -2.550000e+01 -2.075000e+01 1.000000e+01
      vertex 3.850000e+01 -2.075000e+01 1.000000e+01
    endloop
  endfacet
  facet normal -9.134051e-15 -1.490122e-08 -1.000000e+00
    outer loop
      vertex 4.350000e+01 2.575000e+01 0.000000e+00
      vertex 3.850000e+01 2.075000e+01 0.000000e+00
      vertex -4.350000e+01 2.575000e+01 0.000000e+00
    endloop
  endfacet
  facet normal -9.134051e-15 -1.490122e-08 -1.000000e+00
    outer loop
      vertex 3.850000e+01 2.075000e+01 0.000000e+00
      vertex 4.350000e+01 2.575000e+01 0.000000e+00
      vertex 4.350000e+01 -2.575000e+01 0.000000e+00
    endloop
  endfacet
  facet normal -9.134051e-15 -1.490122e-08 -1.000000e+00
    outer loop
      vertex 3.850000e+01 2.075000e+01 0.000000e+00
      vertex 4.350000e+01 -2.575000e+01 0.000000e+00
      vertex 3.850000e+01 -2.075000e+01 0.000000e+00
    endloop
  endfacet
  facet normal -9.134051e-15 -1.490122e-08 -1.000000e+00
    outer loop
      vertex 3.850000e+01 -2.075000e+01 0.000000e+00
      vertex 4.350000e+01 -2.575000e+01 0.000000e+00
      vertex -2.550000e+01 -2.075000e+01 0.000000e+00
    endloop
  endfacet
  facet normal -9.134051e-15 -1.490122e-08 -1.000000e+00
    outer loop
      vertex -2.550000e+01 -2.075000e+01 0.000000e+00
      vertex -2.679409e+01 -1.092037e+01 0.000000e+00
      vertex -2.550000e+01 -1.075000e+01 0.000000e+00
    endloop
  endfacet
  facet normal -9.134051e-15 -1.490122e-08 -1.000000e+00
    outer loop
      vertex -2.679409e+01 -1.092037e+01 0.000000e+00
      vertex -2.550000e+01 -2.075000e+01 0.000000e+00
      vertex -2.800000e+01 -1.141988e+01 0.000000e+00
    endloop
  endfacet
  facet normal -9.134051e-15 -1.490122e-08 -1.000000e+00
    outer loop
      vertex -2.800000e+01 -1.141988e+01 0.000000e+00
      vertex -2.550000e+01 -2.075000e+01 0.000000e+00
      vertex -2.903553e+01 -1.221447e+01 0.000000e+00
    endloop
  endfacet
  facet normal -9.134051e-15 -1.490122e-08 -1.000000e+00
    outer loop
      vertex -2.903553e+01 -1.221447e+01 0.000000e+00
      vertex -2.550000e+01 -2.075000e+01 0.000000e+00
      vertex -2.983013e+01 -1.325000e+01 0.000000e+00
    endloop
  endfacet
  facet normal -9.134051e-15 -1.490122e-08 -1.000000e+00
    outer loop
      vertex -2.983013e+01 -1.325000e+01 0.000000e+00
      vertex -2.550000e+01 -2.075000e+01 0.000000e+00
      vertex -3.032963e+01 -1.445591e+01 0.000000e+00
    endloop
  endfacet
  facet normal -9.134051e-15 -1.490122e-08 -1.000000e+00
    outer loop
      vertex -3.032963e+01 -1.445591e+01 0.000000e+00
      vertex -2.550000e+01 -2.075000e+01 0.000000e+00
      vertex -3.050000e+01 -1.575000e+01 0.000000e+00
    endloop
  endfacet
  facet normal -9.134051e-15 -1.490122e-08 -1.000000e+00
    outer loop
      vertex -3.050000e+01 -1.575000e+01 0.000000e+00
      vertex -2.550000e+01 -2.075000e+01 0.000000e+00
      vertex -3.050000e+01 -2.575000e+01 0.000000e+00
    endloop
  endfacet
  facet normal -9.134051e-15 -1.490122e-08 -1.000000e+00
    outer loop
      vertex -3.050000e+01 -2.575000e+01 0.000000e+00
      vertex -2.550000e+01 -2.075000e+01 0.000000e+00
      vertex 4.350000e+01 -2.575000e+01 0.000000e+00
    endloop
  endfacet
  facet normal -9.134051e-15 -1.490122e-08 -1.000000e+00
    outer loop
      vertex -4.350000e+01 2.075000e+01 0.000000e+00
      vertex -4.350000e+01 2.575000e+01 0.000000e+00
      vertex 3.850000e+01 2.075000e+01 0.000000e+00
    endloop
  endfacet
  facet normal 9.134051e-15 1.490122e-08 1.000000e+00
    outer loop
      vertex -2.679409e+01 -1.092037e+01 1.000000e+01
      vertex -2.550000e+01 -2.075000e+01 1.000000e+01
      vertex -2.550000e+01 -1.075000e+01 1.000000e+01
    endloop
  endfacet
  facet normal 9.134051e-15 1.490122e-08 1.000000e+00
    outer loop
      vertex -2.550000e+01 -2.075000e+01 1.000000e+01
      vertex -2.679409e+01 -1.092037e+01 1.000000e+01
      vertex -2.800000e+01 -1.141988e+01 1.000000e+01
    endloop
  endfacet
  facet normal 9.134051e-15 1.490122e-08 1.000000e+00
    outer loop
      vertex -2.550000e+01 -2.075000e+01 1.000000e+01
      vertex -2.800000e+01 -1.141988e+01 1.000000e+01
      vertex -2.903553e+01 -1.221447e+01 1.000000e+01
    endloop
  endfacet
  facet normal 9.134051e-15 1.490122e-08 1.000000e+00
    outer loop
      vertex -2.550000e+01 -2.075000e+01 1.000000e+01
      vertex -2.903553e+01 -1.221447e+01 1.000000e+01
      vertex -2.983013e+01 -1.325000e+01 1.000000e+01
    endloop
  endfacet
  facet normal 9.134051e-15 1.490122e-08 1.000000e+00
    outer loop
      vertex -2.550000e+01 -2.075000e+01 1.000000e+01
      vertex -2.983013e+01 -1.325000e+01 1.000000e+01
      vertex -3.032963e+01 -1.445591e+01 1.000000e+01
    endloop
  endfacet
  facet normal 9.134051e-15 1.490122e-08 1.000000e+00
    outer loop
      vertex -2.550000e+01 -2.075000e+01 1.000000e+01
      vertex -3.032963e+01 -1.445591e+01 1.000000e+01
      vertex -3.050000e+01 -1.575000e+01 1.000000e+01
    endloop
  endfacet
  facet normal 9.134051e-15 1.490122e-08 1.000000e+00
    outer loop
      vertex -2.550000e+01 -2.075000e+01 1.000000e+01
      vertex -3.050000e+01 -1.575000e+01 1.000000e+01
      vertex -3.050000e+01 -2.575000e+01 1.000000e+01
    endloop
  endfacet
  facet normal 9.134051e-15 1.490122e-08 1.000000e+00
    outer loop
      vertex -2.550000e+01 -2.075000e+01 1.000000e+01
      vertex -3.050000e+01 -2.575000e+01 1.000000e+01
      vertex 3.850000e+01 -2.075000e+01 1.000000e+01
    endloop
  endfacet
  facet normal 9.134051e-15 1.490122e-08 1.000000e+00
    outer loop
      vertex 3.850000e+01 -2.075000e+01 1.000000e+01
      vertex -3.050000e+01 -2.575000e+01 1.000000e+01
      vertex 4.350000e+01 -2.575000e+01 1.000000e+01
    endloop
  endfacet
  facet normal 9.134051e-15 1.490122e-08 1.000000e+00
    outer loop
      vertex 4.350000e+01 2.575000e+01 1.000000e+01
      vertex 3.850000e+01 2.075000e+01 1.000000e+01
      vertex 4.350000e+01 -2.575000e+01 1.000000e+01
    endloop
  endfacet
  facet normal 9.134051e-15 1.490122e-08 1.000000e+00
    outer loop
      vertex 3.850000e+01 2.075000e+01 1.000000e+01
      vertex 4.350000e+01 2.575000e+01 1.000000e+01
      vertex -4.350000e+01 2.575000e+01 1.000000e+01
    endloop
  endfacet
  facet normal 9.134051e-15 1.490122e-08 1.000000e+00
    outer loop
      vertex 3.850000e+01 2.075000e+01 1.000000e+01
      vertex -4.350000e+01 2.575000e+01 1.000000e+01
      vertex -4.350000e+01 2.075000e+01 1.000000e+01
    endloop
  endfacet
  facet normal 9.134051e-15 1.490122e-08 1.000000e+00
    outer loop
      vertex 4.350000e+01 -2.575000e+01 1.000000e+01
      vertex 3.850000e+01 2.075000e+01 1.000000e+01
      vertex 3.850000e+01 -2.075000e+01 1.000000e+01
    endloop
  endfacet
  facet normal 1.676737e-15 -1.000000e+00 1.490122e-08
    outer loop
      vertex 4.350000e+01 -2.575000e+01 0.000000e+00
      vertex -3.050000e+01 -2.575000e+01 1.000000e+01
      vertex -3.050000e+01 -2.575000e+01 0.000000e+00
    endloop
  endfacet
  facet normal 1.676737e-15 -1.000000e+00 1.490122e-08
    outer loop
      vertex -3.050000e+01 -2.575000e+01 1.000000e+01
      vertex 4.350000e+01 -2.575000e+01 0.000000e+00
      vertex 4.350000e+01 -2.575000e+01 1.000000e+01
    endloop
  endfacet
  facet normal -9.914449e-01 1.305262e-01 -1.944990e-09
    outer loop
      vertex -3.050000e+01 -1.575000e+01 1.000000e+01
      vertex -3.032963e+01 -1.445591e+01 0.000000e+00
      vertex -3.050000e+01 -1.575000e+01 0.000000e+00
    endloop
  endfacet
  facet normal -9.914449e-01 1.305262e-01 -1.944990e-09
    outer loop
      vertex -3.032963e+01 -1.445591e+01 0.000000e+00
      vertex -3.050000e+01 -1.575000e+01 1.000000e+01
      vertex -3.032963e+01 -1.445591e+01 1.000000e+01
    endloop
  endfacet
  facet normal -1.000000e+00 1.361087e-22 9.134051e-15
    outer loop
      vertex 3.850000e+01 -2.075000e+01 1.000000e+01
      vertex 3.850000e+01 2.075000e+01 0.000000e+00
      vertex 3.850000e+01 -2.075000e+01 0.000000e+00
    endloop
  endfacet
  facet normal -1.000000e+00 1.361087e-22 9.134051e-15
    outer loop
      vertex 3.850000e+01 2.075000e+01 0.000000e+00
      vertex 3.850000e+01 -2.075000e+01 1.000000e+01
      vertex 3.850000e+01 2.075000e+01 1.000000e+01
    endloop
  endfacet
  facet normal -5.553716e-28 -1.000000e+00 1.490122e-08
    outer loop
      vertex 3.850000e+01 2.075000e+01 0.000000e+00
      vertex -4.350000e+01 2.075000e+01 1.000000e+01
      vertex -4.350000e+01 2.075000e+01 0.000000e+00
    endloop
  endfacet
  facet normal -5.553716e-28 -1.000000e+00 1.490122e-08
    outer loop
      vertex -4.350000e+01 2.075000e+01 1.000000e+01
      vertex 3.850000e+01 2.075000e+01 0.000000e+00
      vertex 3.850000e+01 2.075000e+01 1.000000e+01
    endloop
  endfacet
  facet normal -1.000000e+00 1.361087e-22 9.134051e-15
    outer loop
      vertex -4.350000e+01 2.075000e+01 0.000000e+00
      vertex -4.350000e+01 2.575000e+01 1.000000e+01
      vertex -4.350000e+01 2.575000e+01 0.000000e+00
    endloop
  endfacet
  facet normal -1.000000e+00 1.361087e-22 9.134051e-15
    outer loop
      vertex -4.350000e+01 2.575000e+01 1.000000e+01
      vertex -4.350000e+01 2.075000e+01 0.000000e+00
      vertex -4.350000e+01 2.075000e+01 1.000000e+01
    endloop
  endfacet
  facet normal -1.426190e-15 1.000000e+00 -1.490122e-08
    outer loop
      vertex -4.350000e+01 2.575000e+01 1.000000e+01
      vertex 4.350000e+01 2.575000e+01 0.000000e+00
      vertex -4.350000e+01 2.575000e+01 0.000000e+00
    endloop
  endfacet
  facet normal -1.426190e-15 1.000000e+00 -1.490122e-08
    outer loop
      vertex 4.350000e+01 2.575000e+01 0.000000e+00
      vertex -4.350000e+01 2.575000e+01 1.000000e+01
      vertex 4.350000e+01 2.575000e+01 1.000000e+01
    endloop
  endfacet
  facet normal -1.000000e+00 1.361087e-22 9.134051e-15
    outer loop
      vertex -3.050000e+01 -2.575000e+01 1.000000e+01
      vertex -3.050000e+01 -1.575000e+01 0.000000e+00
      vertex -3.050000e+01 -2.575000e+01 0.000000e+00
    endloop
  endfacet
  facet normal -1.000000e+00 1.361087e-22 9.134051e-15
    outer loop
      vertex -3.050000e+01 -1.575000e+01 0.000000e+00
      vertex -3.050000e+01 -2.575000e+01 1.000000e+01
      vertex -3.050000e+01 -1.575000e+01 1.000000e+01
    endloop
  endfacet
  facet normal 1.000000e+00 -1.361087e-22 -9.134051e-15
    outer loop
      vertex 4.350000e+01 2.575000e+01 1.000000e+01
      vertex 4.350000e+01 -2.575000e+01 0.000000e+00
      vertex 4.350000e+01 2.575000e+01 0.000000e+00
    endloop
  endfacet
  facet normal 1.000000e+00 -1.361087e-22 -9.134051e-15
    outer loop
      vertex 4.350000e+01 -2.575000e+01 0.000000e+00
      vertex 4.350000e+01 2.575000e+01 1.000000e+01
      vertex 4.350000e+01 -2.575000e+01 1.000000e+01
    endloop
  endfacet
  facet normal -6.087614e-01 7.933533e-01 -1.182192e-08
    outer loop
      vertex -2.903553e+01 -1.221447e+01 1.000000e+01
      vertex -2.800000e+01 -1.141988e+01 0.000000e+00
      vertex -2.903553e+01 -1.221447e+01 0.000000e+00
    endloop
  endfacet
  facet normal -6.087614e-01 7.933533e-01 -1.182192e-08
    outer loop
      vertex -2.800000e+01 -1.141988e+01 0.000000e+00
      vertex -2.903553e+01 -1.221447e+01 1.000000e+01
      vertex -2.800000e+01 -1.141988e+01 1.000000e+01
    endloop
  endfacet
  facet normal -7.933533e-01 6.087614e-01 -9.071279e-09
    outer loop
      vertex -2.983013e+01 -1.325000e+01 0.000000e+00
      vertex -2.903553e+01 -1.221447e+01 1.000000e+01
      vertex -2.903553e+01 -1.221447e+01 0.000000e+00
    endloop
  endfacet
  facet normal -7.933533e-01 6.087614e-01 -9.071279e-09
    outer loop
      vertex -2.903553e+01 -1.221447e+01 1.000000e+01
      vertex -2.983013e+01 -1.325000e+01 0.000000e+00
      vertex -2.983013e+01 -1.325000e+01 1.000000e+01
    endloop
  endfacet
  facet normal -9.238795e-01 3.826834e-01 -5.702440e-09
    outer loop
      vertex -3.032963e+01 -1.445591e+01 1.000000e+01
      vertex -2.983013e+01 -1.325000e+01 0.000000e+00
      vertex -3.032963e+01 -1.445591e+01 0.000000e+00
    endloop
  endfacet
  facet normal -9.238795e-01 3.826834e-01 -5.702440e-09
    outer loop
      vertex -2.983013e+01 -1.325000e+01 0.000000e+00
      vertex -3.032963e+01 -1.445591e+01 1.000000e+01
      vertex -2.983013e+01 -1.325000e+01 1.000000e+01
    endloop
  endfacet
  facet normal -1.305262e-01 9.914449e-01 -1.477373e-08
    outer loop
      vertex -2.679409e+01 -1.092037e+01 1.000000e+01
      vertex -2.550000e+01 -1.075000e+01 0.000000e+00
      vertex -2.679409e+01 -1.092037e+01 0.000000e+00
    endloop
  endfacet
  facet normal -1.305262e-01 9.914449e-01 -1.477373e-08
    outer loop
      vertex -2.550000e+01 -1.075000e+01 0.000000e+00
      vertex -2.679409e+01 -1.092037e+01 1.000000e+01
      vertex -2.550000e+01 -1.075000e+01 1.000000e+01
    endloop
  endfacet
endsolid Default
