solid JoystickMountV1
facet normal -4.75579187434634e-15 -0.866025403784444 0.499999999999991
outer loop
vertex 15.2499999999998 4.01698729810778 13.95
vertex 7.24999999999983 4.09644660940672 14.0535533905932
vertex 7.24999999999983 4.01698729810777 13.9499999999999
endloop
endfacet
facet normal -7.7107378343131e-15 -0.707106781186559 0.707106781186536
outer loop
vertex 7.24999999999983 4.09644660940672 14.0535533905932
vertex 15.2499999999998 4.01698729810778 13.95
vertex 15.2499999999998 4.09644660940673 14.0535533905933
endloop
endfacet
facet normal -1.0 0.0 0.0
outer loop
vertex 2.0 21.25 2.0
vertex 2.0 18.5 5.2735593669695e-16
vertex 2.0 18.5 2.0
endloop
endfacet
facet normal -1.0 0.0 0.0
outer loop
vertex 2.0 18.5 5.2735593669695e-16
vertex 2.0 21.25 2.0
vertex 2.0 21.25 1.77358128183868e-15
endloop
endfacet
facet normal 0.0 1.0 3.05311331771918e-16
outer loop
vertex 2.0 21.25 2.0
vertex 4.5 21.25 1.77358128183868e-15
vertex 2.0 21.25 1.77358128183868e-15
endloop
endfacet
facet normal 0.0 1.0 3.05311331771918e-16
outer loop
vertex 4.5 21.25 1.77358128183868e-15
vertex 2.0 21.25 2.0
vertex 4.5 21.25 2.0
endloop
endfacet
facet normal -1.0 0.0 0.0
outer loop
vertex 4.5 24.85 2.0
vertex 4.5 21.25 1.77358128183868e-15
vertex 4.5 21.25 2.0
endloop
endfacet
facet normal -1.0 0.0 0.0
outer loop
vertex 4.5 21.25 1.77358128183868e-15
vertex 4.5 24.85 2.0
vertex 4.5 24.85 5.10980147083728e-15
endloop
endfacet
facet normal 0.0 1.0 3.05311331771918e-16
outer loop
vertex 4.5 24.85 2.0
vertex 18.0 24.85 5.10980147083728e-15
vertex 4.5 24.85 5.10980147083728e-15
endloop
endfacet
facet normal 0.0 1.0 3.05311331771918e-16
outer loop
vertex 18.0 24.85 5.10980147083728e-15
vertex 4.5 24.85 2.0
vertex 18.0 24.85 2.0
endloop
endfacet
facet normal 1.0 -7.83324022929972e-16 -2.68431835804372e-31
outer loop
vertex 18.0 24.85 5.10980147083728e-15
vertex 18.0 21.25 2.0
vertex 18.0 21.25 3.63598040564736e-16
endloop
endfacet
facet normal 1.0 -7.83324022929972e-16 -2.68431835804372e-31
outer loop
vertex 18.0 21.25 2.0
vertex 18.0 24.85 5.10980147083728e-15
vertex 18.0 24.85 2.0
endloop
endfacet
facet normal -1.40998324127395e-16 1.0 3.05311331771918e-16
outer loop
vertex 18.0 21.25 2.0
vertex 20.5 21.25 3.18356452311263e-15
vertex 18.0 21.25 3.63598040564736e-16
endloop
endfacet
facet normal -1.40998324127395e-16 1.0 3.05311331771918e-16
outer loop
vertex 20.5 21.25 3.18356452311263e-15
vertex 18.0 21.25 2.0
vertex 20.5 21.25 2.0
endloop
endfacet
facet normal 1.0 0.0 0.0
outer loop
vertex 20.5 19.25 -5.85297299618059e-16
vertex 20.5 21.25 2.0
vertex 20.5 19.25 2.0
endloop
endfacet
facet normal 1.0 0.0 0.0
outer loop
vertex 20.5 21.25 2.0
vertex 20.5 19.25 -5.85297299618059e-16
vertex 20.5 21.25 3.18356452311263e-15
endloop
endfacet
facet normal 1.0 0.0 0.0
outer loop
vertex 27.2 5.75000000000001 -5.44286837822483e-15
vertex 27.2 17.75 2.0
vertex 27.2 5.75 1.99999999999999
endloop
endfacet
facet normal 1.0 0.0 0.0
outer loop
vertex 27.2 17.75 2.0
vertex 27.2 5.75000000000001 -5.44286837822483e-15
vertex 27.2 17.75 -9.02056207507935e-16
endloop
endfacet
facet normal 1.0 0.0 0.0
outer loop
vertex 20.5 2.25000000000001 -4.59354776438659e-15
vertex 20.5 5.25 1.99999999999999
vertex 20.5 2.25000000000001 1.99999999999999
endloop
endfacet
facet normal 1.0 0.0 0.0
outer loop
vertex 20.5 5.25 1.99999999999999
vertex 20.5 2.25000000000001 -4.59354776438659e-15
vertex 20.5 5.25000000000001 -5.49160052049718e-15
endloop
endfacet
facet normal 0.0 1.0 3.05311331771918e-16
outer loop
vertex -1.85 18.5 2.0
vertex 2.0 18.5 5.2735593669695e-16
vertex -1.85 18.5 5.2735593669695e-16
endloop
endfacet
facet normal 0.0 1.0 3.05311331771918e-16
outer loop
vertex 2.0 18.5 5.2735593669695e-16
vertex -1.85 18.5 2.0
vertex 2.0 18.5 2.0
endloop
endfacet
facet normal -3.73701113139224e-16 -3.97351347823373e-16 1.0
outer loop
vertex 2.0 2.25000000000001 -4.59354776438659e-15
vertex 3.9 3.45 -1.60149671302178e-15
vertex 2.0 5.00000000000001 -7.92976795338518e-15
endloop
endfacet
facet normal -3.73701113139224e-16 -3.97351347823373e-16 1.0
outer loop
vertex 3.9 3.45 -1.60149671302178e-15
vertex 2.0 2.25000000000001 -4.59354776438659e-15
vertex 7.24999999999999 2.25000000000001 -5.57054402605672e-14
endloop
endfacet
facet normal -3.73701113139224e-16 -3.97351347823373e-16 1.0
outer loop
vertex 2.0 5.00000000000001 -7.92976795338518e-15
vertex 3.9 3.45 -1.60149671302178e-15
vertex 2.5 7.0 -2.82551759767102e-15
endloop
endfacet
facet normal -3.73701113139224e-16 -3.97351347823373e-16 1.0
outer loop
vertex 2.5 7.0 -2.82551759767102e-15
vertex 3.9 3.45 -1.60149671302178e-15
vertex 2.5 16.5 1.06303854607859e-15
endloop
endfacet
facet normal -3.73701113139224e-16 -3.97351347823373e-16 1.0
outer loop
vertex 3.9 3.45 -1.60149671302178e-15
vertex 7.24999999999999 2.25000000000001 -5.57054402605672e-14
vertex 5.9 3.45 -1.60149671302178e-15
endloop
endfacet
facet normal -3.73701113139224e-16 -3.97351347823373e-16 1.0
outer loop
vertex 5.9 3.45 -1.60149671302178e-15
vertex 7.24999999999999 2.25000000000001 -5.57054402605672e-14
vertex 5.9 4.45000000000001 -4.86555240541975e-15
endloop
endfacet
facet normal -3.73701113139224e-16 -3.97351347823373e-16 1.0
outer loop
vertex 5.9 4.45000000000001 -4.86555240541975e-15
vertex 7.24999999999999 2.25000000000001 -5.57054402605672e-14
vertex 5.9 19.05 -3.59434704222395e-15
endloop
endfacet
facet normal -3.73701113139224e-16 -3.97351347823373e-16 1.0
outer loop
vertex 5.9 19.05 -3.59434704222395e-15
vertex 7.24999999999999 2.25000000000001 -5.57054402605672e-14
vertex 5.9 20.05 -2.27595720048157e-15
endloop
endfacet
facet normal -3.73701113139224e-16 -3.97351347823373e-16 1.0
outer loop
vertex 5.9 20.05 -2.27595720048157e-15
vertex 7.24999999999999 2.25000000000001 -5.57054402605672e-14
vertex 6.5 20.5 -3.60822483003174e-16
endloop
endfacet
facet normal -3.73701113139224e-16 -3.97351347823373e-16 1.0
outer loop
vertex 6.5 20.5 -3.60822483003174e-16
vertex 7.24999999999999 2.25000000000001 -5.57054402605672e-14
vertex 16.0 20.5 3.441691376338e-16
endloop
endfacet
facet normal -3.73701113139224e-16 -3.97351347823373e-16 1.0
outer loop
vertex 16.0 20.5 3.441691376338e-16
vertex 7.24999999999999 2.25000000000001 -5.57054402605672e-14
vertex 7.25000000001187 1.20000000000001 -5.57970336600988e-14
endloop
endfacet
facet normal -3.73701113139224e-16 -3.97351347823373e-16 1.0
outer loop
vertex 16.0 20.5 3.441691376338e-16
vertex 7.25000000001187 1.20000000000001 -5.57970336600988e-14
vertex 15.25 2.25000000000001 4.33458824389277e-14
endloop
endfacet
facet normal -3.73701113139224e-16 -3.97351347823373e-16 1.0
outer loop
vertex 16.0 20.5 3.441691376338e-16
vertex 15.25 2.25000000000001 4.33458824389277e-14
vertex 17.2 3.45 -1.60149671302178e-15
endloop
endfacet
facet normal -3.73701113139224e-16 -3.97351347823373e-16 1.0
outer loop
vertex 17.2 3.45 -1.60149671302178e-15
vertex 15.25 2.25000000000001 4.33458824389277e-14
vertex 20.5 2.25000000000001 -4.59354776438659e-15
endloop
endfacet
facet normal -3.73701113139224e-16 -3.97351347823373e-16 1.0
outer loop
vertex 16.0 20.5 3.441691376338e-16
vertex 17.2 3.45 -1.60149671302178e-15
vertex 16.0 22.85 4.23550083894497e-15
endloop
endfacet
facet normal -3.73701113139224e-16 -3.97351347823373e-16 1.0
outer loop
vertex 17.2 3.45 -1.60149671302178e-15
vertex 20.5 2.25000000000001 -4.59354776438659e-15
vertex 19.2 3.45 -1.60149671302178e-15
endloop
endfacet
facet normal -3.73701113139224e-16 -3.97351347823373e-16 1.0
outer loop
vertex 19.2 3.45 -1.60149671302178e-15
vertex 20.5 2.25000000000001 -4.59354776438659e-15
vertex 19.2 4.45000000000001 -4.86555240541975e-15
endloop
endfacet
facet normal -3.73701113139224e-16 -3.97351347823373e-16 1.0
outer loop
vertex 17.2 4.45000000000001 -4.86555240541975e-15
vertex 18.7 7.75000000000001 -5.62605517728798e-15
vertex 17.2 19.05 -3.59434704222395e-15
endloop
endfacet
facet normal -3.73701113139224e-16 -3.97351347823373e-16 1.0
outer loop
vertex 18.7 7.75000000000001 -5.62605517728798e-15
vertex 17.2 4.45000000000001 -4.86555240541975e-15
vertex 19.2 4.45000000000001 -4.86555240541975e-15
endloop
endfacet
facet normal -3.73701113139224e-16 -3.97351347823373e-16 1.0
outer loop
vertex 18.7 7.75000000000001 -5.62605517728798e-15
vertex 19.2 4.45000000000001 -4.86555240541975e-15
vertex 20.5 5.25000000000001 -5.49160052049718e-15
endloop
endfacet
facet normal -3.73701113139224e-16 -3.97351347823373e-16 1.0
outer loop
vertex 18.7 7.75000000000001 -5.62605517728798e-15
vertex 20.5 5.25000000000001 -5.49160052049718e-15
vertex 25.2 7.75000000000001 -5.62605517728798e-15
endloop
endfacet
facet normal -3.73701113139224e-16 -3.97351347823373e-16 1.0
outer loop
vertex 20.5 5.25000000000001 -5.49160052049718e-15
vertex 19.2 4.45000000000001 -4.86555240541975e-15
vertex 20.5 2.25000000000001 -4.59354776438659e-15
endloop
endfacet
facet normal -3.73701113139224e-16 -3.97351347823373e-16 1.0
outer loop
vertex 25.2 7.75000000000001 -5.62605517728798e-15
vertex 20.5 5.25000000000001 -5.49160052049718e-15
vertex 23.7 5.75 -5.63993296509579e-15
endloop
endfacet
facet normal -3.73701113139224e-16 -3.97351347823373e-16 1.0
outer loop
vertex 23.7 5.75 -5.63993296509579e-15
vertex 20.5 5.25000000000001 -5.49160052049718e-15
vertex 23.7 5.25 -5.68866510736814e-15
endloop
endfacet
facet normal -3.73701113139224e-16 -3.97351347823373e-16 1.0
outer loop
vertex 25.2 7.75000000000001 -5.62605517728798e-15
vertex 23.7 5.75 -5.63993296509579e-15
vertex 27.2 5.75000000000001 -5.44286837822483e-15
endloop
endfacet
facet normal -3.73701113139224e-16 -3.97351347823373e-16 1.0
outer loop
vertex 25.2 7.75000000000001 -5.62605517728798e-15
vertex 27.2 5.75000000000001 -5.44286837822483e-15
vertex 25.2 16.25 6.91113832829163e-16
endloop
endfacet
facet normal -3.73701113139224e-16 -3.97351347823373e-16 1.0
outer loop
vertex 17.2 19.05 -3.59434704222395e-15
vertex 18.7 16.25 6.91113832829163e-16
vertex 19.2 19.05 -3.59434704222395e-15
endloop
endfacet
facet normal -3.73701113139224e-16 -3.97351347823373e-16 1.0
outer loop
vertex 18.7 16.25 6.91113832829163e-16
vertex 17.2 19.05 -3.59434704222395e-15
vertex 18.7 7.75000000000001 -5.62605517728798e-15
endloop
endfacet
facet normal -3.73701113139224e-16 -3.97351347823373e-16 1.0
outer loop
vertex 19.2 19.05 -3.59434704222395e-15
vertex 18.7 16.25 6.91113832829163e-16
vertex 25.2 16.25 6.91113832829163e-16
endloop
endfacet
facet normal -3.73701113139224e-16 -3.97351347823373e-16 1.0
outer loop
vertex 19.2 19.05 -3.59434704222395e-15
vertex 25.2 16.25 6.91113832829163e-16
vertex 19.2 20.05 -2.27595720048157e-15
endloop
endfacet
facet normal -3.73701113139224e-16 -3.97351347823373e-16 1.0
outer loop
vertex 19.2 20.05 -2.27595720048157e-15
vertex 25.2 16.25 6.91113832829163e-16
vertex 20.5 19.25 -5.85297299618059e-16
endloop
endfacet
facet normal -3.73701113139224e-16 -3.97351347823373e-16 1.0
outer loop
vertex 20.5 19.25 -5.85297299618059e-16
vertex 25.2 16.25 6.91113832829163e-16
vertex 23.7 17.75 -9.79771819231698e-16
endloop
endfacet
facet normal -3.73701113139224e-16 -3.97351347823373e-16 1.0
outer loop
vertex 23.7 17.75 -9.79771819231698e-16
vertex 25.2 16.25 6.91113832829163e-16
vertex 27.2 17.75 -9.02056207507935e-16
endloop
endfacet
facet normal -3.73701113139224e-16 -3.97351347823373e-16 1.0
outer loop
vertex 27.2 17.75 -9.02056207507935e-16
vertex 25.2 16.25 6.91113832829163e-16
vertex 27.2 5.75000000000001 -5.44286837822483e-15
endloop
endfacet
facet normal -3.73701113139224e-16 -3.97351347823373e-16 1.0
outer loop
vertex 23.7 19.25 -6.63012911341822e-16
vertex 20.5 19.25 -5.85297299618059e-16
vertex 23.7 17.75 -9.79771819231698e-16
endloop
endfacet
facet normal -3.73701113139224e-16 -3.97351347823373e-16 1.0
outer loop
vertex 19.2 20.05 -2.27595720048157e-15
vertex 18.0 21.25 3.63598040564736e-16
vertex 17.2 20.05 -2.27595720048157e-15
endloop
endfacet
facet normal -3.73701113139224e-16 -3.97351347823373e-16 1.0
outer loop
vertex 18.0 21.25 3.63598040564736e-16
vertex 19.2 20.05 -2.27595720048157e-15
vertex 20.5 21.25 3.18356452311263e-15
endloop
endfacet
facet normal -3.73701113139224e-16 -3.97351347823373e-16 1.0
outer loop
vertex 20.5 21.25 3.18356452311263e-15
vertex 19.2 20.05 -2.27595720048157e-15
vertex 20.5 19.25 -5.85297299618059e-16
endloop
endfacet
facet normal -3.73701113139224e-16 -3.97351347823373e-16 1.0
outer loop
vertex 15.2500000000119 1.20000000000001 4.32542890393961e-14
vertex 15.25 2.25000000000001 4.33458824389277e-14
vertex 7.25000000001187 1.20000000000001 -5.57970336600988e-14
endloop
endfacet
facet normal -3.73701113139224e-16 -3.97351347823373e-16 1.0
outer loop
vertex -0.100000000000004 5.00000000000001 -7.92976795338518e-15
vertex -1.85 18.5 5.2735593669695e-16
vertex -1.85 5.00000000000001 -7.92976795338518e-15
endloop
endfacet
facet normal -3.73701113139224e-16 -3.97351347823373e-16 1.0
outer loop
vertex -1.85 18.5 5.2735593669695e-16
vertex -0.100000000000004 5.00000000000001 -7.92976795338518e-15
vertex 0.149999999999996 16.5 1.06303854607859e-15
endloop
endfacet
facet normal -3.73701113139224e-16 -3.97351347823373e-16 1.0
outer loop
vertex -1.85 18.5 5.2735593669695e-16
vertex 0.149999999999996 16.5 1.06303854607859e-15
vertex 2.0 18.5 5.2735593669695e-16
endloop
endfacet
facet normal -3.73701113139224e-16 -3.97351347823373e-16 1.0
outer loop
vertex 0.149999999999996 16.5 1.06303854607859e-15
vertex -0.100000000000004 5.00000000000001 -7.92976795338518e-15
vertex 0.149999999999996 7.0 -2.82551759767102e-15
endloop
endfacet
facet normal -3.73701113139224e-16 -3.97351347823373e-16 1.0
outer loop
vertex 2.0 18.5 5.2735593669695e-16
vertex 0.149999999999996 16.5 1.06303854607859e-15
vertex 2.5 16.5 1.06303854607859e-15
endloop
endfacet
facet normal -3.73701113139224e-16 -3.97351347823373e-16 1.0
outer loop
vertex 2.0 18.5 5.2735593669695e-16
vertex 2.5 16.5 1.06303854607859e-15
vertex 2.0 21.25 1.77358128183868e-15
endloop
endfacet
facet normal -3.73701113139224e-16 -3.97351347823373e-16 1.0
outer loop
vertex 2.0 21.25 1.77358128183868e-15
vertex 2.5 16.5 1.06303854607859e-15
vertex 3.9 20.05 -2.27595720048157e-15
endloop
endfacet
facet normal -3.73701113139224e-16 -3.97351347823373e-16 1.0
outer loop
vertex 2.0 21.25 1.77358128183868e-15
vertex 3.9 20.05 -2.27595720048157e-15
vertex 4.5 21.25 1.77358128183868e-15
endloop
endfacet
facet normal -3.73701113139224e-16 -3.97351347823373e-16 1.0
outer loop
vertex 3.9 20.05 -2.27595720048157e-15
vertex 2.5 16.5 1.06303854607859e-15
vertex 3.9 3.45 -1.60149671302178e-15
endloop
endfacet
facet normal -3.73701113139224e-16 -3.97351347823373e-16 1.0
outer loop
vertex 3.9 20.05 -2.27595720048157e-15
vertex 3.9 3.45 -1.60149671302178e-15
vertex 3.9 4.45000000000001 -4.86555240541975e-15
endloop
endfacet
facet normal -3.73701113139224e-16 -3.97351347823373e-16 1.0
outer loop
vertex 3.9 20.05 -2.27595720048157e-15
vertex 3.9 4.45000000000001 -4.86555240541975e-15
vertex 3.9 19.05 -3.59434704222395e-15
endloop
endfacet
facet normal -3.73701113139224e-16 -3.97351347823373e-16 1.0
outer loop
vertex 4.5 21.25 1.77358128183868e-15
vertex 3.9 20.05 -2.27595720048157e-15
vertex 5.9 20.05 -2.27595720048157e-15
endloop
endfacet
facet normal -3.73701113139224e-16 -3.97351347823373e-16 1.0
outer loop
vertex 4.5 21.25 1.77358128183868e-15
vertex 5.9 20.05 -2.27595720048157e-15
vertex 4.5 24.85 5.10980147083728e-15
endloop
endfacet
facet normal -3.73701113139224e-16 -3.97351347823373e-16 1.0
outer loop
vertex 4.5 24.85 5.10980147083728e-15
vertex 5.9 20.05 -2.27595720048157e-15
vertex 6.5 22.85 4.23550083894497e-15
endloop
endfacet
facet normal -3.73701113139224e-16 -3.97351347823373e-16 1.0
outer loop
vertex 4.5 24.85 5.10980147083728e-15
vertex 6.5 22.85 4.23550083894497e-15
vertex 18.0 24.85 5.10980147083728e-15
endloop
endfacet
facet normal -3.73701113139224e-16 -3.97351347823373e-16 1.0
outer loop
vertex 6.5 22.85 4.23550083894497e-15
vertex 5.9 20.05 -2.27595720048157e-15
vertex 6.5 20.5 -3.60822483003174e-16
endloop
endfacet
facet normal -3.73701113139224e-16 -3.97351347823373e-16 1.0
outer loop
vertex 18.0 24.85 5.10980147083728e-15
vertex 6.5 22.85 4.23550083894497e-15
vertex 16.0 22.85 4.23550083894497e-15
endloop
endfacet
facet normal -3.73701113139224e-16 -3.97351347823373e-16 1.0
outer loop
vertex 18.0 24.85 5.10980147083728e-15
vertex 16.0 22.85 4.23550083894497e-15
vertex 17.2 20.05 -2.27595720048157e-15
endloop
endfacet
facet normal -3.73701113139224e-16 -3.97351347823373e-16 1.0
outer loop
vertex 17.2 20.05 -2.27595720048157e-15
vertex 16.0 22.85 4.23550083894497e-15
vertex 17.2 3.45 -1.60149671302178e-15
endloop
endfacet
facet normal -3.73701113139224e-16 -3.97351347823373e-16 1.0
outer loop
vertex 17.2 20.05 -2.27595720048157e-15
vertex 17.2 3.45 -1.60149671302178e-15
vertex 17.2 4.45000000000001 -4.86555240541975e-15
endloop
endfacet
facet normal -3.73701113139224e-16 -3.97351347823373e-16 1.0
outer loop
vertex 17.2 20.05 -2.27595720048157e-15
vertex 17.2 4.45000000000001 -4.86555240541975e-15
vertex 17.2 19.05 -3.59434704222395e-15
endloop
endfacet
facet normal -3.73701113139224e-16 -3.97351347823373e-16 1.0
outer loop
vertex 18.0 24.85 5.10980147083728e-15
vertex 17.2 20.05 -2.27595720048157e-15
vertex 18.0 21.25 3.63598040564736e-16
endloop
endfacet
facet normal -3.73701113139224e-16 -3.97351347823373e-16 1.0
outer loop
vertex 5.9 4.45000000000001 -4.86555240541975e-15
vertex 3.9 19.05 -3.59434704222395e-15
vertex 3.9 4.45000000000001 -4.86555240541975e-15
endloop
endfacet
facet normal -3.73701113139224e-16 -3.97351347823373e-16 1.0
outer loop
vertex 3.9 19.05 -3.59434704222395e-15
vertex 5.9 4.45000000000001 -4.86555240541975e-15
vertex 5.9 19.05 -3.59434704222395e-15
endloop
endfacet
facet normal -3.73701113139224e-16 -3.97351347823373e-16 1.0
outer loop
vertex 2.0 5.00000000000001 -7.92976795338518e-15
vertex 0.149999999999996 7.0 -2.82551759767102e-15
vertex -0.100000000000004 5.00000000000001 -7.92976795338518e-15
endloop
endfacet
facet normal -3.73701113139224e-16 -3.97351347823373e-16 1.0
outer loop
vertex 0.149999999999996 7.0 -2.82551759767102e-15
vertex 2.0 5.00000000000001 -7.92976795338518e-15
vertex 2.5 7.0 -2.82551759767102e-15
endloop
endfacet
facet normal -1.0 0.0 0.0
outer loop
vertex -1.85 18.5 2.0
vertex -1.85 5.00000000000001 -7.92976795338518e-15
vertex -1.85 5.00000000000001 2.0
endloop
endfacet
facet normal -1.0 0.0 0.0
outer loop
vertex -1.85 5.00000000000001 -7.92976795338518e-15
vertex -1.85 18.5 2.0
vertex -1.85 18.5 5.2735593669695e-16
endloop
endfacet
facet normal 0.0 -1.0 -3.05311331771918e-16
outer loop
vertex -0.100000000000004 5.00000000000001 2.0
vertex -1.85 5.00000000000001 -7.92976795338518e-15
vertex -0.100000000000004 5.00000000000001 -7.92976795338518e-15
endloop
endfacet
facet normal 0.0 -1.0 -3.05311331771918e-16
outer loop
vertex -1.85 5.00000000000001 -7.92976795338518e-15
vertex -0.100000000000004 5.00000000000001 2.0
vertex -1.85 5.00000000000001 2.0
endloop
endfacet
facet normal 0.0 -1.0 -3.05311331771918e-16
outer loop
vertex 2.0 5.00000000000001 2.0
vertex -0.100000000000004 5.00000000000001 -7.92976795338518e-15
vertex 2.0 5.00000000000001 -7.92976795338518e-15
endloop
endfacet
facet normal 0.0 -1.0 -3.05311331771918e-16
outer loop
vertex -0.100000000000004 5.00000000000001 -7.92976795338518e-15
vertex 2.0 5.00000000000001 2.0
vertex -0.100000000000004 5.00000000000001 2.0
endloop
endfacet
facet normal -2.0142617732485e-15 -1.0 -7.04991620636965e-16
outer loop
vertex 27.2 17.75 -9.02056207507935e-16
vertex 23.7 17.75 2.00000000000001
vertex 23.7 17.75 -9.79771819231698e-16
endloop
endfacet
facet normal -2.0142617732485e-15 -1.0 -7.04991620636965e-16
outer loop
vertex 23.7 17.75 2.00000000000001
vertex 27.2 17.75 -9.02056207507935e-16
vertex 27.2 17.75 2.0
endloop
endfacet
facet normal -1.0 0.0 0.0
outer loop
vertex 2.0 5.00000000000001 2.0
vertex 2.0 2.25000000000001 -4.59354776438659e-15
vertex 2.0 2.25000000000001 1.99999999999999
endloop
endfacet
facet normal -1.0 0.0 0.0
outer loop
vertex 2.0 2.25000000000001 -4.59354776438659e-15
vertex 2.0 5.00000000000001 2.0
vertex 2.0 5.00000000000001 -7.92976795338518e-15
endloop
endfacet
facet normal 0.0 1.0 3.05311331771918e-16
outer loop
vertex 17.2 19.05 2.0
vertex 19.2 19.05 -3.59434704222395e-15
vertex 17.2 19.05 -3.59434704222395e-15
endloop
endfacet
facet normal 0.0 1.0 3.05311331771918e-16
outer loop
vertex 19.2 19.05 -3.59434704222395e-15
vertex 17.2 19.05 2.0
vertex 19.2 19.05 2.0
endloop
endfacet
facet normal 1.0 0.0 0.0
outer loop
vertex 17.2 20.05 -2.27595720048157e-15
vertex 17.2 19.05 2.0
vertex 17.2 19.05 -3.59434704222395e-15
endloop
endfacet
facet normal 1.0 0.0 0.0
outer loop
vertex 17.2 19.05 2.0
vertex 17.2 20.05 -2.27595720048157e-15
vertex 17.2 20.05 2.0
endloop
endfacet
facet normal 0.0 1.0 3.05311331771918e-16
outer loop
vertex 3.9 19.05 2.0
vertex 5.9 19.05 -3.59434704222395e-15
vertex 3.9 19.05 -3.59434704222395e-15
endloop
endfacet
facet normal 0.0 1.0 3.05311331771918e-16
outer loop
vertex 5.9 19.05 -3.59434704222395e-15
vertex 3.9 19.05 2.0
vertex 5.9 19.05 2.0
endloop
endfacet
facet normal 1.0 0.0 0.0
outer loop
vertex 3.9 20.05 -2.27595720048157e-15
vertex 3.9 19.05 2.0
vertex 3.9 19.05 -3.59434704222395e-15
endloop
endfacet
facet normal 1.0 0.0 0.0
outer loop
vertex 3.9 19.05 2.0
vertex 3.9 20.05 -2.27595720048157e-15
vertex 3.9 20.05 2.0
endloop
endfacet
facet normal 2.05622556019118e-15 -1.0 -2.11172605259918e-16
outer loop
vertex 23.7 19.25 5.80000000000001
vertex 20.5 19.25 -5.85297299618059e-16
vertex 23.7 19.25 -6.63012911341822e-16
endloop
endfacet
facet normal 2.05622556019118e-15 -1.0 -2.11172605259918e-16
outer loop
vertex 20.5 19.25 -5.85297299618059e-16
vertex 23.7 19.25 5.80000000000001
vertex 20.5 19.25 2.0
endloop
endfacet
facet normal 2.05622556019118e-15 -1.0 -2.11172605259918e-16
outer loop
vertex 20.5 19.25 2.0
vertex 23.7 19.25 5.80000000000001
vertex 20.5 19.25 5.8
endloop
endfacet
facet normal 0.0 -1.0 -3.05311331771918e-16
outer loop
vertex 19.2 20.05 2.0
vertex 17.2 20.05 -2.27595720048157e-15
vertex 19.2 20.05 -2.27595720048157e-15
endloop
endfacet
facet normal 0.0 -1.0 -3.05311331771918e-16
outer loop
vertex 17.2 20.05 -2.27595720048157e-15
vertex 19.2 20.05 2.0
vertex 17.2 20.05 2.0
endloop
endfacet
facet normal -1.0 0.0 0.0
outer loop
vertex 19.2 20.05 2.0
vertex 19.2 19.05 -3.59434704222395e-15
vertex 19.2 19.05 2.0
endloop
endfacet
facet normal -1.0 0.0 0.0
outer loop
vertex 19.2 19.05 -3.59434704222395e-15
vertex 19.2 20.05 2.0
vertex 19.2 20.05 -2.27595720048157e-15
endloop
endfacet
facet normal 7.04991620636953e-16 -1.0 -1.85060300417205e-15
outer loop
vertex 20.5 2.25000000000001 1.99999999999999
vertex 15.25 2.25000000000001 4.33458824389277e-14
vertex 20.5 2.25000000000001 -4.59354776438659e-15
endloop
endfacet
facet normal 7.04991620636953e-16 -1.0 -1.85060300417205e-15
outer loop
vertex 15.25 2.25000000000001 4.33458824389277e-14
vertex 20.5 2.25000000000001 1.99999999999999
vertex 15.25 2.25 2.00000000000004
endloop
endfacet
facet normal 0.0 1.0 3.05311331771918e-16
outer loop
vertex 3.9 3.45 1.99999999999999
vertex 5.9 3.45 -1.60149671302178e-15
vertex 3.9 3.45 -1.60149671302178e-15
endloop
endfacet
facet normal 0.0 1.0 3.05311331771918e-16
outer loop
vertex 5.9 3.45 -1.60149671302178e-15
vertex 3.9 3.45 1.99999999999999
vertex 5.9 3.45 1.99999999999999
endloop
endfacet
facet normal 1.0 0.0 0.0
outer loop
vertex 3.9 3.45 -1.60149671302178e-15
vertex 3.9 4.45 1.99999999999999
vertex 3.9 3.45 1.99999999999999
endloop
endfacet
facet normal 1.0 0.0 0.0
outer loop
vertex 3.9 4.45 1.99999999999999
vertex 3.9 3.45 -1.60149671302178e-15
vertex 3.9 4.45000000000001 -4.86555240541975e-15
endloop
endfacet
facet normal 0.0 -1.0 -3.05311331771918e-16
outer loop
vertex 5.9 4.45 1.99999999999999
vertex 3.9 4.45000000000001 -4.86555240541975e-15
vertex 5.9 4.45000000000001 -4.86555240541975e-15
endloop
endfacet
facet normal 0.0 -1.0 -3.05311331771918e-16
outer loop
vertex 3.9 4.45000000000001 -4.86555240541975e-15
vertex 5.9 4.45 1.99999999999999
vertex 3.9 4.45 1.99999999999999
endloop
endfacet
facet normal -1.0 7.04991620636974e-16 2.29262700579857e-31
outer loop
vertex 5.9 4.45 1.99999999999999
vertex 5.9 3.45 -1.60149671302178e-15
vertex 5.9 3.45 1.99999999999999
endloop
endfacet
facet normal -1.0 7.04991620636974e-16 2.29262700579857e-31
outer loop
vertex 5.9 3.45 -1.60149671302178e-15
vertex 5.9 4.45 1.99999999999999
vertex 5.9 4.45000000000001 -4.86555240541975e-15
endloop
endfacet
facet normal 0.0 -1.0 -3.05311331771918e-16
outer loop
vertex 5.9 20.05 2.0
vertex 3.9 20.05 -2.27595720048157e-15
vertex 5.9 20.05 -2.27595720048157e-15
endloop
endfacet
facet normal 0.0 -1.0 -3.05311331771918e-16
outer loop
vertex 3.9 20.05 -2.27595720048157e-15
vertex 5.9 20.05 2.0
vertex 3.9 20.05 2.0
endloop
endfacet
facet normal -1.0 0.0 0.0
outer loop
vertex 5.9 20.05 2.0
vertex 5.9 19.05 -3.59434704222395e-15
vertex 5.9 19.05 2.0
endloop
endfacet
facet normal -1.0 0.0 0.0
outer loop
vertex 5.9 19.05 -3.59434704222395e-15
vertex 5.9 20.05 2.0
vertex 5.9 20.05 -2.27595720048157e-15
endloop
endfacet
facet normal -1.0 0.0 0.0
outer loop
vertex 19.2 4.45 1.99999999999999
vertex 19.2 3.45 -1.60149671302178e-15
vertex 19.2 3.45 1.99999999999999
endloop
endfacet
facet normal -1.0 0.0 0.0
outer loop
vertex 19.2 3.45 -1.60149671302178e-15
vertex 19.2 4.45 1.99999999999999
vertex 19.2 4.45000000000001 -4.86555240541975e-15
endloop
endfacet
facet normal 0.0 1.0 3.05311331771918e-16
outer loop
vertex 17.2 3.45 1.99999999999999
vertex 19.2 3.45 -1.60149671302178e-15
vertex 17.2 3.45 -1.60149671302178e-15
endloop
endfacet
facet normal 0.0 1.0 3.05311331771918e-16
outer loop
vertex 19.2 3.45 -1.60149671302178e-15
vertex 17.2 3.45 1.99999999999999
vertex 19.2 3.45 1.99999999999999
endloop
endfacet
facet normal 1.0 0.0 0.0
outer loop
vertex 17.2 3.45 -1.60149671302178e-15
vertex 17.2 4.45 1.99999999999999
vertex 17.2 3.45 1.99999999999999
endloop
endfacet
facet normal 1.0 0.0 0.0
outer loop
vertex 17.2 4.45 1.99999999999999
vertex 17.2 3.45 -1.60149671302178e-15
vertex 17.2 4.45000000000001 -4.86555240541975e-15
endloop
endfacet
facet normal 0.0 -1.0 -3.05311331771918e-16
outer loop
vertex 19.2 4.45 1.99999999999999
vertex 17.2 4.45000000000001 -4.86555240541975e-15
vertex 19.2 4.45000000000001 -4.86555240541975e-15
endloop
endfacet
facet normal 0.0 -1.0 -3.05311331771918e-16
outer loop
vertex 17.2 4.45000000000001 -4.86555240541975e-15
vertex 19.2 4.45 1.99999999999999
vertex 17.2 4.45 1.99999999999999
endloop
endfacet
facet normal -1.0 0.0 0.0
outer loop
vertex 25.2 16.25 2.0
vertex 25.2 7.75000000000001 -5.62605517728798e-15
vertex 25.2 7.75 2.0
endloop
endfacet
facet normal -1.0 0.0 0.0
outer loop
vertex 25.2 7.75000000000001 -5.62605517728798e-15
vertex 25.2 16.25 2.0
vertex 25.2 16.25 6.91113832829163e-16
endloop
endfacet
facet normal 0.0 1.0 3.05311331771918e-16
outer loop
vertex 18.7 7.75 2.0
vertex 25.2 7.75000000000001 -5.62605517728798e-15
vertex 18.7 7.75000000000001 -5.62605517728798e-15
endloop
endfacet
facet normal 0.0 1.0 3.05311331771918e-16
outer loop
vertex 25.2 7.75000000000001 -5.62605517728798e-15
vertex 18.7 7.75 2.0
vertex 25.2 7.75 2.0
endloop
endfacet
facet normal 1.0 0.0 0.0
outer loop
vertex 18.7 7.75000000000001 -5.62605517728798e-15
vertex 18.7 16.25 2.0
vertex 18.7 7.75 2.0
endloop
endfacet
facet normal 1.0 0.0 0.0
outer loop
vertex 18.7 16.25 2.0
vertex 18.7 7.75000000000001 -5.62605517728798e-15
vertex 18.7 16.25 6.91113832829163e-16
endloop
endfacet
facet normal 0.0 -1.0 -2.8199664825479e-15
outer loop
vertex 25.2 16.25 2.0
vertex 18.7 16.25 6.91113832829163e-16
vertex 25.2 16.25 6.91113832829163e-16
endloop
endfacet
facet normal 0.0 -1.0 -2.8199664825479e-15
outer loop
vertex 18.7 16.25 6.91113832829163e-16
vertex 25.2 16.25 2.0
vertex 18.7 16.25 2.0
endloop
endfacet
facet normal 0.0 -1.0 -3.05311331771918e-16
outer loop
vertex 2.5 16.5 1.99999999999999
vertex 0.149999999999996 16.5 1.06303854607859e-15
vertex 2.5 16.5 1.06303854607859e-15
endloop
endfacet
facet normal 0.0 -1.0 -3.05311331771918e-16
outer loop
vertex 0.149999999999996 16.5 1.06303854607859e-15
vertex 2.5 16.5 1.99999999999999
vertex 0.149999999999996 16.5 1.99999999999999
endloop
endfacet
facet normal -1.0 0.0 0.0
outer loop
vertex 2.5 7.00000000000001 1.99999999999999
vertex 2.5 16.5 1.06303854607859e-15
vertex 2.5 7.0 -2.82551759767102e-15
endloop
endfacet
facet normal -1.0 0.0 0.0
outer loop
vertex 2.5 16.5 1.06303854607859e-15
vertex 2.5 7.00000000000001 1.99999999999999
vertex 2.5 16.5 1.99999999999999
endloop
endfacet
facet normal 0.0 1.0 3.05311331771918e-16
outer loop
vertex 0.149999999999996 7.00000000000001 1.99999999999999
vertex 2.5 7.0 -2.82551759767102e-15
vertex 0.149999999999996 7.0 -2.82551759767102e-15
endloop
endfacet
facet normal 0.0 1.0 3.05311331771918e-16
outer loop
vertex 2.5 7.0 -2.82551759767102e-15
vertex 0.149999999999996 7.00000000000001 1.99999999999999
vertex 2.5 7.00000000000001 1.99999999999999
endloop
endfacet
facet normal 1.0 0.0 0.0
outer loop
vertex 0.149999999999996 16.5 1.06303854607859e-15
vertex 0.149999999999996 7.00000000000001 1.99999999999999
vertex 0.149999999999996 7.0 -2.82551759767102e-15
endloop
endfacet
facet normal 1.0 0.0 0.0
outer loop
vertex 0.149999999999996 7.00000000000001 1.99999999999999
vertex 0.149999999999996 16.5 1.06303854607859e-15
vertex 0.149999999999996 16.5 1.99999999999999
endloop
endfacet
facet normal 7.42096442775762e-17 -1.0 -3.05311331771918e-16
outer loop
vertex 16.0 22.85 2.00000000000001
vertex 6.5 22.85 4.23550083894497e-15
vertex 16.0 22.85 4.23550083894497e-15
endloop
endfacet
facet normal 7.42096442775762e-17 -1.0 -3.05311331771918e-16
outer loop
vertex 6.5 22.85 4.23550083894497e-15
vertex 16.0 22.85 2.00000000000001
vertex 6.5 22.85 2.00000000000001
endloop
endfacet
facet normal -1.0 0.0 0.0
outer loop
vertex 16.0 22.85 2.00000000000001
vertex 16.0 20.5 3.441691376338e-16
vertex 16.0 20.5 1.99999999999999
endloop
endfacet
facet normal -1.0 0.0 0.0
outer loop
vertex 16.0 20.5 3.441691376338e-16
vertex 16.0 22.85 2.00000000000001
vertex 16.0 22.85 4.23550083894497e-15
endloop
endfacet
facet normal -1.48419288555152e-16 1.0 3.05311331771918e-16
outer loop
vertex 6.5 20.5 2.0
vertex 16.0 20.5 3.441691376338e-16
vertex 6.5 20.5 -3.60822483003174e-16
endloop
endfacet
facet normal -1.48419288555152e-16 1.0 3.05311331771918e-16
outer loop
vertex 16.0 20.5 3.441691376338e-16
vertex 6.5 20.5 2.0
vertex 16.0 20.5 1.99999999999999
endloop
endfacet
facet normal 1.0 0.0 0.0
outer loop
vertex 6.5 20.5 -3.60822483003174e-16
vertex 6.5 22.85 2.00000000000001
vertex 6.5 20.5 2.0
endloop
endfacet
facet normal 1.0 0.0 0.0
outer loop
vertex 6.5 22.85 2.00000000000001
vertex 6.5 20.5 -3.60822483003174e-16
vertex 6.5 22.85 4.23550083894497e-15
endloop
endfacet
facet normal 6.42764818582699e-15 -0.84235574460716 -0.538921886294588
outer loop
vertex 15.2499999999998 5.23404495108492 14.1929880964438
vertex 7.2499999999998 3.95 16.1999999999999
vertex 7.24999999999982 5.23404495108493 14.1929880964437
endloop
endfacet
facet normal 6.42764818582699e-15 -0.84235574460716 -0.538921886294588
outer loop
vertex 7.2499999999998 3.95 16.1999999999999
vertex 15.2499999999998 5.23404495108492 14.1929880964438
vertex 15.2499999999998 3.95 16.2
endloop
endfacet
facet normal -3.69281325095578e-16 -1.0 -1.85060300417206e-15
outer loop
vertex 7.24999999999997 2.25000000000001 1.99999999999994
vertex 2.0 2.25000000000001 -4.59354776438659e-15
vertex 7.24999999999999 2.25000000000001 -5.57054402605672e-14
endloop
endfacet
facet normal -3.69281325095578e-16 -1.0 -1.85060300417206e-15
outer loop
vertex 2.0 2.25000000000001 -4.59354776438659e-15
vertex 7.24999999999997 2.25000000000001 1.99999999999994
vertex 2.0 2.25000000000001 1.99999999999999
endloop
endfacet
facet normal -8.05536637976845e-12 0.98526192974489 -0.171052418268133
outer loop
vertex 13.2500000001741 1.20000000066725 7.00000000013433
vertex 15.2499999999998 2.44999999999999 14.2
vertex 15.2500000001741 1.20000000066725 7.00000000000004
endloop
endfacet
facet normal -8.05536637976845e-12 0.98526192974489 -0.171052418268133
outer loop
vertex 15.2499999999998 2.44999999999999 14.2
vertex 13.2500000001741 1.20000000066725 7.00000000013433
vertex 13.2499999999998 2.44999999999071 14.2000000000006
endloop
endfacet
facet normal -1.03605850508838e-14 -0.500000000000005 0.866025403784436
outer loop
vertex 7.24999999999983 4.19999999999999 14.1330127018921
vertex 15.2499999999998 4.32059047744874 14.1829629131445
vertex 7.24999999999982 4.32059047744874 14.1829629131445
endloop
endfacet
facet normal -1.16445975721985e-14 -0.258819045102523 0.965925826289068
outer loop
vertex 15.2499999999998 4.32059047744874 14.1829629131445
vertex 7.24999999999983 4.19999999999999 14.1330127018921
vertex 15.2499999999998 4.19999999999999 14.1330127018922
endloop
endfacet
facet normal -4.41305755569782e-15 -0.00794508916262183 0.999968437280996
outer loop
vertex 23.7 16.5195508864057 4.29578540147209
vertex 20.5 17.05 4.3
vertex 20.5 16.5195508864057 4.29578540147207
endloop
endfacet
facet normal -4.41305755569782e-15 -0.00794508916262183 0.999968437280996
outer loop
vertex 20.5 17.05 4.3
vertex 23.7 16.5195508864057 4.29578540147209
vertex 23.7 17.05 4.30000000000001
endloop
endfacet
facet normal -2.70592718685071e-15 -0.965925826289065 0.258819045102532
outer loop
vertex 15.2499999999998 3.96703708685547 13.8294095225513
vertex 7.24999999999983 4.01698729810777 13.9499999999999
vertex 7.24999999999983 3.96703708685547 13.8294095225512
endloop
endfacet
facet normal -4.75579187434632e-15 -0.866025403784445 0.499999999999989
outer loop
vertex 7.24999999999983 4.01698729810777 13.9499999999999
vertex 15.2499999999998 3.96703708685547 13.8294095225513
vertex 15.2499999999998 4.01698729810778 13.95
endloop
endfacet
facet normal -1.86851697643547e-11 -1.0 -1.39976404673975e-11
outer loop
vertex 15.2499999999998 2.44999999999999 16.2
vertex 13.2499999999998 2.44999999999071 14.2000000000006
vertex 15.2499999999998 2.44999999999999 14.2
endloop
endfacet
facet normal -1.86851697643547e-11 -1.0 -1.39976404673975e-11
outer loop
vertex 13.2499999999998 2.44999999999071 14.2000000000006
vertex 15.2499999999998 2.44999999999999 16.2
vertex 9.24999999999982 2.44999999998685 14.2000000000008
endloop
endfacet
facet normal -1.86851697643547e-11 -1.0 -1.39976404673975e-11
outer loop
vertex 9.24999999999982 2.44999999998685 14.2000000000008
vertex 15.2499999999998 2.44999999999999 16.2
vertex 7.2499999999998 2.45 16.1999999999999
endloop
endfacet
facet normal -1.86851697643547e-11 -1.0 -1.39976404673975e-11
outer loop
vertex 7.2499999999998 2.45 16.1999999999999
vertex 7.24999999999982 2.45 14.1999999999999
vertex 9.24999999999982 2.44999999998685 14.2000000000008
endloop
endfacet
facet normal -1.86851697643547e-11 -1.0 -1.39976404673975e-11
outer loop
vertex 13.2499999999998 2.44999999999071 14.2000000000006
vertex 9.24999999999997 2.45000000000001 2.00000000000002
vertex 13.25 2.45000000000001 2.00000000000002
endloop
endfacet
facet normal -1.86851697643547e-11 -1.0 -1.39976404673975e-11
outer loop
vertex 9.24999999999997 2.45000000000001 2.00000000000002
vertex 13.2499999999998 2.44999999999071 14.2000000000006
vertex 9.24999999976986 2.4500000009448 7.00000000000002
endloop
endfacet
facet normal -1.86851697643547e-11 -1.0 -1.39976404673975e-11
outer loop
vertex 9.24999999976986 2.4500000009448 7.00000000000002
vertex 13.2499999999998 2.44999999999071 14.2000000000006
vertex 9.24999999999982 2.44999999998685 14.2000000000008
endloop
endfacet
facet normal -4.98319420638967e-16 -1.0 -9.17710259619768e-16
outer loop
vertex 15.25 3.95 2.00000000000002
vertex 7.24999999999983 3.94999999999999 13.1999999999999
vertex 7.24999999999997 3.95 1.99999999999992
endloop
endfacet
facet normal -4.98319420638967e-16 -1.0 -9.17710259619768e-16
outer loop
vertex 7.24999999999983 3.94999999999999 13.1999999999999
vertex 15.25 3.95 2.00000000000002
vertex 15.2499999999998 3.94999999999999 13.7
endloop
endfacet
facet normal -4.98319420638967e-16 -1.0 -9.17710259619768e-16
outer loop
vertex 7.24999999999983 3.94999999999999 13.1999999999999
vertex 15.2499999999998 3.94999999999999 13.7
vertex 7.24999999999983 3.95 13.6999999999999
endloop
endfacet
facet normal -1.19848575508286e-14 1.12798659301915e-14 1.0
outer loop
vertex 15.2499999999998 4.44999999999999 14.2
vertex 7.24999999999982 4.94999999999999 14.1999999999999
vertex 7.24999999999982 4.44999999999999 14.1999999999999
endloop
endfacet
facet normal -1.19848575508286e-14 1.12798659301915e-14 1.0
outer loop
vertex 7.24999999999982 4.94999999999999 14.1999999999999
vertex 15.2499999999998 4.44999999999999 14.2
vertex 15.2499999999998 4.95 14.2
endloop
endfacet
facet normal -1.88855760583892e-15 -0.991444861373803 0.130526192220111
outer loop
vertex 15.2499999999998 3.94999999999999 13.7
vertex 7.24999999999983 3.96703708685547 13.8294095225512
vertex 7.24999999999983 3.95 13.6999999999999
endloop
endfacet
facet normal -2.70592718685071e-15 -0.965925826289065 0.258819045102533
outer loop
vertex 7.24999999999983 3.96703708685547 13.8294095225512
vertex 15.2499999999998 3.94999999999999 13.7
vertex 15.2499999999998 3.96703708685547 13.8294095225513
endloop
endfacet
facet normal -7.71073783431312e-15 -0.707106781186558 0.707106781186537
outer loop
vertex 15.2499999999998 4.09644660940673 14.0535533905933
vertex 7.24999999999983 4.19999999999999 14.1330127018921
vertex 7.24999999999983 4.09644660940672 14.0535533905932
endloop
endfacet
facet normal -1.03605850508838e-14 -0.500000000000005 0.866025403784436
outer loop
vertex 7.24999999999983 4.19999999999999 14.1330127018921
vertex 15.2499999999998 4.09644660940673 14.0535533905933
vertex 15.2499999999998 4.19999999999999 14.1330127018922
endloop
endfacet
facet normal -1.0 -9.50441502791723e-12 3.19398412026956e-11
outer loop
vertex 9.24999999976986 2.4500000009448 7.00000000000002
vertex 9.24999999978174 1.2000000009448 7.00000000019031
vertex 9.24999999999982 2.44999999998685 14.2000000000008
endloop
endfacet
facet normal 1.0 8.78963266437403e-11 -4.65772358564439e-12
outer loop
vertex 13.25 2.45000000000001 2.00000000000002
vertex 13.2500000001741 1.20000000066725 7.00000000013433
vertex 13.2500000000118 1.20000000000001 2.00000000013433
endloop
endfacet
facet normal 1.0 8.78963266437403e-11 -4.65772358564439e-12
outer loop
vertex 13.2500000001741 1.20000000066725 7.00000000013433
vertex 13.25 2.45000000000001 2.00000000000002
vertex 13.2499999999998 2.44999999999071 14.2000000000006
endloop
endfacet
facet normal -1.16445975721985e-14 -0.258819045102523 0.965925826289068
outer loop
vertex 15.2499999999998 4.32059047744874 14.1829629131445
vertex 7.24999999999982 4.44999999999999 14.1999999999999
vertex 7.24999999999982 4.32059047744874 14.1829629131445
endloop
endfacet
facet normal -1.18823848111578e-14 -0.130526192220082 0.991444861373807
outer loop
vertex 7.24999999999982 4.44999999999999 14.1999999999999
vertex 15.2499999999998 4.32059047744874 14.1829629131445
vertex 15.2499999999998 4.44999999999999 14.2
endloop
endfacet
facet normal -6.99646902913024e-12 -1.2984211372753e-10 -1.0
outer loop
vertex 13.25 2.45000000000001 2.00000000000002
vertex 9.25000000001185 1.20000000000001 2.00000000019031
vertex 9.24999999999997 2.45000000000001 2.00000000000002
endloop
endfacet
facet normal -6.99646902913024e-12 -1.2984211372753e-10 -1.0
outer loop
vertex 9.25000000001185 1.20000000000001 2.00000000019031
vertex 13.25 2.45000000000001 2.00000000000002
vertex 13.2500000000118 1.20000000000001 2.00000000013433
endloop
endfacet
facet normal 8.81239525796225e-16 1.0 -2.45214476743295e-15
outer loop
vertex 20.5 17.05 4.3
vertex 23.7 17.05 2.0
vertex 20.5 17.05 2.0
endloop
endfacet
facet normal 8.81239525796225e-16 1.0 -2.45214476743295e-15
outer loop
vertex 23.7 17.05 2.0
vertex 20.5 17.05 4.3
vertex 23.7 17.05 4.30000000000001
endloop
endfacet
facet normal 1.76247905159244e-15 -2.34997206878992e-15 -1.0
outer loop
vertex 23.7 19.25 5.80000000000001
vertex 20.5 16.75 5.8
vertex 20.5 19.25 5.8
endloop
endfacet
facet normal 1.76247905159244e-15 -2.34997206878992e-15 -1.0
outer loop
vertex 20.5 16.75 5.8
vertex 23.7 19.25 5.80000000000001
vertex 23.7 16.75 5.80000000000001
endloop
endfacet
facet normal -1.36909737196366e-15 -0.988467152530892 0.151435426395115
outer loop
vertex 23.7 16.5195508864057 4.29578540147209
vertex 20.5 16.75 5.8
vertex 20.5 16.5195508864057 4.29578540147207
endloop
endfacet
facet normal -1.36909737196366e-15 -0.988467152530892 0.151435426395115
outer loop
vertex 20.5 16.75 5.8
vertex 23.7 16.5195508864057 4.29578540147209
vertex 23.7 16.75 5.80000000000001
endloop
endfacet
facet normal 1.0 4.32155256605956e-16 2.95476166132515e-15
outer loop
vertex 20.5 19.25 2.0
vertex 20.5 17.05 4.3
vertex 20.5 17.05 2.0
endloop
endfacet
facet normal 1.0 4.32155256605956e-16 2.95476166132515e-15
outer loop
vertex 20.5 17.05 4.3
vertex 20.5 16.75 5.8
vertex 20.5 16.5195508864057 4.29578540147207
endloop
endfacet
facet normal 1.0 4.32155256605956e-16 2.95476166132515e-15
outer loop
vertex 20.5 16.75 5.8
vertex 20.5 17.05 4.3
vertex 20.5 19.25 5.8
endloop
endfacet
facet normal 1.0 4.32155256605956e-16 2.95476166132515e-15
outer loop
vertex 20.5 19.25 5.8
vertex 20.5 17.05 4.3
vertex 20.5 19.25 2.0
endloop
endfacet
facet normal 1.49011587149278e-08 4.52953990086634e-29 -1.0
outer loop
vertex 23.6999999657273 7.6 4.3000000476837
vertex 20.4999999657273 7.25 4.29999999999999
vertex 20.4999999657273 7.6 4.29999999999999
endloop
endfacet
facet normal 1.49011587149278e-08 4.52953990086634e-29 -1.0
outer loop
vertex 20.4999999657273 7.25 4.29999999999999
vertex 23.6999999657273 7.6 4.3000000476837
vertex 23.6999999657273 7.25 4.3000000476837
endloop
endfacet
facet normal 1.49011611383365e-08 -1.62690374127182e-15 -1.0
outer loop
vertex 23.6999999433756 7.05 5.8000000476837
vertex 20.4999999433756 5.25 5.79999999999999
vertex 20.4999999433756 7.05 5.79999999999999
endloop
endfacet
facet normal 1.49011611383365e-08 -1.62690374127182e-15 -1.0
outer loop
vertex 20.4999999433756 5.25 5.79999999999999
vertex 23.6999999433756 7.05 5.8000000476837
vertex 23.6999999433756 5.25 5.80000004768371
endloop
endfacet
facet normal -1.0 8.23516708571166e-16 -1.49011598480316e-08
outer loop
vertex 23.6999999433756 5.25 5.80000004768371
vertex 23.7 5.75 2.00000004768371
vertex 23.7 5.25 2.00000004768371
endloop
endfacet
facet normal -1.0 8.23516708571166e-16 -1.49011598480316e-08
outer loop
vertex 23.7 5.75 2.00000004768371
vertex 23.6999999433756 5.25 5.80000004768371
vertex 23.6999999433756 7.05 5.8000000476837
endloop
endfacet
facet normal -1.0 8.23516708571166e-16 -1.49011598480316e-08
outer loop
vertex 23.7 5.75 2.00000004768371
vertex 23.6999999433756 7.05 5.8000000476837
vertex 23.7 7.25 2.0
endloop
endfacet
facet normal -1.0 8.23516708571166e-16 -1.49011598480316e-08
outer loop
vertex 23.7 7.25 2.0
vertex 23.6999999433756 7.05 5.8000000476837
vertex 23.6999999657273 7.25 4.3000000476837
endloop
endfacet
facet normal -1.0 8.23516708571166e-16 -1.49011598480316e-08
outer loop
vertex 23.6999999657273 7.25 4.3000000476837
vertex 23.6999999433756 7.05 5.8000000476837
vertex 23.6999999657273 7.6 4.3000000476837
endloop
endfacet
facet normal 5.12979339029625e-09 -0.938876315886609 -0.344254649158421
outer loop
vertex 23.6999999657273 7.6 4.3000000476837
vertex 20.4999999433756 7.05 5.79999999999999
vertex 20.4999999657273 7.6 4.29999999999999
endloop
endfacet
facet normal 5.12979339029625e-09 -0.938876315886609 -0.344254649158421
outer loop
vertex 20.4999999433756 7.05 5.79999999999999
vertex 23.6999999657273 7.6 4.3000000476837
vertex 23.6999999433756 7.05 5.8000000476837
endloop
endfacet
facet normal 1.0 3.22556519608069e-15 1.49011594332441e-08
outer loop
vertex 20.5 7.25000000000001 1.99999999999999
vertex 20.4999999433756 5.25 5.79999999999999
vertex 20.5 5.25 1.99999999999999
endloop
endfacet
facet normal 1.0 3.22556519608069e-15 1.49011594332441e-08
outer loop
vertex 20.4999999433756 5.25 5.79999999999999
vertex 20.5 7.25000000000001 1.99999999999999
vertex 20.4999999433756 7.05 5.79999999999999
endloop
endfacet
facet normal 1.0 3.22556519608069e-15 1.49011594332441e-08
outer loop
vertex 20.4999999433756 7.05 5.79999999999999
vertex 20.5 7.25000000000001 1.99999999999999
vertex 20.4999999657273 7.25 4.29999999999999
endloop
endfacet
facet normal 1.0 3.22556519608069e-15 1.49011594332441e-08
outer loop
vertex 20.4999999657273 7.6 4.29999999999999
vertex 20.4999999433756 7.05 5.79999999999999
vertex 20.4999999657273 7.25 4.29999999999999
endloop
endfacet
facet normal -1.14206778871626e-11 -0.985261929751223 0.171052418231651
outer loop
vertex 9.24999999978174 1.2000000009448 7.00000000019031
vertex 7.24999999999982 2.45 14.1999999999999
vertex 7.24999999978174 1.2000000009448 6.99999999999994
endloop
endfacet
facet normal -1.14206778871626e-11 -0.985261929751223 0.171052418231651
outer loop
vertex 7.24999999999982 2.45 14.1999999999999
vertex 9.24999999978174 1.2000000009448 7.00000000019031
vertex 9.24999999999982 2.44999999998685 14.2000000000008
endloop
endfacet
facet normal -2.08162611451793e-11 -1.0 1.27266181948482e-10
outer loop
vertex 15.2500000001741 1.20000000066725 7.00000000000004
vertex 13.2500000000118 1.20000000000001 2.00000000013433
vertex 15.2500000000119 1.20000000000001 4.32542890393961e-14
endloop
endfacet
facet normal -2.08162611451793e-11 -1.0 1.27266181948482e-10
outer loop
vertex 13.2500000000118 1.20000000000001 2.00000000013433
vertex 15.2500000001741 1.20000000066725 7.00000000000004
vertex 13.2500000001741 1.20000000066725 7.00000000013433
endloop
endfacet
facet normal -2.08162611451793e-11 -1.0 1.27266181948482e-10
outer loop
vertex 7.25000000001187 1.20000000000001 -5.57970336600988e-14
vertex 9.25000000001185 1.20000000000001 2.00000000019031
vertex 7.24999999978174 1.2000000009448 6.99999999999994
endloop
endfacet
facet normal -2.08162611451793e-11 -1.0 1.27266181948482e-10
outer loop
vertex 9.25000000001185 1.20000000000001 2.00000000019031
vertex 7.25000000001187 1.20000000000001 -5.57970336600988e-14
vertex 15.2500000000119 1.20000000000001 4.32542890393961e-14
endloop
endfacet
facet normal -2.08162611451793e-11 -1.0 1.27266181948482e-10
outer loop
vertex 9.25000000001185 1.20000000000001 2.00000000019031
vertex 15.2500000000119 1.20000000000001 4.32542890393961e-14
vertex 13.2500000000118 1.20000000000001 2.00000000013433
endloop
endfacet
facet normal -2.08162611451793e-11 -1.0 1.27266181948482e-10
outer loop
vertex 7.24999999978174 1.2000000009448 6.99999999999994
vertex 9.25000000001185 1.20000000000001 2.00000000019031
vertex 9.24999999978174 1.2000000009448 7.00000000019031
endloop
endfacet
facet normal -1.0 -9.50441503978546e-12 -4.60224169866823e-11
outer loop
vertex 9.24999999978174 1.2000000009448 7.00000000019031
vertex 9.24999999999997 2.45000000000001 2.00000000000002
vertex 9.25000000001185 1.20000000000001 2.00000000019031
endloop
endfacet
facet normal -1.0 -9.50441503978546e-12 -4.60224169866823e-11
outer loop
vertex 9.24999999999997 2.45000000000001 2.00000000000002
vertex 9.24999999978174 1.2000000009448 7.00000000019031
vertex 9.24999999976986 2.4500000009448 7.00000000000002
endloop
endfacet
facet normal -1.0 -1.45376477030864e-15 -2.14435171658167e-15
outer loop
vertex 23.7 16.75 5.80000000000001
vertex 23.7 17.05 4.30000000000001
vertex 23.7 16.5195508864057 4.29578540147209
endloop
endfacet
facet normal -1.0 -1.45376477030864e-15 -2.14435171658167e-15
outer loop
vertex 23.7 17.05 4.30000000000001
vertex 23.7 16.75 5.80000000000001
vertex 23.7 19.25 5.80000000000001
endloop
endfacet
facet normal -1.0 -1.45376477030864e-15 -2.14435171658167e-15
outer loop
vertex 23.7 17.05 4.30000000000001
vertex 23.7 19.25 5.80000000000001
vertex 23.7 17.75 2.00000000000001
endloop
endfacet
facet normal -1.0 -1.45376477030864e-15 -2.14435171658167e-15
outer loop
vertex 23.7 17.75 2.00000000000001
vertex 23.7 19.25 -6.63012911341822e-16
vertex 23.7 17.75 -9.79771819231698e-16
endloop
endfacet
facet normal -1.0 -1.45376477030864e-15 -2.14435171658167e-15
outer loop
vertex 23.7 19.25 -6.63012911341822e-16
vertex 23.7 17.75 2.00000000000001
vertex 23.7 19.25 5.80000000000001
endloop
endfacet
facet normal -1.0 -1.45376477030864e-15 -2.14435171658167e-15
outer loop
vertex 23.7 17.75 2.00000000000001
vertex 23.7 17.05 2.0
vertex 23.7 17.05 4.30000000000001
endloop
endfacet
facet normal -1.0 -2.11680691874298e-11 1.57129178976563e-12
outer loop
vertex 15.2500000001741 1.20000000066725 7.00000000000004
vertex 15.25 2.25000000000001 4.33458824389277e-14
vertex 15.2500000000119 1.20000000000001 4.32542890393961e-14
endloop
endfacet
facet normal -1.0 -2.11680691874298e-11 1.57129178976563e-12
outer loop
vertex 15.25 2.25000000000001 4.33458824389277e-14
vertex 15.2500000001741 1.20000000066725 7.00000000000004
vertex 15.25 2.25 2.00000000000004
endloop
endfacet
facet normal -1.0 -2.11680691874298e-11 1.57129178976563e-12
outer loop
vertex 15.2499999999998 2.44999999999999 14.2
vertex 15.25 2.25 2.00000000000004
vertex 15.2500000001741 1.20000000066725 7.00000000000004
endloop
endfacet
facet normal -1.0 -2.11680691874298e-11 1.57129178976563e-12
outer loop
vertex 15.25 2.25 2.00000000000004
vertex 15.2499999999998 2.44999999999999 14.2
vertex 15.25 2.45000000000001 2.00000000000002
endloop
endfacet
facet normal -1.0 -2.11680691874298e-11 1.57129178976563e-12
outer loop
vertex 15.25 2.45000000000001 2.00000000000002
vertex 15.2499999999998 2.44999999999999 14.2
vertex 15.2499999999998 2.44999999999999 16.2
endloop
endfacet
facet normal -1.0 -2.11680691874298e-11 1.57129178976563e-12
outer loop
vertex 15.25 2.45000000000001 2.00000000000002
vertex 15.2499999999998 2.44999999999999 16.2
vertex 15.2499999999998 3.95 16.2
endloop
endfacet
facet normal -1.0 -2.11680691874298e-11 1.57129178976563e-12
outer loop
vertex 15.25 2.45000000000001 2.00000000000002
vertex 15.2499999999998 3.95 16.2
vertex 15.2499999999998 3.94999999999999 13.7
endloop
endfacet
facet normal -1.0 -2.11680691874298e-11 1.57129178976563e-12
outer loop
vertex 15.2499999999998 3.94999999999999 13.7
vertex 15.2499999999998 3.95 16.2
vertex 15.2499999999998 3.96703708685547 13.8294095225513
endloop
endfacet
facet normal -1.0 -2.11680691874298e-11 1.57129178976563e-12
outer loop
vertex 15.2499999999998 3.96703708685547 13.8294095225513
vertex 15.2499999999998 3.95 16.2
vertex 15.2499999999998 4.01698729810778 13.95
endloop
endfacet
facet normal -1.0 -2.11680691874298e-11 1.57129178976563e-12
outer loop
vertex 15.2499999999998 4.01698729810778 13.95
vertex 15.2499999999998 3.95 16.2
vertex 15.2499999999998 4.09644660940673 14.0535533905933
endloop
endfacet
facet normal -1.0 -2.11680691874298e-11 1.57129178976563e-12
outer loop
vertex 15.2499999999998 4.09644660940673 14.0535533905933
vertex 15.2499999999998 3.95 16.2
vertex 15.2499999999998 4.19999999999999 14.1330127018922
endloop
endfacet
facet normal -1.0 -2.11680691874298e-11 1.57129178976563e-12
outer loop
vertex 15.2499999999998 4.19999999999999 14.1330127018922
vertex 15.2499999999998 3.95 16.2
vertex 15.2499999999998 4.32059047744874 14.1829629131445
endloop
endfacet
facet normal -1.0 -2.11680691874298e-11 1.57129178976563e-12
outer loop
vertex 15.2499999999998 4.32059047744874 14.1829629131445
vertex 15.2499999999998 3.95 16.2
vertex 15.2499999999998 4.44999999999999 14.2
endloop
endfacet
facet normal -1.0 -2.11680691874298e-11 1.57129178976563e-12
outer loop
vertex 15.2499999999998 4.44999999999999 14.2
vertex 15.2499999999998 3.95 16.2
vertex 15.2499999999998 4.95 14.2
endloop
endfacet
facet normal -1.0 -2.11680691874298e-11 1.57129178976563e-12
outer loop
vertex 15.2499999999998 4.95 14.2
vertex 15.2499999999998 3.95 16.2
vertex 15.2499999999998 5.23404495108492 14.1929880964438
endloop
endfacet
facet normal -1.0 -2.11680691874298e-11 1.57129178976563e-12
outer loop
vertex 15.25 3.95 2.00000000000002
vertex 15.25 2.45000000000001 2.00000000000002
vertex 15.2499999999998 3.94999999999999 13.7
endloop
endfacet
facet normal -1.23400945839086e-14 0.0246783757348079 0.999695442507913
outer loop
vertex 15.2499999999998 4.95 14.2
vertex 7.24999999999982 5.23404495108493 14.1929880964437
vertex 7.24999999999982 4.94999999999999 14.1999999999999
endloop
endfacet
facet normal -1.23400945839086e-14 0.0246783757348079 0.999695442507913
outer loop
vertex 7.24999999999982 5.23404495108493 14.1929880964437
vertex 15.2499999999998 4.95 14.2
vertex 15.2499999999998 5.23404495108492 14.1929880964438
endloop
endfacet
facet normal 1.96584043401654e-10 -1.52976722081008e-10 -1.0
outer loop
vertex 18.0 21.25 2.0
vertex 19.2 20.05 2.0
vertex 17.2 20.05 2.0
endloop
endfacet
facet normal 1.96584043401654e-10 -1.52976722081008e-10 -1.0
outer loop
vertex 19.2 20.05 2.0
vertex 18.0 21.25 2.0
vertex 20.5 21.25 2.0
endloop
endfacet
facet normal 1.96584043401654e-10 -1.52976722081008e-10 -1.0
outer loop
vertex 19.2 20.05 2.0
vertex 20.5 21.25 2.0
vertex 19.2 19.05 2.0
endloop
endfacet
facet normal 1.96584043401654e-10 -1.52976722081008e-10 -1.0
outer loop
vertex 19.2 19.05 2.0
vertex 20.5 21.25 2.0
vertex 20.5 19.25 2.0
endloop
endfacet
facet normal 1.96584043401654e-10 -1.52976722081008e-10 -1.0
outer loop
vertex 27.2 17.75 2.0
vertex 23.7 17.05 2.0
vertex 23.7 17.75 2.00000000000001
endloop
endfacet
facet normal 1.96584043401654e-10 -1.52976722081008e-10 -1.0
outer loop
vertex 23.7 17.05 2.0
vertex 27.2 17.75 2.0
vertex 25.2 16.25 2.0
endloop
endfacet
facet normal 1.96584043401654e-10 -1.52976722081008e-10 -1.0
outer loop
vertex 25.2 16.25 2.0
vertex 27.2 17.75 2.0
vertex 25.2 7.75 2.0
endloop
endfacet
facet normal 1.96584043401654e-10 -1.52976722081008e-10 -1.0
outer loop
vertex 17.2 4.45 1.99999999999999
vertex 18.7 7.75 2.0
vertex 19.2 4.45 1.99999999999999
endloop
endfacet
facet normal 1.96584043401654e-10 -1.52976722081008e-10 -1.0
outer loop
vertex 18.7 7.75 2.0
vertex 17.2 4.45 1.99999999999999
vertex 18.7 16.25 2.0
endloop
endfacet
facet normal 1.96584043401654e-10 -1.52976722081008e-10 -1.0
outer loop
vertex 19.2 4.45 1.99999999999999
vertex 18.7 7.75 2.0
vertex 20.5 7.25000000000001 1.99999999999999
endloop
endfacet
facet normal 1.96584043401654e-10 -1.52976722081008e-10 -1.0
outer loop
vertex 20.5 7.25000000000001 1.99999999999999
vertex 18.7 7.75 2.0
vertex 25.2 7.75 2.0
endloop
endfacet
facet normal 1.96584043401654e-10 -1.52976722081008e-10 -1.0
outer loop
vertex 19.2 4.45 1.99999999999999
vertex 20.5 7.25000000000001 1.99999999999999
vertex 19.2 3.45 1.99999999999999
endloop
endfacet
facet normal 1.96584043401654e-10 -1.52976722081008e-10 -1.0
outer loop
vertex 20.5 7.25000000000001 1.99999999999999
vertex 25.2 7.75 2.0
vertex 23.7 7.25 2.0
endloop
endfacet
facet normal 1.96584043401654e-10 -1.52976722081008e-10 -1.0
outer loop
vertex 23.7 7.25 2.0
vertex 25.2 7.75 2.0
vertex 23.7 5.75 2.00000004768371
endloop
endfacet
facet normal 1.96584043401654e-10 -1.52976722081008e-10 -1.0
outer loop
vertex 23.7 5.75 2.00000004768371
vertex 25.2 7.75 2.0
vertex 27.2 5.75 1.99999999999999
endloop
endfacet
facet normal 1.96584043401654e-10 -1.52976722081008e-10 -1.0
outer loop
vertex 27.2 5.75 1.99999999999999
vertex 25.2 7.75 2.0
vertex 27.2 17.75 2.0
endloop
endfacet
facet normal 1.96584043401654e-10 -1.52976722081008e-10 -1.0
outer loop
vertex 17.2 19.05 2.0
vertex 18.7 16.25 2.0
vertex 17.2 4.45 1.99999999999999
endloop
endfacet
facet normal 1.96584043401654e-10 -1.52976722081008e-10 -1.0
outer loop
vertex 18.7 16.25 2.0
vertex 17.2 19.05 2.0
vertex 19.2 19.05 2.0
endloop
endfacet
facet normal 1.96584043401654e-10 -1.52976722081008e-10 -1.0
outer loop
vertex 18.7 16.25 2.0
vertex 19.2 19.05 2.0
vertex 20.5 17.05 2.0
endloop
endfacet
facet normal 1.96584043401654e-10 -1.52976722081008e-10 -1.0
outer loop
vertex 18.7 16.25 2.0
vertex 20.5 17.05 2.0
vertex 25.2 16.25 2.0
endloop
endfacet
facet normal 1.96584043401654e-10 -1.52976722081008e-10 -1.0
outer loop
vertex 20.5 17.05 2.0
vertex 19.2 19.05 2.0
vertex 20.5 19.25 2.0
endloop
endfacet
facet normal 1.96584043401654e-10 -1.52976722081008e-10 -1.0
outer loop
vertex 25.2 16.25 2.0
vertex 20.5 17.05 2.0
vertex 23.7 17.05 2.0
endloop
endfacet
facet normal 1.96584043401654e-10 -1.52976722081008e-10 -1.0
outer loop
vertex 15.25 3.95 2.00000000000002
vertex 15.25 2.25 2.00000000000004
vertex 15.25 2.45000000000001 2.00000000000002
endloop
endfacet
facet normal 1.96584043401654e-10 -1.52976722081008e-10 -1.0
outer loop
vertex 15.25 2.25 2.00000000000004
vertex 15.25 3.95 2.00000000000002
vertex 20.5 2.25000000000001 1.99999999999999
endloop
endfacet
facet normal 1.96584043401654e-10 -1.52976722081008e-10 -1.0
outer loop
vertex 20.5 2.25000000000001 1.99999999999999
vertex 15.25 3.95 2.00000000000002
vertex 17.2 3.45 1.99999999999999
endloop
endfacet
facet normal 1.96584043401654e-10 -1.52976722081008e-10 -1.0
outer loop
vertex 17.2 3.45 1.99999999999999
vertex 15.25 3.95 2.00000000000002
vertex 16.0 20.5 1.99999999999999
endloop
endfacet
facet normal 1.96584043401654e-10 -1.52976722081008e-10 -1.0
outer loop
vertex 17.2 3.45 1.99999999999999
vertex 16.0 20.5 1.99999999999999
vertex 17.2 20.05 2.0
endloop
endfacet
facet normal 1.96584043401654e-10 -1.52976722081008e-10 -1.0
outer loop
vertex 17.2 3.45 1.99999999999999
vertex 17.2 20.05 2.0
vertex 17.2 19.05 2.0
endloop
endfacet
facet normal 1.96584043401654e-10 -1.52976722081008e-10 -1.0
outer loop
vertex 17.2 3.45 1.99999999999999
vertex 17.2 19.05 2.0
vertex 17.2 4.45 1.99999999999999
endloop
endfacet
facet normal 1.96584043401654e-10 -1.52976722081008e-10 -1.0
outer loop
vertex 20.5 2.25000000000001 1.99999999999999
vertex 17.2 3.45 1.99999999999999
vertex 19.2 3.45 1.99999999999999
endloop
endfacet
facet normal 1.96584043401654e-10 -1.52976722081008e-10 -1.0
outer loop
vertex 20.5 2.25000000000001 1.99999999999999
vertex 19.2 3.45 1.99999999999999
vertex 20.5 7.25000000000001 1.99999999999999
endloop
endfacet
facet normal 1.96584043401654e-10 -1.52976722081008e-10 -1.0
outer loop
vertex 20.5 2.25000000000001 1.99999999999999
vertex 20.5 7.25000000000001 1.99999999999999
vertex 20.5 5.25 1.99999999999999
endloop
endfacet
facet normal 1.96584043401654e-10 -1.52976722081008e-10 -1.0
outer loop
vertex 5.9 19.05 2.0
vertex 3.9 4.45 1.99999999999999
vertex 3.9 19.05 2.0
endloop
endfacet
facet normal 1.96584043401654e-10 -1.52976722081008e-10 -1.0
outer loop
vertex 3.9 4.45 1.99999999999999
vertex 5.9 19.05 2.0
vertex 5.9 4.45 1.99999999999999
endloop
endfacet
facet normal 1.96584043401654e-10 -1.52976722081008e-10 -1.0
outer loop
vertex 4.5 21.25 2.0
vertex 2.0 18.5 2.0
vertex 2.0 21.25 2.0
endloop
endfacet
facet normal 1.96584043401654e-10 -1.52976722081008e-10 -1.0
outer loop
vertex 2.0 18.5 2.0
vertex 4.5 21.25 2.0
vertex 3.9 20.05 2.0
endloop
endfacet
facet normal 1.96584043401654e-10 -1.52976722081008e-10 -1.0
outer loop
vertex 2.0 18.5 2.0
vertex 3.9 20.05 2.0
vertex 2.5 16.5 1.99999999999999
endloop
endfacet
facet normal 1.96584043401654e-10 -1.52976722081008e-10 -1.0
outer loop
vertex 2.5 16.5 1.99999999999999
vertex 3.9 20.05 2.0
vertex 2.5 7.00000000000001 1.99999999999999
endloop
endfacet
facet normal 1.96584043401654e-10 -1.52976722081008e-10 -1.0
outer loop
vertex 3.9 20.05 2.0
vertex 4.5 21.25 2.0
vertex 5.9 20.05 2.0
endloop
endfacet
facet normal 1.96584043401654e-10 -1.52976722081008e-10 -1.0
outer loop
vertex -1.85 18.5 2.0
vertex 0.149999999999996 16.5 1.99999999999999
vertex -1.85 5.00000000000001 2.0
endloop
endfacet
facet normal 1.96584043401654e-10 -1.52976722081008e-10 -1.0
outer loop
vertex 0.149999999999996 16.5 1.99999999999999
vertex -1.85 18.5 2.0
vertex 2.0 18.5 2.0
endloop
endfacet
facet normal 1.96584043401654e-10 -1.52976722081008e-10 -1.0
outer loop
vertex -1.85 5.00000000000001 2.0
vertex 0.149999999999996 16.5 1.99999999999999
vertex -0.100000000000004 5.00000000000001 2.0
endloop
endfacet
facet normal 1.96584043401654e-10 -1.52976722081008e-10 -1.0
outer loop
vertex 0.149999999999996 16.5 1.99999999999999
vertex 2.0 18.5 2.0
vertex 2.5 16.5 1.99999999999999
endloop
endfacet
facet normal 1.96584043401654e-10 -1.52976722081008e-10 -1.0
outer loop
vertex -0.100000000000004 5.00000000000001 2.0
vertex 0.149999999999996 7.00000000000001 1.99999999999999
vertex 2.0 5.00000000000001 2.0
endloop
endfacet
facet normal 1.96584043401654e-10 -1.52976722081008e-10 -1.0
outer loop
vertex 0.149999999999996 7.00000000000001 1.99999999999999
vertex -0.100000000000004 5.00000000000001 2.0
vertex 0.149999999999996 16.5 1.99999999999999
endloop
endfacet
facet normal 1.96584043401654e-10 -1.52976722081008e-10 -1.0
outer loop
vertex 2.0 5.00000000000001 2.0
vertex 0.149999999999996 7.00000000000001 1.99999999999999
vertex 2.5 7.00000000000001 1.99999999999999
endloop
endfacet
facet normal 1.96584043401654e-10 -1.52976722081008e-10 -1.0
outer loop
vertex 2.0 5.00000000000001 2.0
vertex 2.5 7.00000000000001 1.99999999999999
vertex 2.0 2.25000000000001 1.99999999999999
endloop
endfacet
facet normal 1.96584043401654e-10 -1.52976722081008e-10 -1.0
outer loop
vertex 2.0 2.25000000000001 1.99999999999999
vertex 2.5 7.00000000000001 1.99999999999999
vertex 3.9 3.45 1.99999999999999
endloop
endfacet
facet normal 1.96584043401654e-10 -1.52976722081008e-10 -1.0
outer loop
vertex 2.0 2.25000000000001 1.99999999999999
vertex 3.9 3.45 1.99999999999999
vertex 7.24999999999997 2.25000000000001 1.99999999999994
endloop
endfacet
facet normal 1.96584043401654e-10 -1.52976722081008e-10 -1.0
outer loop
vertex 3.9 3.45 1.99999999999999
vertex 2.5 7.00000000000001 1.99999999999999
vertex 3.9 20.05 2.0
endloop
endfacet
facet normal 1.96584043401654e-10 -1.52976722081008e-10 -1.0
outer loop
vertex 3.9 3.45 1.99999999999999
vertex 3.9 20.05 2.0
vertex 3.9 19.05 2.0
endloop
endfacet
facet normal 1.96584043401654e-10 -1.52976722081008e-10 -1.0
outer loop
vertex 3.9 3.45 1.99999999999999
vertex 3.9 19.05 2.0
vertex 3.9 4.45 1.99999999999999
endloop
endfacet
facet normal 1.96584043401654e-10 -1.52976722081008e-10 -1.0
outer loop
vertex 7.24999999999997 2.25000000000001 1.99999999999994
vertex 3.9 3.45 1.99999999999999
vertex 5.9 3.45 1.99999999999999
endloop
endfacet
facet normal 1.96584043401654e-10 -1.52976722081008e-10 -1.0
outer loop
vertex 7.24999999999997 2.25000000000001 1.99999999999994
vertex 5.9 3.45 1.99999999999999
vertex 6.5 20.5 2.0
endloop
endfacet
facet normal 1.96584043401654e-10 -1.52976722081008e-10 -1.0
outer loop
vertex 6.5 20.5 2.0
vertex 5.9 3.45 1.99999999999999
vertex 6.5 22.85 2.00000000000001
endloop
endfacet
facet normal 1.96584043401654e-10 -1.52976722081008e-10 -1.0
outer loop
vertex 7.24999999999997 2.25000000000001 1.99999999999994
vertex 6.5 20.5 2.0
vertex 7.24999999999997 3.95 1.99999999999992
endloop
endfacet
facet normal 1.96584043401654e-10 -1.52976722081008e-10 -1.0
outer loop
vertex 7.24999999999997 3.95 1.99999999999992
vertex 6.5 20.5 2.0
vertex 16.0 20.5 1.99999999999999
endloop
endfacet
facet normal 1.96584043401654e-10 -1.52976722081008e-10 -1.0
outer loop
vertex 7.24999999999997 3.95 1.99999999999992
vertex 16.0 20.5 1.99999999999999
vertex 15.25 3.95 2.00000000000002
endloop
endfacet
facet normal 1.96584043401654e-10 -1.52976722081008e-10 -1.0
outer loop
vertex 4.5 24.85 2.0
vertex 6.5 22.85 2.00000000000001
vertex 4.5 21.25 2.0
endloop
endfacet
facet normal 1.96584043401654e-10 -1.52976722081008e-10 -1.0
outer loop
vertex 6.5 22.85 2.00000000000001
vertex 4.5 24.85 2.0
vertex 18.0 24.85 2.0
endloop
endfacet
facet normal 1.96584043401654e-10 -1.52976722081008e-10 -1.0
outer loop
vertex 4.5 21.25 2.0
vertex 6.5 22.85 2.00000000000001
vertex 5.9 20.05 2.0
endloop
endfacet
facet normal 1.96584043401654e-10 -1.52976722081008e-10 -1.0
outer loop
vertex 5.9 20.05 2.0
vertex 6.5 22.85 2.00000000000001
vertex 5.9 19.05 2.0
endloop
endfacet
facet normal 1.96584043401654e-10 -1.52976722081008e-10 -1.0
outer loop
vertex 5.9 19.05 2.0
vertex 6.5 22.85 2.00000000000001
vertex 5.9 4.45 1.99999999999999
endloop
endfacet
facet normal 1.96584043401654e-10 -1.52976722081008e-10 -1.0
outer loop
vertex 5.9 4.45 1.99999999999999
vertex 6.5 22.85 2.00000000000001
vertex 5.9 3.45 1.99999999999999
endloop
endfacet
facet normal 1.96584043401654e-10 -1.52976722081008e-10 -1.0
outer loop
vertex 6.5 22.85 2.00000000000001
vertex 18.0 24.85 2.0
vertex 16.0 22.85 2.00000000000001
endloop
endfacet
facet normal 1.96584043401654e-10 -1.52976722081008e-10 -1.0
outer loop
vertex 16.0 22.85 2.00000000000001
vertex 18.0 24.85 2.0
vertex 16.0 20.5 1.99999999999999
endloop
endfacet
facet normal 1.96584043401654e-10 -1.52976722081008e-10 -1.0
outer loop
vertex 16.0 20.5 1.99999999999999
vertex 18.0 24.85 2.0
vertex 17.2 20.05 2.0
endloop
endfacet
facet normal 1.96584043401654e-10 -1.52976722081008e-10 -1.0
outer loop
vertex 17.2 20.05 2.0
vertex 18.0 24.85 2.0
vertex 18.0 21.25 2.0
endloop
endfacet
facet normal 1.96584043401654e-10 -1.52976722081008e-10 -1.0
outer loop
vertex 7.24999999999997 2.45000000000001 2.00000000000002
vertex 7.24999999999997 2.25000000000001 1.99999999999994
vertex 7.24999999999997 3.95 1.99999999999992
endloop
endfacet
facet normal -1.0 2.49725833724011e-11 -2.21342112656427e-12
outer loop
vertex 7.24999999999982 2.45 14.1999999999999
vertex 7.24999999999997 2.25000000000001 1.99999999999994
vertex 7.24999999978174 1.2000000009448 6.99999999999994
endloop
endfacet
facet normal -1.0 2.49725833724011e-11 -2.21342112656427e-12
outer loop
vertex 7.24999999999997 2.25000000000001 1.99999999999994
vertex 7.24999999999982 2.45 14.1999999999999
vertex 7.24999999999997 2.45000000000001 2.00000000000002
endloop
endfacet
facet normal -1.0 2.49725833724011e-11 -2.21342112656427e-12
outer loop
vertex 7.24999999978174 1.2000000009448 6.99999999999994
vertex 7.24999999999999 2.25000000000001 -5.57054402605672e-14
vertex 7.25000000001187 1.20000000000001 -5.57970336600988e-14
endloop
endfacet
facet normal -1.0 2.49725833724011e-11 -2.21342112656427e-12
outer loop
vertex 7.24999999999999 2.25000000000001 -5.57054402605672e-14
vertex 7.24999999978174 1.2000000009448 6.99999999999994
vertex 7.24999999999997 2.25000000000001 1.99999999999994
endloop
endfacet
facet normal -1.0 2.49725833724011e-11 -2.21342112656427e-12
outer loop
vertex 7.2499999999998 3.95 16.1999999999999
vertex 7.24999999999982 2.45 14.1999999999999
vertex 7.2499999999998 2.45 16.1999999999999
endloop
endfacet
facet normal -1.0 2.49725833724011e-11 -2.21342112656427e-12
outer loop
vertex 7.24999999999982 2.45 14.1999999999999
vertex 7.2499999999998 3.95 16.1999999999999
vertex 7.24999999999997 2.45000000000001 2.00000000000002
endloop
endfacet
facet normal -1.0 2.49725833724011e-11 -2.21342112656427e-12
outer loop
vertex 7.24999999999997 2.45000000000001 2.00000000000002
vertex 7.2499999999998 3.95 16.1999999999999
vertex 7.24999999999983 3.94999999999999 13.1999999999999
endloop
endfacet
facet normal -1.0 2.49725833724011e-11 -2.21342112656427e-12
outer loop
vertex 7.24999999999983 3.94999999999999 13.1999999999999
vertex 7.2499999999998 3.95 16.1999999999999
vertex 7.24999999999983 3.95 13.6999999999999
endloop
endfacet
facet normal -1.0 2.49725833724011e-11 -2.21342112656427e-12
outer loop
vertex 7.24999999999983 3.95 13.6999999999999
vertex 7.2499999999998 3.95 16.1999999999999
vertex 7.24999999999983 3.96703708685547 13.8294095225512
endloop
endfacet
facet normal -1.0 2.49725833724011e-11 -2.21342112656427e-12
outer loop
vertex 7.24999999999983 3.96703708685547 13.8294095225512
vertex 7.2499999999998 3.95 16.1999999999999
vertex 7.24999999999983 4.01698729810777 13.9499999999999
endloop
endfacet
facet normal -1.0 2.49725833724011e-11 -2.21342112656427e-12
outer loop
vertex 7.24999999999983 4.01698729810777 13.9499999999999
vertex 7.2499999999998 3.95 16.1999999999999
vertex 7.24999999999983 4.09644660940672 14.0535533905932
endloop
endfacet
facet normal -1.0 2.49725833724011e-11 -2.21342112656427e-12
outer loop
vertex 7.24999999999983 4.09644660940672 14.0535533905932
vertex 7.2499999999998 3.95 16.1999999999999
vertex 7.24999999999983 4.19999999999999 14.1330127018921
endloop
endfacet
facet normal -1.0 2.49725833724011e-11 -2.21342112656427e-12
outer loop
vertex 7.24999999999983 4.19999999999999 14.1330127018921
vertex 7.2499999999998 3.95 16.1999999999999
vertex 7.24999999999982 4.32059047744874 14.1829629131445
endloop
endfacet
facet normal -1.0 2.49725833724011e-11 -2.21342112656427e-12
outer loop
vertex 7.24999999999982 4.32059047744874 14.1829629131445
vertex 7.2499999999998 3.95 16.1999999999999
vertex 7.24999999999982 4.44999999999999 14.1999999999999
endloop
endfacet
facet normal -1.0 2.49725833724011e-11 -2.21342112656427e-12
outer loop
vertex 7.24999999999982 4.44999999999999 14.1999999999999
vertex 7.2499999999998 3.95 16.1999999999999
vertex 7.24999999999982 4.94999999999999 14.1999999999999
endloop
endfacet
facet normal -1.0 2.49725833724011e-11 -2.21342112656427e-12
outer loop
vertex 7.24999999999982 4.94999999999999 14.1999999999999
vertex 7.2499999999998 3.95 16.1999999999999
vertex 7.24999999999982 5.23404495108493 14.1929880964437
endloop
endfacet
facet normal -1.0 2.49725833724011e-11 -2.21342112656427e-12
outer loop
vertex 7.24999999999997 3.95 1.99999999999992
vertex 7.24999999999997 2.45000000000001 2.00000000000002
vertex 7.24999999999983 3.94999999999999 13.1999999999999
endloop
endfacet
facet normal 5.4832681605098e-15 -3.28996089630589e-14 -1.0
outer loop
vertex 15.25 3.95 2.00000000000002
vertex 7.24999999999997 2.45000000000001 2.00000000000002
vertex 7.24999999999997 3.95 1.99999999999992
endloop
endfacet
facet normal 5.4832681605098e-15 -3.28996089630589e-14 -1.0
outer loop
vertex 7.24999999999997 2.45000000000001 2.00000000000002
vertex 15.25 3.95 2.00000000000002
vertex 9.24999999999997 2.45000000000001 2.00000000000002
endloop
endfacet
facet normal 5.4832681605098e-15 -3.28996089630589e-14 -1.0
outer loop
vertex 9.24999999999997 2.45000000000001 2.00000000000002
vertex 15.25 3.95 2.00000000000002
vertex 13.25 2.45000000000001 2.00000000000002
endloop
endfacet
facet normal 5.4832681605098e-15 -3.28996089630589e-14 -1.0
outer loop
vertex 13.25 2.45000000000001 2.00000000000002
vertex 15.25 3.95 2.00000000000002
vertex 15.25 2.45000000000001 2.00000000000002
endloop
endfacet
facet normal -1.12798659301916e-14 1.2325926992175e-29 1.0
outer loop
vertex 15.2499999999998 2.44999999999999 16.2
vertex 7.2499999999998 3.95 16.1999999999999
vertex 7.2499999999998 2.45 16.1999999999999
endloop
endfacet
facet normal -1.12798659301916e-14 1.2325926992175e-29 1.0
outer loop
vertex 7.2499999999998 3.95 16.1999999999999
vertex 15.2499999999998 2.44999999999999 16.2
vertex 15.2499999999998 3.95 16.2
endloop
endfacet
facet normal -6.04278522369802e-16 1.0 1.40998322446564e-15
outer loop
vertex 23.7 5.75 2.00000004768371
vertex 27.2 5.75000000000001 -5.44286837822483e-15
vertex 23.7 5.75 -5.63993296509579e-15
endloop
endfacet
facet normal -6.04278522369802e-16 1.0 1.40998322446564e-15
outer loop
vertex 27.2 5.75000000000001 -5.44286837822483e-15
vertex 23.7 5.75 2.00000004768371
vertex 27.2 5.75 1.99999999999999
endloop
endfacet
facet normal -1.32185928412685e-15 -1.0 -6.13036186136486e-16
outer loop
vertex 23.7 7.25 2.0
vertex 20.4999999657273 7.25 4.29999999999999
vertex 20.5 7.25000000000001 1.99999999999999
endloop
endfacet
facet normal -1.32185928412685e-15 -1.0 -6.13036186136486e-16
outer loop
vertex 20.4999999657273 7.25 4.29999999999999
vertex 23.7 7.25 2.0
vertex 23.6999999657273 7.25 4.3000000476837
endloop
endfacet
facet normal 4.40619765962039e-16 1.0 9.74642845446941e-17
outer loop
vertex 20.5 5.25000000000001 -5.49160052049718e-15
vertex 23.7 5.25 2.00000004768371
vertex 23.7 5.25 -5.68866510736814e-15
endloop
endfacet
facet normal 4.40619765962039e-16 1.0 9.74642845446941e-17
outer loop
vertex 23.7 5.25 2.00000004768371
vertex 20.5 5.25000000000001 -5.49160052049718e-15
vertex 20.5 5.25 1.99999999999999
endloop
endfacet
facet normal 4.40619765962039e-16 1.0 9.74642845446941e-17
outer loop
vertex 23.7 5.25 2.00000004768371
vertex 20.5 5.25 1.99999999999999
vertex 20.4999999433756 5.25 5.79999999999999
endloop
endfacet
facet normal 4.40619765962039e-16 1.0 9.74642845446941e-17
outer loop
vertex 23.7 5.25 2.00000004768371
vertex 20.4999999433756 5.25 5.79999999999999
vertex 23.6999999433756 5.25 5.80000004768371
endloop
endfacet
facet normal -1.0 4.40619765962039e-16 6.2126647096838e-31
outer loop
vertex 23.7 5.75 2.00000004768371
vertex 23.7 5.25 -5.68866510736814e-15
vertex 23.7 5.25 2.00000004768371
endloop
endfacet
facet normal -1.0 4.40619765962039e-16 6.2126647096838e-31
outer loop
vertex 23.7 5.25 -5.68866510736814e-15
vertex 23.7 5.75 2.00000004768371
vertex 23.7 5.75 -5.63993296509579e-15
endloop
endfacet
endsolid JoystickMountV1
