solid JoystickMountV1
facet normal -1.0 0.0 0.0
outer loop
vertex 2.0 21.25 2.0
vertex 2.0 18.5 5.2735593669695e-16
vertex 2.0 18.5 2.0
endloop
endfacet
facet normal -1.0 0.0 0.0
outer loop
vertex 2.0 18.5 5.2735593669695e-16
vertex 2.0 21.25 2.0
vertex 2.0 21.25 1.77358128183869e-15
endloop
endfacet
facet normal 0.0 1.0 3.05311331771918e-16
outer loop
vertex 2.0 21.25 2.0
vertex 4.5 21.25 1.77358128183869e-15
vertex 2.0 21.25 1.77358128183869e-15
endloop
endfacet
facet normal 0.0 1.0 3.05311331771918e-16
outer loop
vertex 4.5 21.25 1.77358128183869e-15
vertex 2.0 21.25 2.0
vertex 4.5 21.25 2.0
endloop
endfacet
facet normal -1.0 0.0 0.0
outer loop
vertex 4.5 24.85 2.0
vertex 4.5 21.25 1.77358128183869e-15
vertex 4.5 21.25 2.0
endloop
endfacet
facet normal -1.0 0.0 0.0
outer loop
vertex 4.5 21.25 1.77358128183869e-15
vertex 4.5 24.85 2.0
vertex 4.5 24.85 5.10980147083728e-15
endloop
endfacet
facet normal 0.0 1.0 3.05311331771918e-16
outer loop
vertex 4.5 24.85 2.0
vertex 18.0 24.85 5.10980147083728e-15
vertex 4.5 24.85 5.10980147083728e-15
endloop
endfacet
facet normal 0.0 1.0 3.05311331771918e-16
outer loop
vertex 18.0 24.85 5.10980147083728e-15
vertex 4.5 24.85 2.0
vertex 18.0 24.85 2.0
endloop
endfacet
facet normal 1.0 -7.83324022929972e-16 -2.68431835804372e-31
outer loop
vertex 18.0 24.85 5.10980147083728e-15
vertex 18.0 21.25 2.0
vertex 18.0 21.25 3.63598040564741e-16
endloop
endfacet
facet normal 1.0 -7.83324022929972e-16 -2.68431835804372e-31
outer loop
vertex 18.0 21.25 2.0
vertex 18.0 24.85 5.10980147083728e-15
vertex 18.0 24.85 2.0
endloop
endfacet
facet normal -1.40998324127395e-16 1.0 3.05311331771918e-16
outer loop
vertex 18.0 21.25 2.0
vertex 20.5 21.25 3.18356452311264e-15
vertex 18.0 21.25 3.63598040564741e-16
endloop
endfacet
facet normal -1.40998324127395e-16 1.0 3.05311331771918e-16
outer loop
vertex 20.5 21.25 3.18356452311264e-15
vertex 18.0 21.25 2.0
vertex 20.5 21.25 2.0
endloop
endfacet
facet normal 1.0 0.0 0.0
outer loop
vertex 20.5 17.75 -9.02056207507937e-16
vertex 20.5 21.25 2.0
vertex 20.5 17.75 2.0
endloop
endfacet
facet normal 1.0 0.0 0.0
outer loop
vertex 20.5 21.25 2.0
vertex 20.5 17.75 -9.02056207507937e-16
vertex 20.5 21.25 3.18356452311264e-15
endloop
endfacet
facet normal 1.0 0.0 0.0
outer loop
vertex 27.2 5.75000000000001 -5.44286837822483e-15
vertex 27.2 17.75 2.0
vertex 27.2 5.75 1.99999999999999
endloop
endfacet
facet normal 1.0 0.0 0.0
outer loop
vertex 27.2 17.75 2.0
vertex 27.2 5.75000000000001 -5.44286837822483e-15
vertex 27.2 17.75 -9.02056207507937e-16
endloop
endfacet
facet normal 1.0 0.0 0.0
outer loop
vertex 20.5 2.25000000000001 -4.59354776438659e-15
vertex 20.5 5.75 1.99999999999999
vertex 20.5 2.25000000000001 1.99999999999999
endloop
endfacet
facet normal 1.0 0.0 0.0
outer loop
vertex 20.5 5.75 1.99999999999999
vertex 20.5 2.25000000000001 -4.59354776438659e-15
vertex 20.5 5.75000000000001 -5.44286837822483e-15
endloop
endfacet
facet normal 0.0 1.0 3.05311331771918e-16
outer loop
vertex -1.85 18.5 2.0
vertex 2.0 18.5 5.2735593669695e-16
vertex -1.85 18.5 5.2735593669695e-16
endloop
endfacet
facet normal 0.0 1.0 3.05311331771918e-16
outer loop
vertex 2.0 18.5 5.2735593669695e-16
vertex -1.85 18.5 2.0
vertex 2.0 18.5 2.0
endloop
endfacet
facet normal -2.04501372423304e-16 -3.05311331771918e-16 1.0
outer loop
vertex 2.0 2.25000000000001 -4.59354776438659e-15
vertex 3.9 3.45 -1.60149671302179e-15
vertex 2.0 5.00000000000001 -7.92976795338518e-15
endloop
endfacet
facet normal -2.04501372423304e-16 -3.05311331771918e-16 1.0
outer loop
vertex 3.9 3.45 -1.60149671302179e-15
vertex 2.0 2.25000000000001 -4.59354776438659e-15
vertex 7.24999999999999 2.25000000000001 -5.57054402605672e-14
endloop
endfacet
facet normal -2.04501372423304e-16 -3.05311331771918e-16 1.0
outer loop
vertex 2.0 5.00000000000001 -7.92976795338518e-15
vertex 3.9 3.45 -1.60149671302179e-15
vertex 2.5 7.0 -2.82551759767102e-15
endloop
endfacet
facet normal -2.04501372423304e-16 -3.05311331771918e-16 1.0
outer loop
vertex 2.5 7.0 -2.82551759767102e-15
vertex 3.9 3.45 -1.60149671302179e-15
vertex 2.5 16.5 1.06303854607859e-15
endloop
endfacet
facet normal -2.04501372423304e-16 -3.05311331771918e-16 1.0
outer loop
vertex 3.9 3.45 -1.60149671302179e-15
vertex 7.24999999999999 2.25000000000001 -5.57054402605672e-14
vertex 5.9 3.45 -1.60149671302179e-15
endloop
endfacet
facet normal -2.04501372423304e-16 -3.05311331771918e-16 1.0
outer loop
vertex 5.9 3.45 -1.60149671302179e-15
vertex 7.24999999999999 2.25000000000001 -5.57054402605672e-14
vertex 5.9 4.45000000000001 -4.86555240541975e-15
endloop
endfacet
facet normal -2.04501372423304e-16 -3.05311331771918e-16 1.0
outer loop
vertex 5.9 4.45000000000001 -4.86555240541975e-15
vertex 7.24999999999999 2.25000000000001 -5.57054402605672e-14
vertex 6.5 20.5 -3.60822483003174e-16
endloop
endfacet
facet normal -2.04501372423304e-16 -3.05311331771918e-16 1.0
outer loop
vertex 6.5 20.5 -3.60822483003174e-16
vertex 7.24999999999999 2.25000000000001 -5.57054402605672e-14
vertex 16.0 20.5 3.44169137633798e-16
endloop
endfacet
facet normal -2.04501372423304e-16 -3.05311331771918e-16 1.0
outer loop
vertex 16.0 20.5 3.44169137633798e-16
vertex 7.24999999999999 2.25000000000001 -5.57054402605672e-14
vertex 15.25 2.25000000000001 4.33458824389277e-14
endloop
endfacet
facet normal -2.04501372423304e-16 -3.05311331771918e-16 1.0
outer loop
vertex 16.0 20.5 3.44169137633798e-16
vertex 15.25 2.25000000000001 4.33458824389277e-14
vertex 17.2 3.45 -1.60149671302179e-15
endloop
endfacet
facet normal -2.04501372423304e-16 -3.05311331771918e-16 1.0
outer loop
vertex 17.2 3.45 -1.60149671302179e-15
vertex 15.25 2.25000000000001 4.33458824389277e-14
vertex 20.5 2.25000000000001 -4.59354776438659e-15
endloop
endfacet
facet normal -2.04501372423304e-16 -3.05311331771918e-16 1.0
outer loop
vertex 16.0 20.5 3.44169137633798e-16
vertex 17.2 3.45 -1.60149671302179e-15
vertex 16.0 22.85 4.23550083894497e-15
endloop
endfacet
facet normal -2.04501372423304e-16 -3.05311331771918e-16 1.0
outer loop
vertex 17.2 3.45 -1.60149671302179e-15
vertex 20.5 2.25000000000001 -4.59354776438659e-15
vertex 19.2 3.45 -1.60149671302179e-15
endloop
endfacet
facet normal -2.04501372423304e-16 -3.05311331771918e-16 1.0
outer loop
vertex 19.2 3.45 -1.60149671302179e-15
vertex 20.5 2.25000000000001 -4.59354776438659e-15
vertex 19.2 4.45000000000001 -4.86555240541975e-15
endloop
endfacet
facet normal -2.04501372423304e-16 -3.05311331771918e-16 1.0
outer loop
vertex 17.2 4.45000000000001 -4.86555240541975e-15
vertex 18.7 7.75000000000001 -5.62605517728799e-15
vertex 17.2 19.05 -3.59434704222394e-15
endloop
endfacet
facet normal -2.04501372423304e-16 -3.05311331771918e-16 1.0
outer loop
vertex 18.7 7.75000000000001 -5.62605517728799e-15
vertex 17.2 4.45000000000001 -4.86555240541975e-15
vertex 19.2 4.45000000000001 -4.86555240541975e-15
endloop
endfacet
facet normal -2.04501372423304e-16 -3.05311331771918e-16 1.0
outer loop
vertex 18.7 7.75000000000001 -5.62605517728799e-15
vertex 19.2 4.45000000000001 -4.86555240541975e-15
vertex 20.5 5.75000000000001 -5.44286837822483e-15
endloop
endfacet
facet normal -2.04501372423304e-16 -3.05311331771918e-16 1.0
outer loop
vertex 18.7 7.75000000000001 -5.62605517728799e-15
vertex 20.5 5.75000000000001 -5.44286837822483e-15
vertex 25.2 7.75000000000001 -5.62605517728799e-15
endloop
endfacet
facet normal -2.04501372423304e-16 -3.05311331771918e-16 1.0
outer loop
vertex 20.5 5.75000000000001 -5.44286837822483e-15
vertex 19.2 4.45000000000001 -4.86555240541975e-15
vertex 20.5 2.25000000000001 -4.59354776438659e-15
endloop
endfacet
facet normal -2.04501372423304e-16 -3.05311331771918e-16 1.0
outer loop
vertex 25.2 7.75000000000001 -5.62605517728799e-15
vertex 20.5 5.75000000000001 -5.44286837822483e-15
vertex 27.2 5.75000000000001 -5.44286837822483e-15
endloop
endfacet
facet normal -2.04501372423304e-16 -3.05311331771918e-16 1.0
outer loop
vertex 17.2 19.05 -3.59434704222394e-15
vertex 18.7 15.75 3.38618022510671e-16
vertex 19.2 19.05 -3.59434704222394e-15
endloop
endfacet
facet normal -2.04501372423304e-16 -3.05311331771918e-16 1.0
outer loop
vertex 18.7 15.75 3.38618022510671e-16
vertex 17.2 19.05 -3.59434704222394e-15
vertex 18.7 7.75000000000001 -5.62605517728799e-15
endloop
endfacet
facet normal -2.04501372423304e-16 -3.05311331771918e-16 1.0
outer loop
vertex 19.2 19.05 -3.59434704222394e-15
vertex 18.7 15.75 3.38618022510671e-16
vertex 20.5 17.75 -9.02056207507937e-16
endloop
endfacet
facet normal -2.04501372423304e-16 -3.05311331771918e-16 1.0
outer loop
vertex 20.5 17.75 -9.02056207507937e-16
vertex 18.7 15.75 3.38618022510671e-16
vertex 25.2 15.75 3.38618022510671e-16
endloop
endfacet
facet normal -2.04501372423304e-16 -3.05311331771918e-16 1.0
outer loop
vertex 19.2 19.05 -3.59434704222394e-15
vertex 20.5 17.75 -9.02056207507937e-16
vertex 19.2 20.05 -2.27595720048157e-15
endloop
endfacet
facet normal -2.04501372423304e-16 -3.05311331771918e-16 1.0
outer loop
vertex 20.5 17.75 -9.02056207507937e-16
vertex 25.2 15.75 3.38618022510671e-16
vertex 27.2 17.75 -9.02056207507937e-16
endloop
endfacet
facet normal -2.04501372423304e-16 -3.05311331771918e-16 1.0
outer loop
vertex 27.2 17.75 -9.02056207507937e-16
vertex 25.2 15.75 3.38618022510671e-16
vertex 25.2 7.75000000000001 -5.62605517728799e-15
endloop
endfacet
facet normal -2.04501372423304e-16 -3.05311331771918e-16 1.0
outer loop
vertex 27.2 17.75 -9.02056207507937e-16
vertex 25.2 7.75000000000001 -5.62605517728799e-15
vertex 27.2 5.75000000000001 -5.44286837822483e-15
endloop
endfacet
facet normal -2.04501372423304e-16 -3.05311331771918e-16 1.0
outer loop
vertex 19.2 20.05 -2.27595720048157e-15
vertex 18.0 21.25 3.63598040564741e-16
vertex 17.2 20.05 -2.27595720048157e-15
endloop
endfacet
facet normal -2.04501372423304e-16 -3.05311331771918e-16 1.0
outer loop
vertex 18.0 21.25 3.63598040564741e-16
vertex 19.2 20.05 -2.27595720048157e-15
vertex 20.5 21.25 3.18356452311264e-15
endloop
endfacet
facet normal -2.04501372423304e-16 -3.05311331771918e-16 1.0
outer loop
vertex 20.5 21.25 3.18356452311264e-15
vertex 19.2 20.05 -2.27595720048157e-15
vertex 20.5 17.75 -9.02056207507937e-16
endloop
endfacet
facet normal -2.04501372423304e-16 -3.05311331771918e-16 1.0
outer loop
vertex 5.9 4.45000000000001 -4.86555240541975e-15
vertex 3.9 19.05 -3.59434704222394e-15
vertex 3.9 4.45000000000001 -4.86555240541975e-15
endloop
endfacet
facet normal -2.04501372423304e-16 -3.05311331771918e-16 1.0
outer loop
vertex 3.9 19.05 -3.59434704222394e-15
vertex 5.9 4.45000000000001 -4.86555240541975e-15
vertex 5.9 19.05 -3.59434704222394e-15
endloop
endfacet
facet normal -2.04501372423304e-16 -3.05311331771918e-16 1.0
outer loop
vertex 5.9 19.05 -3.59434704222394e-15
vertex 5.9 4.45000000000001 -4.86555240541975e-15
vertex 5.9 20.05 -2.27595720048157e-15
endloop
endfacet
facet normal -2.04501372423304e-16 -3.05311331771918e-16 1.0
outer loop
vertex -0.100000000000004 5.00000000000001 -7.92976795338518e-15
vertex -1.85 18.5 5.2735593669695e-16
vertex -1.85 5.00000000000001 -7.92976795338518e-15
endloop
endfacet
facet normal -2.04501372423304e-16 -3.05311331771918e-16 1.0
outer loop
vertex -1.85 18.5 5.2735593669695e-16
vertex -0.100000000000004 5.00000000000001 -7.92976795338518e-15
vertex 0.149999999999996 16.5 1.06303854607859e-15
endloop
endfacet
facet normal -2.04501372423304e-16 -3.05311331771918e-16 1.0
outer loop
vertex -1.85 18.5 5.2735593669695e-16
vertex 0.149999999999996 16.5 1.06303854607859e-15
vertex 2.0 18.5 5.2735593669695e-16
endloop
endfacet
facet normal -2.04501372423304e-16 -3.05311331771918e-16 1.0
outer loop
vertex 0.149999999999996 16.5 1.06303854607859e-15
vertex -0.100000000000004 5.00000000000001 -7.92976795338518e-15
vertex 0.149999999999996 7.0 -2.82551759767102e-15
endloop
endfacet
facet normal -2.04501372423304e-16 -3.05311331771918e-16 1.0
outer loop
vertex 2.0 18.5 5.2735593669695e-16
vertex 0.149999999999996 16.5 1.06303854607859e-15
vertex 2.5 16.5 1.06303854607859e-15
endloop
endfacet
facet normal -2.04501372423304e-16 -3.05311331771918e-16 1.0
outer loop
vertex 2.0 18.5 5.2735593669695e-16
vertex 2.5 16.5 1.06303854607859e-15
vertex 2.0 21.25 1.77358128183869e-15
endloop
endfacet
facet normal -2.04501372423304e-16 -3.05311331771918e-16 1.0
outer loop
vertex 2.0 21.25 1.77358128183869e-15
vertex 2.5 16.5 1.06303854607859e-15
vertex 3.9 20.05 -2.27595720048157e-15
endloop
endfacet
facet normal -2.04501372423304e-16 -3.05311331771918e-16 1.0
outer loop
vertex 2.0 21.25 1.77358128183869e-15
vertex 3.9 20.05 -2.27595720048157e-15
vertex 4.5 21.25 1.77358128183869e-15
endloop
endfacet
facet normal -2.04501372423304e-16 -3.05311331771918e-16 1.0
outer loop
vertex 3.9 20.05 -2.27595720048157e-15
vertex 2.5 16.5 1.06303854607859e-15
vertex 3.9 3.45 -1.60149671302179e-15
endloop
endfacet
facet normal -2.04501372423304e-16 -3.05311331771918e-16 1.0
outer loop
vertex 3.9 20.05 -2.27595720048157e-15
vertex 3.9 3.45 -1.60149671302179e-15
vertex 3.9 4.45000000000001 -4.86555240541975e-15
endloop
endfacet
facet normal -2.04501372423304e-16 -3.05311331771918e-16 1.0
outer loop
vertex 3.9 20.05 -2.27595720048157e-15
vertex 3.9 4.45000000000001 -4.86555240541975e-15
vertex 3.9 19.05 -3.59434704222394e-15
endloop
endfacet
facet normal -2.04501372423304e-16 -3.05311331771918e-16 1.0
outer loop
vertex 4.5 21.25 1.77358128183869e-15
vertex 3.9 20.05 -2.27595720048157e-15
vertex 5.9 20.05 -2.27595720048157e-15
endloop
endfacet
facet normal -2.04501372423304e-16 -3.05311331771918e-16 1.0
outer loop
vertex 4.5 21.25 1.77358128183869e-15
vertex 5.9 20.05 -2.27595720048157e-15
vertex 4.5 24.85 5.10980147083728e-15
endloop
endfacet
facet normal -2.04501372423304e-16 -3.05311331771918e-16 1.0
outer loop
vertex 4.5 24.85 5.10980147083728e-15
vertex 5.9 20.05 -2.27595720048157e-15
vertex 6.5 22.85 4.23550083894497e-15
endloop
endfacet
facet normal -2.04501372423304e-16 -3.05311331771918e-16 1.0
outer loop
vertex 4.5 24.85 5.10980147083728e-15
vertex 6.5 22.85 4.23550083894497e-15
vertex 18.0 24.85 5.10980147083728e-15
endloop
endfacet
facet normal -2.04501372423304e-16 -3.05311331771918e-16 1.0
outer loop
vertex 6.5 22.85 4.23550083894497e-15
vertex 5.9 20.05 -2.27595720048157e-15
vertex 5.9 4.45000000000001 -4.86555240541975e-15
endloop
endfacet
facet normal -2.04501372423304e-16 -3.05311331771918e-16 1.0
outer loop
vertex 6.5 22.85 4.23550083894497e-15
vertex 5.9 4.45000000000001 -4.86555240541975e-15
vertex 6.5 20.5 -3.60822483003174e-16
endloop
endfacet
facet normal -2.04501372423304e-16 -3.05311331771918e-16 1.0
outer loop
vertex 18.0 24.85 5.10980147083728e-15
vertex 6.5 22.85 4.23550083894497e-15
vertex 16.0 22.85 4.23550083894497e-15
endloop
endfacet
facet normal -2.04501372423304e-16 -3.05311331771918e-16 1.0
outer loop
vertex 18.0 24.85 5.10980147083728e-15
vertex 16.0 22.85 4.23550083894497e-15
vertex 17.2 20.05 -2.27595720048157e-15
endloop
endfacet
facet normal -2.04501372423304e-16 -3.05311331771918e-16 1.0
outer loop
vertex 17.2 20.05 -2.27595720048157e-15
vertex 16.0 22.85 4.23550083894497e-15
vertex 17.2 3.45 -1.60149671302179e-15
endloop
endfacet
facet normal -2.04501372423304e-16 -3.05311331771918e-16 1.0
outer loop
vertex 17.2 20.05 -2.27595720048157e-15
vertex 17.2 3.45 -1.60149671302179e-15
vertex 17.2 4.45000000000001 -4.86555240541975e-15
endloop
endfacet
facet normal -2.04501372423304e-16 -3.05311331771918e-16 1.0
outer loop
vertex 17.2 20.05 -2.27595720048157e-15
vertex 17.2 4.45000000000001 -4.86555240541975e-15
vertex 17.2 19.05 -3.59434704222394e-15
endloop
endfacet
facet normal -2.04501372423304e-16 -3.05311331771918e-16 1.0
outer loop
vertex 18.0 24.85 5.10980147083728e-15
vertex 17.2 20.05 -2.27595720048157e-15
vertex 18.0 21.25 3.63598040564741e-16
endloop
endfacet
facet normal -2.04501372423304e-16 -3.05311331771918e-16 1.0
outer loop
vertex 2.0 5.00000000000001 -7.92976795338518e-15
vertex 0.149999999999996 7.0 -2.82551759767102e-15
vertex -0.100000000000004 5.00000000000001 -7.92976795338518e-15
endloop
endfacet
facet normal -2.04501372423304e-16 -3.05311331771918e-16 1.0
outer loop
vertex 0.149999999999996 7.0 -2.82551759767102e-15
vertex 2.0 5.00000000000001 -7.92976795338518e-15
vertex 2.5 7.0 -2.82551759767102e-15
endloop
endfacet
facet normal -1.0 0.0 0.0
outer loop
vertex -1.85 18.5 2.0
vertex -1.85 5.00000000000001 -7.92976795338518e-15
vertex -1.85 5.00000000000001 2.0
endloop
endfacet
facet normal -1.0 0.0 0.0
outer loop
vertex -1.85 5.00000000000001 -7.92976795338518e-15
vertex -1.85 18.5 2.0
vertex -1.85 18.5 5.2735593669695e-16
endloop
endfacet
facet normal 0.0 -1.0 -3.05311331771918e-16
outer loop
vertex -0.100000000000004 5.00000000000001 2.0
vertex -1.85 5.00000000000001 -7.92976795338518e-15
vertex -0.100000000000004 5.00000000000001 -7.92976795338518e-15
endloop
endfacet
facet normal 0.0 -1.0 -3.05311331771918e-16
outer loop
vertex -1.85 5.00000000000001 -7.92976795338518e-15
vertex -0.100000000000004 5.00000000000001 2.0
vertex -1.85 5.00000000000001 2.0
endloop
endfacet
facet normal 0.0 -1.0 -3.05311331771918e-16
outer loop
vertex 2.0 5.00000000000001 2.0
vertex -0.100000000000004 5.00000000000001 -7.92976795338518e-15
vertex 2.0 5.00000000000001 -7.92976795338518e-15
endloop
endfacet
facet normal 0.0 -1.0 -3.05311331771918e-16
outer loop
vertex -0.100000000000004 5.00000000000001 -7.92976795338518e-15
vertex 2.0 5.00000000000001 2.0
vertex -0.100000000000004 5.00000000000001 2.0
endloop
endfacet
facet normal 0.0 -1.0 -3.05311331771918e-16
outer loop
vertex 27.2 17.75 2.0
vertex 20.5 17.75 -9.02056207507937e-16
vertex 27.2 17.75 -9.02056207507937e-16
endloop
endfacet
facet normal 0.0 -1.0 -3.05311331771918e-16
outer loop
vertex 20.5 17.75 -9.02056207507937e-16
vertex 27.2 17.75 2.0
vertex 20.5 17.75 2.0
endloop
endfacet
facet normal 0.0 -1.0 -3.05311331771918e-16
outer loop
vertex 20.5 17.75 2.0
vertex 27.2 17.75 2.0
vertex 23.7 17.75 2.00000000000001
endloop
endfacet
facet normal 0.0 -1.0 -3.05311331771918e-16
outer loop
vertex 20.5 17.75 2.0
vertex 23.7 17.75 2.00000000000001
vertex 20.5 17.75 5.8
endloop
endfacet
facet normal 0.0 -1.0 -3.05311331771918e-16
outer loop
vertex 20.5 17.75 5.8
vertex 23.7 17.75 2.00000000000001
vertex 23.7 17.75 5.80000000000001
endloop
endfacet
facet normal -1.0 0.0 0.0
outer loop
vertex 2.0 5.00000000000001 2.0
vertex 2.0 2.25000000000001 -4.59354776438659e-15
vertex 2.0 2.25000000000001 1.99999999999999
endloop
endfacet
facet normal -1.0 0.0 0.0
outer loop
vertex 2.0 2.25000000000001 -4.59354776438659e-15
vertex 2.0 5.00000000000001 2.0
vertex 2.0 5.00000000000001 -7.92976795338518e-15
endloop
endfacet
facet normal 0.0 1.0 3.05311331771918e-16
outer loop
vertex 17.2 19.05 2.0
vertex 19.2 19.05 -3.59434704222394e-15
vertex 17.2 19.05 -3.59434704222394e-15
endloop
endfacet
facet normal 0.0 1.0 3.05311331771918e-16
outer loop
vertex 19.2 19.05 -3.59434704222394e-15
vertex 17.2 19.05 2.0
vertex 19.2 19.05 2.0
endloop
endfacet
facet normal 1.0 0.0 0.0
outer loop
vertex 17.2 20.05 -2.27595720048157e-15
vertex 17.2 19.05 2.0
vertex 17.2 19.05 -3.59434704222394e-15
endloop
endfacet
facet normal 1.0 0.0 0.0
outer loop
vertex 17.2 19.05 2.0
vertex 17.2 20.05 -2.27595720048157e-15
vertex 17.2 20.05 2.0
endloop
endfacet
facet normal 0.0 1.0 3.05311331771918e-16
outer loop
vertex 20.5 5.75 1.99999999999999
vertex 27.2 5.75000000000001 -5.44286837822483e-15
vertex 20.5 5.75000000000001 -5.44286837822483e-15
endloop
endfacet
facet normal 0.0 1.0 3.05311331771918e-16
outer loop
vertex 27.2 5.75000000000001 -5.44286837822483e-15
vertex 20.5 5.75 1.99999999999999
vertex 27.2 5.75 1.99999999999999
endloop
endfacet
facet normal 0.0 1.0 3.05311331771918e-16
outer loop
vertex 27.2 5.75 1.99999999999999
vertex 20.5 5.75 1.99999999999999
vertex 23.7 5.75 2.00000004768371
endloop
endfacet
facet normal 0.0 1.0 3.05311331771918e-16
outer loop
vertex 23.7 5.75 2.00000004768371
vertex 20.5 5.75 1.99999999999999
vertex 20.4999999433756 5.75 5.79999999999999
endloop
endfacet
facet normal 0.0 1.0 3.05311331771918e-16
outer loop
vertex 23.7 5.75 2.00000004768371
vertex 20.4999999433756 5.75 5.79999999999999
vertex 23.6999999433756 5.75 5.80000004768371
endloop
endfacet
facet normal 0.0 1.0 3.05311331771918e-16
outer loop
vertex 3.9 19.05 2.0
vertex 5.9 19.05 -3.59434704222394e-15
vertex 3.9 19.05 -3.59434704222394e-15
endloop
endfacet
facet normal 0.0 1.0 3.05311331771918e-16
outer loop
vertex 5.9 19.05 -3.59434704222394e-15
vertex 3.9 19.05 2.0
vertex 5.9 19.05 2.0
endloop
endfacet
facet normal 1.0 0.0 0.0
outer loop
vertex 3.9 20.05 -2.27595720048157e-15
vertex 3.9 19.05 2.0
vertex 3.9 19.05 -3.59434704222394e-15
endloop
endfacet
facet normal 1.0 0.0 0.0
outer loop
vertex 3.9 19.05 2.0
vertex 3.9 20.05 -2.27595720048157e-15
vertex 3.9 20.05 2.0
endloop
endfacet
facet normal 0.0 -1.0 -3.05311331771918e-16
outer loop
vertex 19.2 20.05 2.0
vertex 17.2 20.05 -2.27595720048157e-15
vertex 19.2 20.05 -2.27595720048157e-15
endloop
endfacet
facet normal 0.0 -1.0 -3.05311331771918e-16
outer loop
vertex 17.2 20.05 -2.27595720048157e-15
vertex 19.2 20.05 2.0
vertex 17.2 20.05 2.0
endloop
endfacet
facet normal -1.0 0.0 0.0
outer loop
vertex 19.2 20.05 2.0
vertex 19.2 19.05 -3.59434704222394e-15
vertex 19.2 19.05 2.0
endloop
endfacet
facet normal -1.0 0.0 0.0
outer loop
vertex 19.2 19.05 -3.59434704222394e-15
vertex 19.2 20.05 2.0
vertex 19.2 20.05 -2.27595720048157e-15
endloop
endfacet
facet normal -5.37136472866264e-16 -1.0 -3.05311331771918e-16
outer loop
vertex 20.5 2.25000000000001 1.99999999999999
vertex 15.25 2.25000000000001 4.33458824389277e-14
vertex 20.5 2.25000000000001 -4.59354776438659e-15
endloop
endfacet
facet normal -5.37136472866264e-16 -1.0 -3.05311331771918e-16
outer loop
vertex 15.25 2.25000000000001 4.33458824389277e-14
vertex 20.5 2.25000000000001 1.99999999999999
vertex 15.25 2.25 2.00000000000004
endloop
endfacet
facet normal 0.0 1.0 3.05311331771918e-16
outer loop
vertex 3.9 3.45 1.99999999999999
vertex 5.9 3.45 -1.60149671302179e-15
vertex 3.9 3.45 -1.60149671302179e-15
endloop
endfacet
facet normal 0.0 1.0 3.05311331771918e-16
outer loop
vertex 5.9 3.45 -1.60149671302179e-15
vertex 3.9 3.45 1.99999999999999
vertex 5.9 3.45 1.99999999999999
endloop
endfacet
facet normal 1.0 0.0 0.0
outer loop
vertex 3.9 3.45 -1.60149671302179e-15
vertex 3.9 4.45 1.99999999999999
vertex 3.9 3.45 1.99999999999999
endloop
endfacet
facet normal 1.0 0.0 0.0
outer loop
vertex 3.9 4.45 1.99999999999999
vertex 3.9 3.45 -1.60149671302179e-15
vertex 3.9 4.45000000000001 -4.86555240541975e-15
endloop
endfacet
facet normal 0.0 -1.0 -3.05311331771918e-16
outer loop
vertex 5.9 4.45 1.99999999999999
vertex 3.9 4.45000000000001 -4.86555240541975e-15
vertex 5.9 4.45000000000001 -4.86555240541975e-15
endloop
endfacet
facet normal 0.0 -1.0 -3.05311331771918e-16
outer loop
vertex 3.9 4.45000000000001 -4.86555240541975e-15
vertex 5.9 4.45 1.99999999999999
vertex 3.9 4.45 1.99999999999999
endloop
endfacet
facet normal -1.0 7.04991620636974e-16 2.29262700579857e-31
outer loop
vertex 5.9 4.45 1.99999999999999
vertex 5.9 3.45 -1.60149671302179e-15
vertex 5.9 3.45 1.99999999999999
endloop
endfacet
facet normal -1.0 7.04991620636974e-16 2.29262700579857e-31
outer loop
vertex 5.9 3.45 -1.60149671302179e-15
vertex 5.9 4.45 1.99999999999999
vertex 5.9 4.45000000000001 -4.86555240541975e-15
endloop
endfacet
facet normal 0.0 -1.0 -3.05311331771918e-16
outer loop
vertex 5.9 20.05 2.0
vertex 3.9 20.05 -2.27595720048157e-15
vertex 5.9 20.05 -2.27595720048157e-15
endloop
endfacet
facet normal 0.0 -1.0 -3.05311331771918e-16
outer loop
vertex 3.9 20.05 -2.27595720048157e-15
vertex 5.9 20.05 2.0
vertex 3.9 20.05 2.0
endloop
endfacet
facet normal -1.0 0.0 0.0
outer loop
vertex 5.9 20.05 2.0
vertex 5.9 19.05 -3.59434704222394e-15
vertex 5.9 19.05 2.0
endloop
endfacet
facet normal -1.0 0.0 0.0
outer loop
vertex 5.9 19.05 -3.59434704222394e-15
vertex 5.9 20.05 2.0
vertex 5.9 20.05 -2.27595720048157e-15
endloop
endfacet
facet normal -1.0 0.0 0.0
outer loop
vertex 19.2 4.45 1.99999999999999
vertex 19.2 3.45 -1.60149671302179e-15
vertex 19.2 3.45 1.99999999999999
endloop
endfacet
facet normal -1.0 0.0 0.0
outer loop
vertex 19.2 3.45 -1.60149671302179e-15
vertex 19.2 4.45 1.99999999999999
vertex 19.2 4.45000000000001 -4.86555240541975e-15
endloop
endfacet
facet normal 0.0 1.0 3.05311331771918e-16
outer loop
vertex 17.2 3.45 1.99999999999999
vertex 19.2 3.45 -1.60149671302179e-15
vertex 17.2 3.45 -1.60149671302179e-15
endloop
endfacet
facet normal 0.0 1.0 3.05311331771918e-16
outer loop
vertex 19.2 3.45 -1.60149671302179e-15
vertex 17.2 3.45 1.99999999999999
vertex 19.2 3.45 1.99999999999999
endloop
endfacet
facet normal 1.0 0.0 0.0
outer loop
vertex 17.2 3.45 -1.60149671302179e-15
vertex 17.2 4.45 1.99999999999999
vertex 17.2 3.45 1.99999999999999
endloop
endfacet
facet normal 1.0 0.0 0.0
outer loop
vertex 17.2 4.45 1.99999999999999
vertex 17.2 3.45 -1.60149671302179e-15
vertex 17.2 4.45000000000001 -4.86555240541975e-15
endloop
endfacet
facet normal 0.0 -1.0 -3.05311331771918e-16
outer loop
vertex 19.2 4.45 1.99999999999999
vertex 17.2 4.45000000000001 -4.86555240541975e-15
vertex 19.2 4.45000000000001 -4.86555240541975e-15
endloop
endfacet
facet normal 0.0 -1.0 -3.05311331771918e-16
outer loop
vertex 17.2 4.45000000000001 -4.86555240541975e-15
vertex 19.2 4.45 1.99999999999999
vertex 17.2 4.45 1.99999999999999
endloop
endfacet
facet normal -1.0 -3.52495810318487e-16 -1.7626110851032e-31
outer loop
vertex 25.2 15.75 2.0
vertex 25.2 7.75000000000001 -5.62605517728799e-15
vertex 25.2 7.75 2.0
endloop
endfacet
facet normal -1.0 -3.52495810318487e-16 -1.7626110851032e-31
outer loop
vertex 25.2 7.75000000000001 -5.62605517728799e-15
vertex 25.2 15.75 2.0
vertex 25.2 15.75 3.38618022510671e-16
endloop
endfacet
facet normal 0.0 1.0 3.05311331771918e-16
outer loop
vertex 18.7 7.75 2.0
vertex 25.2 7.75000000000001 -5.62605517728799e-15
vertex 18.7 7.75000000000001 -5.62605517728799e-15
endloop
endfacet
facet normal 0.0 1.0 3.05311331771918e-16
outer loop
vertex 25.2 7.75000000000001 -5.62605517728799e-15
vertex 18.7 7.75 2.0
vertex 25.2 7.75 2.0
endloop
endfacet
facet normal 1.0 0.0 0.0
outer loop
vertex 18.7 7.75000000000001 -5.62605517728799e-15
vertex 18.7 15.75 2.0
vertex 18.7 7.75 2.0
endloop
endfacet
facet normal 1.0 0.0 0.0
outer loop
vertex 18.7 15.75 2.0
vertex 18.7 7.75000000000001 -5.62605517728799e-15
vertex 18.7 15.75 3.38618022510671e-16
endloop
endfacet
facet normal 0.0 -1.0 -3.05311331771918e-16
outer loop
vertex 25.2 15.75 2.0
vertex 18.7 15.75 3.38618022510671e-16
vertex 25.2 15.75 3.38618022510671e-16
endloop
endfacet
facet normal 0.0 -1.0 -3.05311331771918e-16
outer loop
vertex 18.7 15.75 3.38618022510671e-16
vertex 25.2 15.75 2.0
vertex 18.7 15.75 2.0
endloop
endfacet
facet normal 0.0 -1.0 -3.05311331771918e-16
outer loop
vertex 2.5 16.5 1.99999999999999
vertex 0.149999999999996 16.5 1.06303854607859e-15
vertex 2.5 16.5 1.06303854607859e-15
endloop
endfacet
facet normal 0.0 -1.0 -3.05311331771918e-16
outer loop
vertex 0.149999999999996 16.5 1.06303854607859e-15
vertex 2.5 16.5 1.99999999999999
vertex 0.149999999999996 16.5 1.99999999999999
endloop
endfacet
facet normal -1.0 0.0 0.0
outer loop
vertex 2.5 7.00000000000001 1.99999999999999
vertex 2.5 16.5 1.06303854607859e-15
vertex 2.5 7.0 -2.82551759767102e-15
endloop
endfacet
facet normal -1.0 0.0 0.0
outer loop
vertex 2.5 16.5 1.06303854607859e-15
vertex 2.5 7.00000000000001 1.99999999999999
vertex 2.5 16.5 1.99999999999999
endloop
endfacet
facet normal 0.0 1.0 3.05311331771918e-16
outer loop
vertex 0.149999999999996 7.00000000000001 1.99999999999999
vertex 2.5 7.0 -2.82551759767102e-15
vertex 0.149999999999996 7.0 -2.82551759767102e-15
endloop
endfacet
facet normal 0.0 1.0 3.05311331771918e-16
outer loop
vertex 2.5 7.0 -2.82551759767102e-15
vertex 0.149999999999996 7.00000000000001 1.99999999999999
vertex 2.5 7.00000000000001 1.99999999999999
endloop
endfacet
facet normal 1.0 0.0 0.0
outer loop
vertex 0.149999999999996 16.5 1.06303854607859e-15
vertex 0.149999999999996 7.00000000000001 1.99999999999999
vertex 0.149999999999996 7.0 -2.82551759767102e-15
endloop
endfacet
facet normal 1.0 0.0 0.0
outer loop
vertex 0.149999999999996 7.00000000000001 1.99999999999999
vertex 0.149999999999996 16.5 1.06303854607859e-15
vertex 0.149999999999996 16.5 1.99999999999999
endloop
endfacet
facet normal 7.42096442775762e-17 -1.0 -3.05311331771918e-16
outer loop
vertex 16.0 22.85 2.00000000000001
vertex 6.5 22.85 4.23550083894497e-15
vertex 16.0 22.85 4.23550083894497e-15
endloop
endfacet
facet normal 7.42096442775762e-17 -1.0 -3.05311331771918e-16
outer loop
vertex 6.5 22.85 4.23550083894497e-15
vertex 16.0 22.85 2.00000000000001
vertex 6.5 22.85 2.00000000000001
endloop
endfacet
facet normal -1.0 0.0 0.0
outer loop
vertex 16.0 22.85 2.00000000000001
vertex 16.0 20.5 3.44169137633798e-16
vertex 16.0 20.5 1.99999999999999
endloop
endfacet
facet normal -1.0 0.0 0.0
outer loop
vertex 16.0 20.5 3.44169137633798e-16
vertex 16.0 22.85 2.00000000000001
vertex 16.0 22.85 4.23550083894497e-15
endloop
endfacet
facet normal -1.48419288555152e-16 1.0 3.05311331771918e-16
outer loop
vertex 6.5 20.5 2.0
vertex 16.0 20.5 3.44169137633798e-16
vertex 6.5 20.5 -3.60822483003174e-16
endloop
endfacet
facet normal -1.48419288555152e-16 1.0 3.05311331771918e-16
outer loop
vertex 16.0 20.5 3.44169137633798e-16
vertex 6.5 20.5 2.0
vertex 16.0 20.5 1.99999999999999
endloop
endfacet
facet normal 1.0 0.0 0.0
outer loop
vertex 6.5 20.5 -3.60822483003174e-16
vertex 6.5 22.85 2.00000000000001
vertex 6.5 20.5 2.0
endloop
endfacet
facet normal 1.0 0.0 0.0
outer loop
vertex 6.5 22.85 2.00000000000001
vertex 6.5 20.5 -3.60822483003174e-16
vertex 6.5 22.85 4.23550083894497e-15
endloop
endfacet
facet normal 5.37136472866268e-16 -1.0 -3.05311331771918e-16
outer loop
vertex 7.24999999999997 2.25000000000001 1.99999999999994
vertex 2.0 2.25000000000001 -4.59354776438659e-15
vertex 7.24999999999999 2.25000000000001 -5.57054402605672e-14
endloop
endfacet
facet normal 5.37136472866268e-16 -1.0 -3.05311331771918e-16
outer loop
vertex 2.0 2.25000000000001 -4.59354776438659e-15
vertex 7.24999999999997 2.25000000000001 1.99999999999994
vertex 2.0 2.25000000000001 1.99999999999999
endloop
endfacet
facet normal 0.0 -1.0 -3.05311331771918e-16
outer loop
vertex 15.25 2.25000000000001 4.33458824389277e-14
vertex 7.24999999999997 2.25000000000001 1.99999999999994
vertex 7.24999999999999 2.25000000000001 -5.57054402605672e-14
endloop
endfacet
facet normal 0.0 -1.0 -3.05311331771918e-16
outer loop
vertex 7.24999999999997 2.25000000000001 1.99999999999994
vertex 15.25 2.25000000000001 4.33458824389277e-14
vertex 15.25 2.25 2.00000000000004
endloop
endfacet
facet normal 0.0 1.0 3.05311331771918e-16
outer loop
vertex 20.5 16.55 3.8
vertex 23.7 16.55 2.0
vertex 20.5 16.55 2.0
endloop
endfacet
facet normal 0.0 1.0 3.05311331771918e-16
outer loop
vertex 23.7 16.55 2.0
vertex 20.5 16.55 3.8
vertex 23.7 16.55 3.80000000000001
endloop
endfacet
facet normal 3.8145455213779e-10 -3.7817651787897e-10 -1.0
outer loop
vertex 18.0 21.25 2.0
vertex 19.2 20.05 2.0
vertex 17.2 20.05 2.0
endloop
endfacet
facet normal 3.8145455213779e-10 -3.7817651787897e-10 -1.0
outer loop
vertex 19.2 20.05 2.0
vertex 18.0 21.25 2.0
vertex 20.5 21.25 2.0
endloop
endfacet
facet normal 3.8145455213779e-10 -3.7817651787897e-10 -1.0
outer loop
vertex 19.2 20.05 2.0
vertex 20.5 21.25 2.0
vertex 19.2 19.05 2.0
endloop
endfacet
facet normal 3.8145455213779e-10 -3.7817651787897e-10 -1.0
outer loop
vertex 27.2 17.75 2.0
vertex 23.7 16.55 2.0
vertex 23.7 17.75 2.00000000000001
endloop
endfacet
facet normal 3.8145455213779e-10 -3.7817651787897e-10 -1.0
outer loop
vertex 23.7 16.55 2.0
vertex 27.2 17.75 2.0
vertex 25.2 15.75 2.0
endloop
endfacet
facet normal 3.8145455213779e-10 -3.7817651787897e-10 -1.0
outer loop
vertex 25.2 15.75 2.0
vertex 27.2 17.75 2.0
vertex 25.2 7.75 2.0
endloop
endfacet
facet normal 3.8145455213779e-10 -3.7817651787897e-10 -1.0
outer loop
vertex 17.2 4.45 1.99999999999999
vertex 18.7 7.75 2.0
vertex 19.2 4.45 1.99999999999999
endloop
endfacet
facet normal 3.8145455213779e-10 -3.7817651787897e-10 -1.0
outer loop
vertex 18.7 7.75 2.0
vertex 17.2 4.45 1.99999999999999
vertex 18.7 15.75 2.0
endloop
endfacet
facet normal 3.8145455213779e-10 -3.7817651787897e-10 -1.0
outer loop
vertex 19.2 4.45 1.99999999999999
vertex 18.7 7.75 2.0
vertex 20.5 6.95 1.99999999999999
endloop
endfacet
facet normal 3.8145455213779e-10 -3.7817651787897e-10 -1.0
outer loop
vertex 20.5 6.95 1.99999999999999
vertex 18.7 7.75 2.0
vertex 25.2 7.75 2.0
endloop
endfacet
facet normal 3.8145455213779e-10 -3.7817651787897e-10 -1.0
outer loop
vertex 19.2 4.45 1.99999999999999
vertex 20.5 6.95 1.99999999999999
vertex 19.2 3.45 1.99999999999999
endloop
endfacet
facet normal 3.8145455213779e-10 -3.7817651787897e-10 -1.0
outer loop
vertex 20.5 6.95 1.99999999999999
vertex 25.2 7.75 2.0
vertex 23.7 6.95 2.00000004768371
endloop
endfacet
facet normal 3.8145455213779e-10 -3.7817651787897e-10 -1.0
outer loop
vertex 23.7 6.95 2.00000004768371
vertex 25.2 7.75 2.0
vertex 23.7 5.75 2.00000004768371
endloop
endfacet
facet normal 3.8145455213779e-10 -3.7817651787897e-10 -1.0
outer loop
vertex 23.7 5.75 2.00000004768371
vertex 25.2 7.75 2.0
vertex 27.2 5.75 1.99999999999999
endloop
endfacet
facet normal 3.8145455213779e-10 -3.7817651787897e-10 -1.0
outer loop
vertex 27.2 5.75 1.99999999999999
vertex 25.2 7.75 2.0
vertex 27.2 17.75 2.0
endloop
endfacet
facet normal 3.8145455213779e-10 -3.7817651787897e-10 -1.0
outer loop
vertex 17.2 19.05 2.0
vertex 18.7 15.75 2.0
vertex 17.2 4.45 1.99999999999999
endloop
endfacet
facet normal 3.8145455213779e-10 -3.7817651787897e-10 -1.0
outer loop
vertex 18.7 15.75 2.0
vertex 17.2 19.05 2.0
vertex 19.2 19.05 2.0
endloop
endfacet
facet normal 3.8145455213779e-10 -3.7817651787897e-10 -1.0
outer loop
vertex 18.7 15.75 2.0
vertex 19.2 19.05 2.0
vertex 20.5 16.55 2.0
endloop
endfacet
facet normal 3.8145455213779e-10 -3.7817651787897e-10 -1.0
outer loop
vertex 18.7 15.75 2.0
vertex 20.5 16.55 2.0
vertex 25.2 15.75 2.0
endloop
endfacet
facet normal 3.8145455213779e-10 -3.7817651787897e-10 -1.0
outer loop
vertex 20.5 16.55 2.0
vertex 19.2 19.05 2.0
vertex 20.5 21.25 2.0
endloop
endfacet
facet normal 3.8145455213779e-10 -3.7817651787897e-10 -1.0
outer loop
vertex 20.5 16.55 2.0
vertex 20.5 21.25 2.0
vertex 20.5 17.75 2.0
endloop
endfacet
facet normal 3.8145455213779e-10 -3.7817651787897e-10 -1.0
outer loop
vertex 25.2 15.75 2.0
vertex 20.5 16.55 2.0
vertex 23.7 16.55 2.0
endloop
endfacet
facet normal 3.8145455213779e-10 -3.7817651787897e-10 -1.0
outer loop
vertex -0.100000000000004 5.00000000000001 2.0
vertex 0.149999999999996 7.00000000000001 1.99999999999999
vertex 2.0 5.00000000000001 2.0
endloop
endfacet
facet normal 3.8145455213779e-10 -3.7817651787897e-10 -1.0
outer loop
vertex 0.149999999999996 7.00000000000001 1.99999999999999
vertex -0.100000000000004 5.00000000000001 2.0
vertex 0.149999999999996 16.5 1.99999999999999
endloop
endfacet
facet normal 3.8145455213779e-10 -3.7817651787897e-10 -1.0
outer loop
vertex 2.0 5.00000000000001 2.0
vertex 0.149999999999996 7.00000000000001 1.99999999999999
vertex 2.5 7.00000000000001 1.99999999999999
endloop
endfacet
facet normal 3.8145455213779e-10 -3.7817651787897e-10 -1.0
outer loop
vertex 2.0 5.00000000000001 2.0
vertex 2.5 7.00000000000001 1.99999999999999
vertex 2.0 2.25000000000001 1.99999999999999
endloop
endfacet
facet normal 3.8145455213779e-10 -3.7817651787897e-10 -1.0
outer loop
vertex 2.0 2.25000000000001 1.99999999999999
vertex 2.5 7.00000000000001 1.99999999999999
vertex 3.9 3.45 1.99999999999999
endloop
endfacet
facet normal 3.8145455213779e-10 -3.7817651787897e-10 -1.0
outer loop
vertex 2.0 2.25000000000001 1.99999999999999
vertex 3.9 3.45 1.99999999999999
vertex 7.24999999999997 2.25000000000001 1.99999999999994
endloop
endfacet
facet normal 3.8145455213779e-10 -3.7817651787897e-10 -1.0
outer loop
vertex 3.9 3.45 1.99999999999999
vertex 2.5 7.00000000000001 1.99999999999999
vertex 3.9 20.05 2.0
endloop
endfacet
facet normal 3.8145455213779e-10 -3.7817651787897e-10 -1.0
outer loop
vertex 3.9 3.45 1.99999999999999
vertex 3.9 20.05 2.0
vertex 3.9 19.05 2.0
endloop
endfacet
facet normal 3.8145455213779e-10 -3.7817651787897e-10 -1.0
outer loop
vertex 3.9 3.45 1.99999999999999
vertex 3.9 19.05 2.0
vertex 3.9 4.45 1.99999999999999
endloop
endfacet
facet normal 3.8145455213779e-10 -3.7817651787897e-10 -1.0
outer loop
vertex 7.24999999999997 2.25000000000001 1.99999999999994
vertex 3.9 3.45 1.99999999999999
vertex 5.9 3.45 1.99999999999999
endloop
endfacet
facet normal 3.8145455213779e-10 -3.7817651787897e-10 -1.0
outer loop
vertex 7.24999999999997 2.25000000000001 1.99999999999994
vertex 5.9 3.45 1.99999999999999
vertex 5.9 4.45 1.99999999999999
endloop
endfacet
facet normal 3.8145455213779e-10 -3.7817651787897e-10 -1.0
outer loop
vertex 7.24999999999997 2.25000000000001 1.99999999999994
vertex 5.9 4.45 1.99999999999999
vertex 6.5 20.5 2.0
endloop
endfacet
facet normal 3.8145455213779e-10 -3.7817651787897e-10 -1.0
outer loop
vertex 6.5 20.5 2.0
vertex 5.9 4.45 1.99999999999999
vertex 6.5 22.85 2.00000000000001
endloop
endfacet
facet normal 3.8145455213779e-10 -3.7817651787897e-10 -1.0
outer loop
vertex 7.24999999999997 2.25000000000001 1.99999999999994
vertex 6.5 20.5 2.0
vertex 16.0 20.5 1.99999999999999
endloop
endfacet
facet normal 3.8145455213779e-10 -3.7817651787897e-10 -1.0
outer loop
vertex 7.24999999999997 2.25000000000001 1.99999999999994
vertex 16.0 20.5 1.99999999999999
vertex 15.25 2.25 2.00000000000004
endloop
endfacet
facet normal 3.8145455213779e-10 -3.7817651787897e-10 -1.0
outer loop
vertex 15.25 2.25 2.00000000000004
vertex 16.0 20.5 1.99999999999999
vertex 17.2 3.45 1.99999999999999
endloop
endfacet
facet normal 3.8145455213779e-10 -3.7817651787897e-10 -1.0
outer loop
vertex 15.25 2.25 2.00000000000004
vertex 17.2 3.45 1.99999999999999
vertex 20.5 2.25000000000001 1.99999999999999
endloop
endfacet
facet normal 3.8145455213779e-10 -3.7817651787897e-10 -1.0
outer loop
vertex 17.2 3.45 1.99999999999999
vertex 16.0 20.5 1.99999999999999
vertex 17.2 20.05 2.0
endloop
endfacet
facet normal 3.8145455213779e-10 -3.7817651787897e-10 -1.0
outer loop
vertex 17.2 3.45 1.99999999999999
vertex 17.2 20.05 2.0
vertex 17.2 19.05 2.0
endloop
endfacet
facet normal 3.8145455213779e-10 -3.7817651787897e-10 -1.0
outer loop
vertex 17.2 3.45 1.99999999999999
vertex 17.2 19.05 2.0
vertex 17.2 4.45 1.99999999999999
endloop
endfacet
facet normal 3.8145455213779e-10 -3.7817651787897e-10 -1.0
outer loop
vertex 20.5 2.25000000000001 1.99999999999999
vertex 17.2 3.45 1.99999999999999
vertex 19.2 3.45 1.99999999999999
endloop
endfacet
facet normal 3.8145455213779e-10 -3.7817651787897e-10 -1.0
outer loop
vertex 20.5 2.25000000000001 1.99999999999999
vertex 19.2 3.45 1.99999999999999
vertex 20.5 6.95 1.99999999999999
endloop
endfacet
facet normal 3.8145455213779e-10 -3.7817651787897e-10 -1.0
outer loop
vertex 20.5 2.25000000000001 1.99999999999999
vertex 20.5 6.95 1.99999999999999
vertex 20.5 5.75 1.99999999999999
endloop
endfacet
facet normal 3.8145455213779e-10 -3.7817651787897e-10 -1.0
outer loop
vertex 5.9 19.05 2.0
vertex 3.9 4.45 1.99999999999999
vertex 3.9 19.05 2.0
endloop
endfacet
facet normal 3.8145455213779e-10 -3.7817651787897e-10 -1.0
outer loop
vertex 3.9 4.45 1.99999999999999
vertex 5.9 19.05 2.0
vertex 5.9 4.45 1.99999999999999
endloop
endfacet
facet normal 3.8145455213779e-10 -3.7817651787897e-10 -1.0
outer loop
vertex 4.5 21.25 2.0
vertex 2.0 18.5 2.0
vertex 2.0 21.25 2.0
endloop
endfacet
facet normal 3.8145455213779e-10 -3.7817651787897e-10 -1.0
outer loop
vertex 2.0 18.5 2.0
vertex 4.5 21.25 2.0
vertex 3.9 20.05 2.0
endloop
endfacet
facet normal 3.8145455213779e-10 -3.7817651787897e-10 -1.0
outer loop
vertex 2.0 18.5 2.0
vertex 3.9 20.05 2.0
vertex 2.5 16.5 1.99999999999999
endloop
endfacet
facet normal 3.8145455213779e-10 -3.7817651787897e-10 -1.0
outer loop
vertex 2.5 16.5 1.99999999999999
vertex 3.9 20.05 2.0
vertex 2.5 7.00000000000001 1.99999999999999
endloop
endfacet
facet normal 3.8145455213779e-10 -3.7817651787897e-10 -1.0
outer loop
vertex 3.9 20.05 2.0
vertex 4.5 21.25 2.0
vertex 5.9 20.05 2.0
endloop
endfacet
facet normal 3.8145455213779e-10 -3.7817651787897e-10 -1.0
outer loop
vertex -1.85 18.5 2.0
vertex 0.149999999999996 16.5 1.99999999999999
vertex -1.85 5.00000000000001 2.0
endloop
endfacet
facet normal 3.8145455213779e-10 -3.7817651787897e-10 -1.0
outer loop
vertex 0.149999999999996 16.5 1.99999999999999
vertex -1.85 18.5 2.0
vertex 2.0 18.5 2.0
endloop
endfacet
facet normal 3.8145455213779e-10 -3.7817651787897e-10 -1.0
outer loop
vertex -1.85 5.00000000000001 2.0
vertex 0.149999999999996 16.5 1.99999999999999
vertex -0.100000000000004 5.00000000000001 2.0
endloop
endfacet
facet normal 3.8145455213779e-10 -3.7817651787897e-10 -1.0
outer loop
vertex 0.149999999999996 16.5 1.99999999999999
vertex 2.0 18.5 2.0
vertex 2.5 16.5 1.99999999999999
endloop
endfacet
facet normal 3.8145455213779e-10 -3.7817651787897e-10 -1.0
outer loop
vertex 4.5 24.85 2.0
vertex 6.5 22.85 2.00000000000001
vertex 4.5 21.25 2.0
endloop
endfacet
facet normal 3.8145455213779e-10 -3.7817651787897e-10 -1.0
outer loop
vertex 6.5 22.85 2.00000000000001
vertex 4.5 24.85 2.0
vertex 18.0 24.85 2.0
endloop
endfacet
facet normal 3.8145455213779e-10 -3.7817651787897e-10 -1.0
outer loop
vertex 4.5 21.25 2.0
vertex 6.5 22.85 2.00000000000001
vertex 5.9 20.05 2.0
endloop
endfacet
facet normal 3.8145455213779e-10 -3.7817651787897e-10 -1.0
outer loop
vertex 5.9 20.05 2.0
vertex 6.5 22.85 2.00000000000001
vertex 5.9 19.05 2.0
endloop
endfacet
facet normal 3.8145455213779e-10 -3.7817651787897e-10 -1.0
outer loop
vertex 5.9 19.05 2.0
vertex 6.5 22.85 2.00000000000001
vertex 5.9 4.45 1.99999999999999
endloop
endfacet
facet normal 3.8145455213779e-10 -3.7817651787897e-10 -1.0
outer loop
vertex 6.5 22.85 2.00000000000001
vertex 18.0 24.85 2.0
vertex 16.0 22.85 2.00000000000001
endloop
endfacet
facet normal 3.8145455213779e-10 -3.7817651787897e-10 -1.0
outer loop
vertex 16.0 22.85 2.00000000000001
vertex 18.0 24.85 2.0
vertex 16.0 20.5 1.99999999999999
endloop
endfacet
facet normal 3.8145455213779e-10 -3.7817651787897e-10 -1.0
outer loop
vertex 16.0 20.5 1.99999999999999
vertex 18.0 24.85 2.0
vertex 17.2 20.05 2.0
endloop
endfacet
facet normal 3.8145455213779e-10 -3.7817651787897e-10 -1.0
outer loop
vertex 17.2 20.05 2.0
vertex 18.0 24.85 2.0
vertex 18.0 21.25 2.0
endloop
endfacet
facet normal 3.08433834028676e-15 3.05311331771918e-16 -1.0
outer loop
vertex 23.7 17.75 5.80000000000001
vertex 20.5 16.25 5.8
vertex 20.5 17.75 5.8
endloop
endfacet
facet normal 3.08433834028676e-15 3.05311331771918e-16 -1.0
outer loop
vertex 20.5 16.25 5.8
vertex 23.7 17.75 5.80000000000001
vertex 23.7 16.25 5.80000000000001
endloop
endfacet
facet normal 3.08431221259243e-15 0.00576977683486526 -0.999983354699105
outer loop
vertex 23.7 16.25 3.80000000000001
vertex 20.5 15.5195508864057 3.79578540147207
vertex 20.5 16.25 3.8
endloop
endfacet
facet normal 3.08431221259243e-15 0.00576977683486526 -0.999983354699105
outer loop
vertex 20.5 15.5195508864057 3.79578540147207
vertex 23.7 16.25 3.80000000000001
vertex 23.7 15.5195508864057 3.79578540147209
endloop
endfacet
facet normal -1.0 1.26307764701981e-16 -2.96127675372323e-15
outer loop
vertex 23.7 16.25 5.80000000000001
vertex 23.7 16.25 3.80000000000001
vertex 23.7 15.5195508864057 3.79578540147209
endloop
endfacet
facet normal -1.0 1.26307764701981e-16 -2.96127675372323e-15
outer loop
vertex 23.7 16.25 3.80000000000001
vertex 23.7 16.25 5.80000000000001
vertex 23.7 17.75 5.80000000000001
endloop
endfacet
facet normal -1.0 1.26307764701981e-16 -2.96127675372323e-15
outer loop
vertex 23.7 16.25 3.80000000000001
vertex 23.7 17.75 5.80000000000001
vertex 23.7 16.55 3.80000000000001
endloop
endfacet
facet normal -1.0 1.26307764701981e-16 -2.96127675372323e-15
outer loop
vertex 23.7 16.55 3.80000000000001
vertex 23.7 17.75 2.00000000000001
vertex 23.7 16.55 2.0
endloop
endfacet
facet normal -1.0 1.26307764701981e-16 -2.96127675372323e-15
outer loop
vertex 23.7 17.75 2.00000000000001
vertex 23.7 16.55 3.80000000000001
vertex 23.7 17.75 5.80000000000001
endloop
endfacet
facet normal -1.05230779731605e-15 -0.939545687933125 0.342423568532119
outer loop
vertex 23.7 15.5195508864057 3.79578540147209
vertex 20.5 16.25 5.8
vertex 20.5 15.5195508864057 3.79578540147207
endloop
endfacet
facet normal -1.05230779731605e-15 -0.939545687933125 0.342423568532119
outer loop
vertex 20.5 16.25 5.8
vertex 23.7 15.5195508864057 3.79578540147209
vertex 23.7 16.25 5.80000000000001
endloop
endfacet
facet normal 1.0 -1.26307764701982e-16 2.96127675372323e-15
outer loop
vertex 20.5 17.75 2.0
vertex 20.5 16.55 3.8
vertex 20.5 16.55 2.0
endloop
endfacet
facet normal 1.0 -1.26307764701982e-16 2.96127675372323e-15
outer loop
vertex 20.5 16.25 3.8
vertex 20.5 16.25 5.8
vertex 20.5 15.5195508864057 3.79578540147207
endloop
endfacet
facet normal 1.0 -1.26307764701982e-16 2.96127675372323e-15
outer loop
vertex 20.5 16.25 5.8
vertex 20.5 16.25 3.8
vertex 20.5 16.55 3.8
endloop
endfacet
facet normal 1.0 -1.26307764701982e-16 2.96127675372323e-15
outer loop
vertex 20.5 16.25 5.8
vertex 20.5 16.55 3.8
vertex 20.5 17.75 5.8
endloop
endfacet
facet normal 1.0 -1.26307764701982e-16 2.96127675372323e-15
outer loop
vertex 20.5 17.75 5.8
vertex 20.5 16.55 3.8
vertex 20.5 17.75 2.0
endloop
endfacet
facet normal 1.4901160257097e-08 1.94289029309402e-16 -1.0
outer loop
vertex 23.6999999731779 7.8 3.8000000476837
vertex 20.4999999731779 6.95 3.79999999999999
vertex 20.4999999731779 7.8 3.79999999999999
endloop
endfacet
facet normal 1.4901160257097e-08 1.94289029309402e-16 -1.0
outer loop
vertex 20.4999999731779 6.95 3.79999999999999
vertex 23.6999999731779 7.8 3.8000000476837
vertex 23.6999999731779 6.95 3.8000000476837
endloop
endfacet
facet normal 0.0 -1.0 -3.05311331771918e-16
outer loop
vertex 23.7 6.95 2.00000004768371
vertex 20.4999999731779 6.95 3.79999999999999
vertex 20.5 6.95 1.99999999999999
endloop
endfacet
facet normal 0.0 -1.0 -3.05311331771918e-16
outer loop
vertex 20.4999999731779 6.95 3.79999999999999
vertex 23.7 6.95 2.00000004768371
vertex 23.6999999731779 6.95 3.8000000476837
endloop
endfacet
facet normal 1.4901160257097e-08 1.94289029309402e-16 -1.0
outer loop
vertex 23.6999999433756 7.25 5.8000000476837
vertex 20.4999999433756 5.75 5.79999999999999
vertex 20.4999999433756 7.25 5.79999999999999
endloop
endfacet
facet normal 1.4901160257097e-08 1.94289029309402e-16 -1.0
outer loop
vertex 20.4999999433756 5.75 5.79999999999999
vertex 23.6999999433756 7.25 5.8000000476837
vertex 23.6999999433756 5.75 5.80000004768371
endloop
endfacet
facet normal -1.0 -2.20688154451897e-16 -1.49011600129459e-08
outer loop
vertex 23.6999999433756 7.25 5.8000000476837
vertex 23.6999999731779 6.95 3.8000000476837
vertex 23.6999999433756 5.75 5.80000004768371
endloop
endfacet
facet normal -1.0 -2.20688154451897e-16 -1.49011600129459e-08
outer loop
vertex 23.6999999731779 6.95 3.8000000476837
vertex 23.6999999433756 7.25 5.8000000476837
vertex 23.6999999731779 7.8 3.8000000476837
endloop
endfacet
facet normal -1.0 -2.20688154451897e-16 -1.49011600129459e-08
outer loop
vertex 23.6999999433756 5.75 5.80000004768371
vertex 23.7 6.95 2.00000004768371
vertex 23.7 5.75 2.00000004768371
endloop
endfacet
facet normal -1.0 -2.20688154451897e-16 -1.49011600129459e-08
outer loop
vertex 23.7 6.95 2.00000004768371
vertex 23.6999999433756 5.75 5.80000004768371
vertex 23.6999999731779 6.95 3.8000000476837
endloop
endfacet
facet normal 3.95113925268437e-09 -0.964205392803791 -0.265156483021042
outer loop
vertex 23.6999999731779 7.8 3.8000000476837
vertex 20.4999999433756 7.25 5.79999999999999
vertex 20.4999999731779 7.8 3.79999999999999
endloop
endfacet
facet normal 3.95113925268437e-09 -0.964205392803791 -0.265156483021042
outer loop
vertex 20.4999999433756 7.25 5.79999999999999
vertex 23.6999999731779 7.8 3.8000000476837
vertex 23.6999999433756 7.25 5.8000000476837
endloop
endfacet
facet normal 1.0 2.75540568987256e-15 1.49011591547638e-08
outer loop
vertex 20.5 6.95 1.99999999999999
vertex 20.4999999433756 5.75 5.79999999999999
vertex 20.5 5.75 1.99999999999999
endloop
endfacet
facet normal 1.0 2.75540568987256e-15 1.49011591547638e-08
outer loop
vertex 20.4999999433756 5.75 5.79999999999999
vertex 20.5 6.95 1.99999999999999
vertex 20.4999999731779 6.95 3.79999999999999
endloop
endfacet
facet normal 1.0 2.75540568987256e-15 1.49011591547638e-08
outer loop
vertex 20.4999999731779 6.95 3.79999999999999
vertex 20.4999999433756 7.25 5.79999999999999
vertex 20.4999999433756 5.75 5.79999999999999
endloop
endfacet
facet normal 1.0 2.75540568987256e-15 1.49011591547638e-08
outer loop
vertex 20.4999999433756 7.25 5.79999999999999
vertex 20.4999999731779 6.95 3.79999999999999
vertex 20.4999999731779 7.8 3.79999999999999
endloop
endfacet
facet normal -3.08433834028676e-15 -3.05311331771918e-16 1.0
outer loop
vertex 23.7 16.25 3.80000000000001
vertex 20.5 16.55 3.8
vertex 20.5 16.25 3.8
endloop
endfacet
facet normal -3.08433834028676e-15 -3.05311331771918e-16 1.0
outer loop
vertex 20.5 16.55 3.8
vertex 23.7 16.25 3.80000000000001
vertex 23.7 16.55 3.80000000000001
endloop
endfacet
facet normal 0.0 -1.0 -3.05311331771918e-16
outer loop
vertex 15.25 2.25 2.00000000000004
vertex 7.24999999999983 2.25 13.2
vertex 7.24999999999997 2.25000000000001 1.99999999999994
endloop
endfacet
facet normal 0.0 -1.0 -3.05311331771918e-16
outer loop
vertex 7.24999999999983 2.25 13.2
vertex 15.25 2.25 2.00000000000004
vertex 15.2499999999998 2.24999999999999 13.7
endloop
endfacet
facet normal 0.0 -1.0 -3.05311331771918e-16
outer loop
vertex 7.24999999999983 2.25 13.2
vertex 15.2499999999998 2.24999999999999 13.7
vertex 7.24999999999983 2.25 13.6999999999999
endloop
endfacet
facet normal 1.20181642415673e-14 3.05311331771918e-16 -1.0
outer loop
vertex 15.25 2.25000000000001 4.33458824389277e-14
vertex 7.24999999999999 0.25000000000001 -5.30547827892747e-14
vertex 7.24999999999999 2.25000000000001 -5.57054402605672e-14
endloop
endfacet
facet normal 1.20181642415673e-14 3.05311331771918e-16 -1.0
outer loop
vertex 7.24999999999999 0.25000000000001 -5.30547827892747e-14
vertex 15.25 2.25000000000001 4.33458824389277e-14
vertex 15.25 0.250000000000009 4.17665901863984e-14
endloop
endfacet
facet normal -9.53465074521609e-15 -0.608761429008723 0.793353340291233
outer loop
vertex 15.2499999999998 2.39644660940673 14.0535533905933
vertex 7.24999999999982 2.5 14.1330127018922
vertex 7.24999999999982 2.39644660940673 14.0535533905932
endloop
endfacet
facet normal -9.53465074521609e-15 -0.608761429008723 0.793353340291233
outer loop
vertex 7.24999999999982 2.5 14.1330127018922
vertex 15.2499999999998 2.39644660940673 14.0535533905933
vertex 15.2499999999998 2.49999999999999 14.1330127018923
endloop
endfacet
facet normal 0.0 -1.0 -3.05311331771918e-16
outer loop
vertex 15.2499999999998 0.249999999999996 14.2
vertex 7.2499999999998 0.25 16.1999999999999
vertex 7.24999999999982 0.250000000000006 14.1999999999999
endloop
endfacet
facet normal 0.0 -1.0 -3.05311331771918e-16
outer loop
vertex 7.2499999999998 0.25 16.1999999999999
vertex 15.2499999999998 0.249999999999996 14.2
vertex 15.2499999999998 0.249999999999996 16.2
endloop
endfacet
facet normal -1.19848575508286e-14 -3.05311331771918e-16 1.0
outer loop
vertex 15.2499999999998 0.249999999999996 16.2
vertex 7.2499999999998 2.25 16.1999999999999
vertex 7.2499999999998 0.25 16.1999999999999
endloop
endfacet
facet normal -1.19848575508286e-14 -3.05311331771918e-16 1.0
outer loop
vertex 7.2499999999998 2.25 16.1999999999999
vertex 15.2499999999998 0.249999999999996 16.2
vertex 15.2499999999998 2.25 16.2
endloop
endfacet
facet normal -1.20181642415673e-14 -3.05311331771918e-16 1.0
outer loop
vertex 15.2499999999998 3.25 14.2
vertex 7.24999999999982 3.75 14.1999999999999
vertex 7.24999999999982 3.25 14.1999999999999
endloop
endfacet
facet normal -1.20181642415673e-14 -3.05311331771918e-16 1.0
outer loop
vertex 7.24999999999982 3.75 14.1999999999999
vertex 15.2499999999998 3.25 14.2
vertex 15.2499999999998 3.75 14.2
endloop
endfacet
facet normal -4.59915234269028e-15 -0.92387953251129 0.382683432365082
outer loop
vertex 15.2499999999998 2.26703708685547 13.8294095225513
vertex 7.24999999999982 2.31698729810777 13.9499999999999
vertex 7.24999999999983 2.26703708685547 13.8294095225512
endloop
endfacet
facet normal -4.59915234269028e-15 -0.92387953251129 0.382683432365082
outer loop
vertex 7.24999999999982 2.31698729810777 13.9499999999999
vertex 15.2499999999998 2.26703708685547 13.8294095225513
vertex 15.2499999999998 2.31698729810778 13.95
endloop
endfacet
facet normal 1.54282601780432e-30 -1.0 -4.71844785465692e-16
outer loop
vertex 15.25 0.250000000000009 4.17665901863984e-14
vertex 7.24999999999982 0.250000000000006 14.1999999999999
vertex 7.24999999999999 0.25000000000001 -5.30547827892747e-14
endloop
endfacet
facet normal 1.54282601780432e-30 -1.0 -4.71844785465692e-16
outer loop
vertex 7.24999999999982 0.250000000000006 14.1999999999999
vertex 15.25 0.250000000000009 4.17665901863984e-14
vertex 15.2499999999998 0.249999999999996 14.2
endloop
endfacet
facet normal -1.20181642415673e-14 -3.05311331771918e-16 1.0
outer loop
vertex 15.2499999999998 2.74999999999999 14.2
vertex 7.24999999999982 3.25 14.1999999999999
vertex 7.24999999999982 2.74999999999999 14.1999999999999
endloop
endfacet
facet normal -1.20181642415673e-14 -3.05311331771918e-16 1.0
outer loop
vertex 7.24999999999982 3.25 14.1999999999999
vertex 15.2499999999998 2.74999999999999 14.2
vertex 15.2499999999998 3.25 14.2
endloop
endfacet
facet normal -1.11033359611431e-14 -0.382683432365096 0.923879532511285
outer loop
vertex 7.24999999999982 2.5 14.1330127018922
vertex 15.2499999999998 2.62059047744874 14.1829629131446
vertex 7.24999999999982 2.62059047744874 14.1829629131445
endloop
endfacet
facet normal -1.11033359611431e-14 -0.382683432365096 0.923879532511285
outer loop
vertex 15.2499999999998 2.62059047744874 14.1829629131446
vertex 7.24999999999982 2.5 14.1330127018922
vertex 15.2499999999998 2.49999999999999 14.1330127018923
endloop
endfacet
facet normal -1.56868521592697e-15 -0.99144486137381 0.130526192220052
outer loop
vertex 15.2499999999998 2.24999999999999 13.7
vertex 7.24999999999983 2.26703708685547 13.8294095225512
vertex 7.24999999999983 2.25 13.6999999999999
endloop
endfacet
facet normal -1.56868521592697e-15 -0.99144486137381 0.130526192220052
outer loop
vertex 7.24999999999983 2.26703708685547 13.8294095225512
vertex 15.2499999999998 2.24999999999999 13.7
vertex 15.2499999999998 2.26703708685547 13.8294095225513
endloop
endfacet
facet normal -1.19153471804484e-14 -0.130526192220051 0.991444861373811
outer loop
vertex 15.2499999999998 2.62059047744874 14.1829629131446
vertex 7.24999999999982 2.74999999999999 14.1999999999999
vertex 7.24999999999982 2.62059047744874 14.1829629131445
endloop
endfacet
facet normal -1.19153471804484e-14 -0.130526192220051 0.991444861373811
outer loop
vertex 7.24999999999982 2.74999999999999 14.1999999999999
vertex 15.2499999999998 2.62059047744874 14.1829629131446
vertex 15.2499999999998 2.74999999999999 14.2
endloop
endfacet
facet normal -7.3161948377581e-15 -0.793353340291231 0.608761429008726
outer loop
vertex 15.2499999999998 2.31698729810778 13.95
vertex 7.24999999999982 2.39644660940673 14.0535533905932
vertex 7.24999999999982 2.31698729810777 13.9499999999999
endloop
endfacet
facet normal -7.3161948377581e-15 -0.793353340291231 0.608761429008726
outer loop
vertex 7.24999999999982 2.39644660940673 14.0535533905932
vertex 15.2499999999998 2.31698729810778 13.95
vertex 15.2499999999998 2.39644660940673 14.0535533905933
endloop
endfacet
facet normal 7.19069422061569e-15 -0.8 -0.6
outer loop
vertex 15.2499999999998 3.75 14.2
vertex 7.2499999999998 2.25 16.1999999999999
vertex 7.24999999999982 3.75 14.1999999999999
endloop
endfacet
facet normal 7.19069422061569e-15 -0.8 -0.6
outer loop
vertex 7.2499999999998 2.25 16.1999999999999
vertex 15.2499999999998 3.75 14.2
vertex 15.2499999999998 2.25 16.2
endloop
endfacet
facet normal -1.0 1.89286912428654e-16 -1.205462501722e-14
outer loop
vertex 7.2499999999998 2.25 16.1999999999999
vertex 7.24999999999982 0.250000000000006 14.1999999999999
vertex 7.2499999999998 0.25 16.1999999999999
endloop
endfacet
facet normal -1.0 1.89286912428654e-16 -1.205462501722e-14
outer loop
vertex 7.24999999999982 0.250000000000006 14.1999999999999
vertex 7.2499999999998 2.25 16.1999999999999
vertex 7.24999999999999 0.25000000000001 -5.30547827892747e-14
endloop
endfacet
facet normal -1.0 1.89286912428654e-16 -1.205462501722e-14
outer loop
vertex 7.24999999999999 0.25000000000001 -5.30547827892747e-14
vertex 7.2499999999998 2.25 16.1999999999999
vertex 7.24999999999983 2.25 13.2
endloop
endfacet
facet normal -1.0 1.89286912428654e-16 -1.205462501722e-14
outer loop
vertex 7.24999999999983 2.25 13.2
vertex 7.2499999999998 2.25 16.1999999999999
vertex 7.24999999999983 2.25 13.6999999999999
endloop
endfacet
facet normal -1.0 1.89286912428654e-16 -1.205462501722e-14
outer loop
vertex 7.24999999999983 2.25 13.6999999999999
vertex 7.2499999999998 2.25 16.1999999999999
vertex 7.24999999999983 2.26703708685547 13.8294095225512
endloop
endfacet
facet normal -1.0 1.89286912428654e-16 -1.205462501722e-14
outer loop
vertex 7.24999999999983 2.26703708685547 13.8294095225512
vertex 7.2499999999998 2.25 16.1999999999999
vertex 7.24999999999982 2.31698729810777 13.9499999999999
endloop
endfacet
facet normal -1.0 1.89286912428654e-16 -1.205462501722e-14
outer loop
vertex 7.24999999999982 2.31698729810777 13.9499999999999
vertex 7.2499999999998 2.25 16.1999999999999
vertex 7.24999999999982 2.39644660940673 14.0535533905932
endloop
endfacet
facet normal -1.0 1.89286912428654e-16 -1.205462501722e-14
outer loop
vertex 7.24999999999982 2.39644660940673 14.0535533905932
vertex 7.2499999999998 2.25 16.1999999999999
vertex 7.24999999999982 2.5 14.1330127018922
endloop
endfacet
facet normal -1.0 1.89286912428654e-16 -1.205462501722e-14
outer loop
vertex 7.24999999999982 2.5 14.1330127018922
vertex 7.2499999999998 2.25 16.1999999999999
vertex 7.24999999999982 2.62059047744874 14.1829629131445
endloop
endfacet
facet normal -1.0 1.89286912428654e-16 -1.205462501722e-14
outer loop
vertex 7.24999999999982 2.62059047744874 14.1829629131445
vertex 7.2499999999998 2.25 16.1999999999999
vertex 7.24999999999982 2.74999999999999 14.1999999999999
endloop
endfacet
facet normal -1.0 1.89286912428654e-16 -1.205462501722e-14
outer loop
vertex 7.24999999999982 2.74999999999999 14.1999999999999
vertex 7.2499999999998 2.25 16.1999999999999
vertex 7.24999999999982 3.25 14.1999999999999
endloop
endfacet
facet normal -1.0 1.89286912428654e-16 -1.205462501722e-14
outer loop
vertex 7.24999999999982 3.25 14.1999999999999
vertex 7.2499999999998 2.25 16.1999999999999
vertex 7.24999999999982 3.75 14.1999999999999
endloop
endfacet
facet normal -1.0 1.89286912428654e-16 -1.205462501722e-14
outer loop
vertex 7.24999999999983 2.25 13.2
vertex 7.24999999999999 2.25000000000001 -5.57054402605672e-14
vertex 7.24999999999999 0.25000000000001 -5.30547827892747e-14
endloop
endfacet
facet normal -1.0 1.89286912428654e-16 -1.205462501722e-14
outer loop
vertex 7.24999999999999 2.25000000000001 -5.57054402605672e-14
vertex 7.24999999999983 2.25 13.2
vertex 7.24999999999997 2.25000000000001 1.99999999999994
endloop
endfacet
facet normal 1.0 -2.85485316501355e-16 1.20652224608218e-14
outer loop
vertex 15.25 2.25000000000001 4.33458824389277e-14
vertex 15.2499999999998 2.24999999999999 13.7
vertex 15.25 0.250000000000009 4.17665901863984e-14
endloop
endfacet
facet normal 1.0 -2.85485316501355e-16 1.20652224608218e-14
outer loop
vertex 15.2499999999998 2.24999999999999 13.7
vertex 15.25 2.25000000000001 4.33458824389277e-14
vertex 15.25 2.25 2.00000000000004
endloop
endfacet
facet normal 1.0 -2.85485316501355e-16 1.20652224608218e-14
outer loop
vertex 15.25 0.250000000000009 4.17665901863984e-14
vertex 15.2499999999998 0.249999999999996 16.2
vertex 15.2499999999998 0.249999999999996 14.2
endloop
endfacet
facet normal 1.0 -2.85485316501355e-16 1.20652224608218e-14
outer loop
vertex 15.2499999999998 0.249999999999996 16.2
vertex 15.25 0.250000000000009 4.17665901863984e-14
vertex 15.2499999999998 2.25 16.2
endloop
endfacet
facet normal 1.0 -2.85485316501355e-16 1.20652224608218e-14
outer loop
vertex 15.2499999999998 2.25 16.2
vertex 15.25 0.250000000000009 4.17665901863984e-14
vertex 15.2499999999998 2.24999999999999 13.7
endloop
endfacet
facet normal 1.0 -2.85485316501355e-16 1.20652224608218e-14
outer loop
vertex 15.2499999999998 2.25 16.2
vertex 15.2499999999998 2.24999999999999 13.7
vertex 15.2499999999998 2.26703708685547 13.8294095225513
endloop
endfacet
facet normal 1.0 -2.85485316501355e-16 1.20652224608218e-14
outer loop
vertex 15.2499999999998 2.25 16.2
vertex 15.2499999999998 2.26703708685547 13.8294095225513
vertex 15.2499999999998 2.31698729810778 13.95
endloop
endfacet
facet normal 1.0 -2.85485316501355e-16 1.20652224608218e-14
outer loop
vertex 15.2499999999998 2.25 16.2
vertex 15.2499999999998 2.31698729810778 13.95
vertex 15.2499999999998 2.39644660940673 14.0535533905933
endloop
endfacet
facet normal 1.0 -2.85485316501355e-16 1.20652224608218e-14
outer loop
vertex 15.2499999999998 2.25 16.2
vertex 15.2499999999998 2.39644660940673 14.0535533905933
vertex 15.2499999999998 2.49999999999999 14.1330127018923
endloop
endfacet
facet normal 1.0 -2.85485316501355e-16 1.20652224608218e-14
outer loop
vertex 15.2499999999998 2.25 16.2
vertex 15.2499999999998 2.49999999999999 14.1330127018923
vertex 15.2499999999998 2.62059047744874 14.1829629131446
endloop
endfacet
facet normal 1.0 -2.85485316501355e-16 1.20652224608218e-14
outer loop
vertex 15.2499999999998 2.25 16.2
vertex 15.2499999999998 2.62059047744874 14.1829629131446
vertex 15.2499999999998 2.74999999999999 14.2
endloop
endfacet
facet normal 1.0 -2.85485316501355e-16 1.20652224608218e-14
outer loop
vertex 15.2499999999998 2.25 16.2
vertex 15.2499999999998 2.74999999999999 14.2
vertex 15.2499999999998 3.75 14.2
endloop
endfacet
facet normal 1.0 -2.85485316501355e-16 1.20652224608218e-14
outer loop
vertex 15.2499999999998 3.75 14.2
vertex 15.2499999999998 2.74999999999999 14.2
vertex 15.2499999999998 3.25 14.2
endloop
endfacet
endsolid JoystickMountV1
