solid 26mm hollow cube
facet normal 0.0 0.0 -1.0
outer loop
vertex 26.0 18.0 2.0
vertex 18.0 8.0 2.0
vertex 18.0 18.0 2.0
endloop
endfacet
facet normal 0.0 0.0 -1.0
outer loop
vertex 18.0 8.0 2.0
vertex 26.0 18.0 2.0
vertex 26.0 8.0 2.0
endloop
endfacet
facet normal 0.0 0.0 -1.0
outer loop
vertex 18.0 26.0 2.0
vertex 8.0 18.0 2.0
vertex 8.0 26.0 2.0
endloop
endfacet
facet normal 0.0 0.0 -1.0
outer loop
vertex 8.0 18.0 2.0
vertex 18.0 26.0 2.0
vertex 8.0 8.0 2.0
endloop
endfacet
facet normal 0.0 0.0 -1.0
outer loop
vertex 8.0 8.0 2.0
vertex 18.0 26.0 2.0
vertex 8.0 0.0 2.0
endloop
endfacet
facet normal 0.0 0.0 -1.0
outer loop
vertex 8.0 0.0 2.0
vertex 18.0 26.0 2.0
vertex 18.0 0.0 2.0
endloop
endfacet
facet normal 0.0 0.0 -1.0
outer loop
vertex 18.0 0.0 2.0
vertex 18.0 26.0 2.0
vertex 18.0 18.0 2.0
endloop
endfacet
facet normal 0.0 0.0 -1.0
outer loop
vertex 18.0 0.0 2.0
vertex 18.0 18.0 2.0
vertex 18.0 8.0 2.0
endloop
endfacet
facet normal 0.0 0.0 -1.0
outer loop
vertex 8.0 18.0 2.0
vertex 0.0 8.0 2.0
vertex 0.0 18.0 2.0
endloop
endfacet
facet normal 0.0 0.0 -1.0
outer loop
vertex 0.0 8.0 2.0
vertex 8.0 18.0 2.0
vertex 8.0 8.0 2.0
endloop
endfacet
facet normal 0.0 -1.0 0.0
outer loop
vertex 26.0 26.0 0.0
vertex 18.0 26.0 2.0
vertex 0.0 26.0 0.0
endloop
endfacet
facet normal 0.0 -1.0 0.0
outer loop
vertex 18.0 26.0 2.0
vertex 26.0 26.0 0.0
vertex 26.0 26.0 12.0
endloop
endfacet
facet normal 0.0 -1.0 0.0
outer loop
vertex 18.0 26.0 2.0
vertex 26.0 26.0 12.0
vertex 18.0 26.0 10.0
endloop
endfacet
facet normal 0.0 -1.0 0.0
outer loop
vertex 18.0 26.0 10.0
vertex 26.0 26.0 12.0
vertex 8.0 26.0 10.0
endloop
endfacet
facet normal 0.0 -1.0 0.0
outer loop
vertex 0.0 26.0 0.0
vertex 8.0 26.0 2.0
vertex 0.0 26.0 12.0
endloop
endfacet
facet normal 0.0 -1.0 0.0
outer loop
vertex 8.0 26.0 2.0
vertex 0.0 26.0 0.0
vertex 18.0 26.0 2.0
endloop
endfacet
facet normal 0.0 -1.0 0.0
outer loop
vertex 0.0 26.0 12.0
vertex 8.0 26.0 2.0
vertex 8.0 26.0 10.0
endloop
endfacet
facet normal 0.0 -1.0 0.0
outer loop
vertex 0.0 26.0 12.0
vertex 8.0 26.0 10.0
vertex 26.0 26.0 12.0
endloop
endfacet
facet normal -1.0 0.0 0.0
outer loop
vertex 8.0 26.0 10.0
vertex 8.0 18.0 2.0
vertex 8.0 18.0 10.0
endloop
endfacet
facet normal -1.0 0.0 0.0
outer loop
vertex 8.0 18.0 2.0
vertex 8.0 26.0 10.0
vertex 8.0 26.0 2.0
endloop
endfacet
facet normal -0.0 1.0 -0.0
outer loop
vertex 0.0 18.0 10.0
vertex 8.0 18.0 2.0
vertex 0.0 18.0 2.0
endloop
endfacet
facet normal -0.0 1.0 -0.0
outer loop
vertex 8.0 18.0 2.0
vertex 0.0 18.0 10.0
vertex 8.0 18.0 10.0
endloop
endfacet
facet normal -1.0 0.0 0.0
outer loop
vertex 26.0 0.0 12.0
vertex 26.0 8.0 10.0
vertex 26.0 0.0 0.0
endloop
endfacet
facet normal -1.0 0.0 0.0
outer loop
vertex 26.0 8.0 10.0
vertex 26.0 0.0 12.0
vertex 26.0 26.0 12.0
endloop
endfacet
facet normal -1.0 0.0 0.0
outer loop
vertex 26.0 8.0 10.0
vertex 26.0 26.0 12.0
vertex 26.0 18.0 10.0
endloop
endfacet
facet normal -1.0 0.0 0.0
outer loop
vertex 26.0 18.0 10.0
vertex 26.0 26.0 12.0
vertex 26.0 18.0 2.0
endloop
endfacet
facet normal -1.0 0.0 0.0
outer loop
vertex 26.0 0.0 0.0
vertex 26.0 8.0 2.0
vertex 26.0 26.0 0.0
endloop
endfacet
facet normal -1.0 0.0 0.0
outer loop
vertex 26.0 8.0 2.0
vertex 26.0 0.0 0.0
vertex 26.0 8.0 10.0
endloop
endfacet
facet normal -1.0 0.0 0.0
outer loop
vertex 26.0 26.0 0.0
vertex 26.0 8.0 2.0
vertex 26.0 18.0 2.0
endloop
endfacet
facet normal -1.0 0.0 0.0
outer loop
vertex 26.0 26.0 0.0
vertex 26.0 18.0 2.0
vertex 26.0 26.0 12.0
endloop
endfacet
facet normal -0.0 1.0 -0.0
outer loop
vertex 18.0 18.0 10.0
vertex 26.0 18.0 2.0
vertex 18.0 18.0 2.0
endloop
endfacet
facet normal -0.0 1.0 -0.0
outer loop
vertex 26.0 18.0 2.0
vertex 18.0 18.0 10.0
vertex 26.0 18.0 10.0
endloop
endfacet
facet normal 1.0 -0.0 -0.0
outer loop
vertex 18.0 26.0 2.0
vertex 18.0 18.0 10.0
vertex 18.0 18.0 2.0
endloop
endfacet
facet normal 1.0 -0.0 -0.0
outer loop
vertex 18.0 18.0 10.0
vertex 18.0 26.0 2.0
vertex 18.0 26.0 10.0
endloop
endfacet
facet normal 1.0 -0.0 -0.0
outer loop
vertex 18.0 8.0 2.0
vertex 18.0 0.0 10.0
vertex 18.0 0.0 2.0
endloop
endfacet
facet normal 1.0 -0.0 -0.0
outer loop
vertex 18.0 0.0 10.0
vertex 18.0 8.0 2.0
vertex 18.0 8.0 10.0
endloop
endfacet
facet normal 0.0 -1.0 0.0
outer loop
vertex 26.0 8.0 10.0
vertex 18.0 8.0 2.0
vertex 26.0 8.0 2.0
endloop
endfacet
facet normal 0.0 -1.0 0.0
outer loop
vertex 18.0 8.0 2.0
vertex 26.0 8.0 10.0
vertex 18.0 8.0 10.0
endloop
endfacet
facet normal 1.0 -0.0 -0.0
outer loop
vertex 0.0 0.0 0.0
vertex 0.0 8.0 2.0
vertex 0.0 0.0 12.0
endloop
endfacet
facet normal 1.0 -0.0 -0.0
outer loop
vertex 0.0 8.0 2.0
vertex 0.0 0.0 0.0
vertex 0.0 26.0 0.0
endloop
endfacet
facet normal 1.0 -0.0 -0.0
outer loop
vertex 0.0 8.0 2.0
vertex 0.0 26.0 0.0
vertex 0.0 18.0 2.0
endloop
endfacet
facet normal 1.0 -0.0 -0.0
outer loop
vertex 0.0 18.0 2.0
vertex 0.0 26.0 0.0
vertex 0.0 18.0 10.0
endloop
endfacet
facet normal 1.0 -0.0 -0.0
outer loop
vertex 0.0 0.0 12.0
vertex 0.0 8.0 10.0
vertex 0.0 26.0 12.0
endloop
endfacet
facet normal 1.0 -0.0 -0.0
outer loop
vertex 0.0 8.0 10.0
vertex 0.0 0.0 12.0
vertex 0.0 8.0 2.0
endloop
endfacet
facet normal 1.0 -0.0 -0.0
outer loop
vertex 0.0 26.0 12.0
vertex 0.0 8.0 10.0
vertex 0.0 18.0 10.0
endloop
endfacet
facet normal 1.0 -0.0 -0.0
outer loop
vertex 0.0 26.0 12.0
vertex 0.0 18.0 10.0
vertex 0.0 26.0 0.0
endloop
endfacet
facet normal 0.0 -1.0 0.0
outer loop
vertex 8.0 8.0 10.0
vertex 0.0 8.0 2.0
vertex 8.0 8.0 2.0
endloop
endfacet
facet normal 0.0 -1.0 0.0
outer loop
vertex 0.0 8.0 2.0
vertex 8.0 8.0 10.0
vertex 0.0 8.0 10.0
endloop
endfacet
facet normal -1.0 0.0 0.0
outer loop
vertex 8.0 8.0 10.0
vertex 8.0 0.0 2.0
vertex 8.0 0.0 10.0
endloop
endfacet
facet normal -1.0 0.0 0.0
outer loop
vertex 8.0 0.0 2.0
vertex 8.0 8.0 10.0
vertex 8.0 8.0 2.0
endloop
endfacet
facet normal -0.0 1.0 -0.0
outer loop
vertex 0.0 0.0 0.0
vertex 8.0 0.0 2.0
vertex 26.0 0.0 0.0
endloop
endfacet
facet normal -0.0 1.0 -0.0
outer loop
vertex 8.0 0.0 2.0
vertex 0.0 0.0 0.0
vertex 0.0 0.0 12.0
endloop
endfacet
facet normal -0.0 1.0 -0.0
outer loop
vertex 8.0 0.0 2.0
vertex 0.0 0.0 12.0
vertex 8.0 0.0 10.0
endloop
endfacet
facet normal -0.0 1.0 -0.0
outer loop
vertex 8.0 0.0 10.0
vertex 0.0 0.0 12.0
vertex 18.0 0.0 10.0
endloop
endfacet
facet normal -0.0 1.0 -0.0
outer loop
vertex 26.0 0.0 0.0
vertex 18.0 0.0 2.0
vertex 26.0 0.0 12.0
endloop
endfacet
facet normal -0.0 1.0 -0.0
outer loop
vertex 18.0 0.0 2.0
vertex 26.0 0.0 0.0
vertex 8.0 0.0 2.0
endloop
endfacet
facet normal -0.0 1.0 -0.0
outer loop
vertex 26.0 0.0 12.0
vertex 18.0 0.0 2.0
vertex 18.0 0.0 10.0
endloop
endfacet
facet normal -0.0 1.0 -0.0
outer loop
vertex 26.0 0.0 12.0
vertex 18.0 0.0 10.0
vertex 0.0 0.0 12.0
endloop
endfacet
facet normal -0.0 -0.0 1.0
outer loop
vertex 26.0 0.0 0.0
vertex 0.0 26.0 0.0
vertex 0.0 0.0 0.0
endloop
endfacet
facet normal -0.0 -0.0 1.0
outer loop
vertex 0.0 26.0 0.0
vertex 26.0 0.0 0.0
vertex 26.0 26.0 0.0
endloop
endfacet
facet normal 0.0 0.0 -1.0
outer loop
vertex 26.0 26.0 12.0
vertex 0.0 0.0 12.0
vertex 0.0 26.0 12.0
endloop
endfacet
facet normal 0.0 0.0 -1.0
outer loop
vertex 0.0 0.0 12.0
vertex 26.0 26.0 12.0
vertex 26.0 0.0 12.0
endloop
endfacet
facet normal 0.0 0.0 -1.0
outer loop
vertex 26.0 18.0 10.0
vertex 18.0 8.0 10.0
vertex 18.0 18.0 10.0
endloop
endfacet
facet normal 0.0 0.0 -1.0
outer loop
vertex 18.0 8.0 10.0
vertex 26.0 18.0 10.0
vertex 26.0 8.0 10.0
endloop
endfacet
facet normal 0.0 0.0 -1.0
outer loop
vertex 18.0 26.0 10.0
vertex 8.0 18.0 10.0
vertex 8.0 26.0 10.0
endloop
endfacet
facet normal 0.0 0.0 -1.0
outer loop
vertex 8.0 18.0 10.0
vertex 18.0 26.0 10.0
vertex 8.0 8.0 10.0
endloop
endfacet
facet normal 0.0 0.0 -1.0
outer loop
vertex 8.0 8.0 10.0
vertex 18.0 26.0 10.0
vertex 8.0 0.0 10.0
endloop
endfacet
facet normal 0.0 0.0 -1.0
outer loop
vertex 8.0 0.0 10.0
vertex 18.0 26.0 10.0
vertex 18.0 0.0 10.0
endloop
endfacet
facet normal 0.0 0.0 -1.0
outer loop
vertex 18.0 0.0 10.0
vertex 18.0 26.0 10.0
vertex 18.0 18.0 10.0
endloop
endfacet
facet normal 0.0 0.0 -1.0
outer loop
vertex 18.0 0.0 10.0
vertex 18.0 18.0 10.0
vertex 18.0 8.0 10.0
endloop
endfacet
facet normal 0.0 0.0 -1.0
outer loop
vertex 8.0 18.0 10.0
vertex 0.0 8.0 10.0
vertex 0.0 18.0 10.0
endloop
endfacet
facet normal 0.0 0.0 -1.0
outer loop
vertex 0.0 8.0 10.0
vertex 8.0 18.0 10.0
vertex 8.0 8.0 10.0
endloop
endfacet
endsolid 26mm hollow cube
